<svg width="32" height="32" viewBox="0 0 32 32" fill="none" xmlns="http://www.w3.org/2000/svg">
<path d="M16 2C8.2804 2 2 8.2804 2 16C2 23.7196 8.2804 30 16 30C23.7196 30 30 23.7196 30 16C30 8.2804 23.7196 2 16 2ZM3.6 16C3.6 9.6592 8.3852 4.418 14.5332 3.6896L11.4752 8.7864C10.5096 10.396 10.2884 12.3424 10.8684 14.1276C11.4484 15.9128 12.7724 17.3576 14.4996 18.0916C16.9576 19.1364 18.1244 21.9932 17.1008 24.4596L15.4716 28.3864C8.8784 28.1084 3.6 22.66 3.6 16ZM17.2232 28.3392L18.5784 25.0732C19.9376 21.7984 18.3884 18.006 15.1252 16.6192C14.4823 16.3461 13.9055 15.9382 13.4337 15.423C12.9619 14.9079 12.6061 14.2976 12.3904 13.6332C12.1743 12.9688 12.1033 12.2658 12.1821 11.5716C12.2609 10.8774 12.4877 10.2082 12.8472 9.6092L16.446 3.6112C23.0772 3.8472 28.4 9.3124 28.4 16C28.4 22.4244 23.4884 27.7228 17.2232 28.3392Z" fill="black"/>
</svg>
