<svg width="56" height="58" viewBox="0 0 56 58" fill="none" xmlns="http://www.w3.org/2000/svg">
<rect width="56" height="58" fill="#1A1A1A"/>
<path d="M-1043 -4080C-1043 -4081.1 -1042.1 -4082 -1041 -4082H13211C13212.1 -4082 13213 -4081.1 13213 -4080V4662C13213 4663.1 13212.1 4664 13211 4664H-1041C-1042.1 4664 -1043 4663.1 -1043 4662V-4080Z" fill="#262626"/>
<path d="M-1041 -4081H13211V-4083H-1041V-4081ZM13212 -4080V4662H13214V-4080H13212ZM13211 4663H-1041V4665H13211V4663ZM-1042 4662V-4080H-1044V4662H-1042ZM-1041 4663C-1041.55 4663 -1042 4662.55 -1042 4662H-1044C-1044 4663.66 -1042.66 4665 -1041 4665V4663ZM13212 4662C13212 4662.55 13211.6 4663 13211 4663V4665C13212.7 4665 13214 4663.66 13214 4662H13212ZM13211 -4081C13211.6 -4081 13212 -4080.55 13212 -4080H13214C13214 -4081.66 13212.7 -4083 13211 -4083V-4081ZM-1041 -4083C-1042.66 -4083 -1044 -4081.66 -1044 -4080H-1042C-1042 -4080.55 -1041.55 -4081 -1041 -4081V-4083Z" fill="white" fill-opacity="0.1"/>
<g clip-path="url(#clip0_1310_4199)" filter="url(#filter0_d_1310_4199)">
<path d="M-24 9.00001C-24 -7.56853 -10.5685 -21 6 -21H321C337.569 -21 351 -7.56854 351 9V726H-24V9.00001Z" fill="white"/>
<g clip-path="url(#clip1_1310_4199)">
<path d="M11 26.9206C14.285 36.7706 12.4475 42.5831 11 46.1956C6.18249 58.2456 48.3475 59.4481 51.96 40.1731C55.575 20.8981 36.3 6.44061 25.46 5.23561C14.615 4.03311 11.0025 7.64561 8.59249 11.2606C6.18249 14.8756 8.58999 19.6931 11 26.9206Z" fill="#FF697B"/>
<path d="M25.9398 3.58984C11.4947 3.58984 -0.257324 14.8644 -0.257324 28.7226C-0.257324 42.5808 11.4947 53.8554 25.9398 53.8554C40.3848 53.8554 52.1368 42.5808 52.1368 28.7226C52.1368 14.8644 40.3848 3.58984 25.9398 3.58984ZM2.73663 28.7226C2.73663 17.3396 11.6908 7.93063 23.1951 6.62301L17.4729 15.7728C15.666 18.6623 15.2521 22.1565 16.3374 25.3613C17.4227 28.5661 19.9002 31.1598 23.1322 32.4775C27.7316 34.3531 29.915 39.4816 27.9996 43.9093L24.951 50.9587C12.6137 50.4596 2.73663 40.6786 2.73663 28.7226ZM28.2286 50.8739L30.7645 45.0108C33.3079 39.1319 30.409 32.3238 24.3028 29.8342C23.0998 29.3439 22.0204 28.6116 21.1376 27.6869C20.2548 26.7621 19.5891 25.6664 19.1854 24.4737C18.781 23.281 18.6481 22.019 18.7955 20.7728C18.943 19.5266 19.3674 18.3253 20.0402 17.2499L26.7743 6.48227C39.1828 6.90593 49.1429 16.7171 49.1429 28.7226C49.1429 40.2557 39.9522 49.7674 28.2286 50.8739Z" fill="black"/>
</g>
</g>
<defs>
<filter id="filter0_d_1310_4199" x="-28" y="-86" width="383" height="820" filterUnits="userSpaceOnUse" color-interpolation-filters="sRGB">
<feFlood flood-opacity="0" result="BackgroundImageFix"/>
<feColorMatrix in="SourceAlpha" type="matrix" values="0 0 0 0 0 0 0 0 0 0 0 0 0 0 0 0 0 0 127 0" result="hardAlpha"/>
<feOffset dy="4"/>
<feGaussianBlur stdDeviation="2"/>
<feComposite in2="hardAlpha" operator="out"/>
<feColorMatrix type="matrix" values="0 0 0 0 0 0 0 0 0 0 0 0 0 0 0 0 0 0 0.25 0"/>
<feBlend mode="normal" in2="BackgroundImageFix" result="effect1_dropShadow_1310_4199"/>
<feBlend mode="normal" in="SourceGraphic" in2="effect1_dropShadow_1310_4199" result="shape"/>
</filter>
<clipPath id="clip0_1310_4199">
<rect width="375" height="812" fill="white" transform="translate(-24 -86)"/>
</clipPath>
<clipPath id="clip1_1310_4199">
<rect width="60" height="60" fill="white"/>
</clipPath>
</defs>
</svg>
