<svg width="32" height="32" viewBox="0 0 32 32" fill="none" xmlns="http://www.w3.org/2000/svg">
<g clip-path="url(#clip0_2575_11438)">
<path d="M13.1209 6.50543e-05C13.0552 0.00110726 12.9904 0.0150748 12.9301 0.0411698C12.8699 0.0672648 12.8153 0.104976 12.7696 0.15215C12.724 0.199324 12.688 0.255036 12.6639 0.316105C12.6397 0.377173 12.6278 0.442402 12.6289 0.508065C12.6284 0.442063 12.6148 0.376817 12.5889 0.31609C12.563 0.255363 12.5254 0.200358 12.4782 0.154247C12.431 0.108136 12.3751 0.0718322 12.3138 0.0474292C12.2524 0.0230261 12.1869 0.0110069 12.1209 0.0120651C12.0058 0.013698 11.8948 0.0549798 11.8066 0.128944C11.7185 0.202908 11.6585 0.305026 11.6369 0.418065C11.6148 0.302665 11.5528 0.198726 11.4617 0.124485C11.3707 0.0502432 11.2564 0.0104422 11.1389 0.0120651C11.0064 0.0139097 10.8801 0.0682267 10.7877 0.163094C10.6953 0.25796 10.6443 0.385625 10.6459 0.518065V0.568065H10.0459C9.97428 0.567314 9.90337 0.581946 9.83792 0.610972C9.77247 0.639997 9.71402 0.68274 9.66652 0.736308C9.61902 0.789876 9.58358 0.85302 9.56259 0.92147C9.54161 0.98992 9.53556 1.06208 9.54488 1.13307H7.97888C7.39888 1.13307 6.92188 1.61907 6.92188 2.19507V28.6821C6.92188 29.2901 7.36487 29.6171 7.36487 29.6171C7.45245 29.6968 7.5655 29.7429 7.68388 29.7471H7.38888L8.36287 31.7211C8.40414 31.8048 8.46802 31.8753 8.54728 31.9246C8.62654 31.9739 8.71803 32 8.81137 32C8.90472 32 8.99621 31.9739 9.07547 31.9246C9.15473 31.8753 9.21861 31.8048 9.25988 31.7211L10.2339 29.7461H9.92188C10.046 29.7463 10.1658 29.7003 10.2579 29.6171C10.2579 29.6171 10.7009 29.2901 10.7009 28.6821V2.19507C10.7009 1.95906 10.6069 1.74707 10.4729 1.56807H10.6459V1.62507C10.6452 1.74924 10.6908 1.8692 10.7738 1.9616C10.8567 2.05401 10.9711 2.11224 11.0946 2.12497C11.2181 2.13769 11.342 2.104 11.442 2.03045C11.5421 1.9569 11.6112 1.84876 11.6359 1.72707C11.6564 1.85285 11.7242 1.96604 11.8254 2.0435C11.9267 2.12096 12.0536 2.15685 12.1804 2.14383C12.3072 2.1308 12.4242 2.06985 12.5076 1.97343C12.5909 1.87701 12.6343 1.7524 12.6289 1.62507C12.6295 1.69073 12.6431 1.75561 12.6688 1.81603C12.6946 1.87644 12.732 1.93119 12.7789 1.97715C12.8258 2.02312 12.8812 2.0594 12.9422 2.08392C13.0031 2.10844 13.0682 2.12072 13.1339 2.12007C13.1995 2.11941 13.2644 2.10583 13.3248 2.08009C13.3852 2.05436 13.44 2.01698 13.486 1.97008C13.5319 1.92319 13.5682 1.8677 13.5927 1.80679C13.6172 1.74587 13.6295 1.68073 13.6289 1.61507V1.56807H13.8589C13.7249 1.74806 13.6309 1.95807 13.6309 2.19507V28.6821C13.6309 29.2901 14.0719 29.6171 14.0719 29.6171C14.1595 29.6968 14.2725 29.7429 14.3909 29.7471H14.0959L15.0699 31.7211C15.1111 31.8048 15.175 31.8753 15.2543 31.9246C15.3335 31.9739 15.425 32 15.5184 32C15.6117 32 15.7032 31.9739 15.7825 31.9246C15.8617 31.8753 15.9256 31.8048 15.9669 31.7211L16.9409 29.7461H16.6289C16.753 29.7463 16.8728 29.7003 16.9649 29.6171C16.9649 29.6171 17.4079 29.2901 17.4079 28.6821V2.19507C17.4079 1.95906 17.3139 1.74707 17.1799 1.56807H17.3299V1.61507C17.3299 1.74767 17.3826 1.87485 17.4763 1.96862C17.5701 2.06239 17.6973 2.11507 17.8299 2.11507C17.9625 2.11507 18.0897 2.06239 18.1834 1.96862C18.2772 1.87485 18.3299 1.74767 18.3299 1.61507C18.3297 1.68073 18.3425 1.74577 18.3676 1.80648C18.3926 1.8672 18.4293 1.92239 18.4756 1.96891C18.5692 2.06287 18.6963 2.1158 18.8289 2.11607C18.9615 2.11633 19.0888 2.06391 19.1827 1.97033C19.2767 1.87674 19.3296 1.74967 19.3299 1.61707C19.3299 1.74967 19.3826 1.87685 19.4763 1.97062C19.5701 2.06439 19.6973 2.11707 19.8299 2.11707C19.9625 2.11707 20.0897 2.06439 20.1834 1.97062C20.2772 1.87685 20.3299 1.74967 20.3299 1.61707V1.56807H20.4789C20.3439 1.74806 20.2499 1.95807 20.2499 2.19507V28.6821C20.2499 29.2901 20.6929 29.6171 20.6929 29.6171C20.7805 29.6968 20.8935 29.7429 21.0119 29.7471H20.7169L21.6909 31.7211C21.7321 31.8048 21.796 31.8753 21.8753 31.9246C21.9545 31.9739 22.046 32 22.1394 32C22.2327 32 22.3242 31.9739 22.4035 31.9246C22.4827 31.8753 22.5466 31.8048 22.5879 31.7211L23.5619 29.7461H23.2499C23.374 29.7463 23.4938 29.7003 23.5859 29.6171C23.5859 29.6171 24.0289 29.2901 24.0289 28.6821V2.19507C24.0289 1.61907 23.5529 1.13307 22.9729 1.13307H21.7099C21.7192 1.06199 21.7131 0.989749 21.6921 0.921228C21.671 0.852706 21.6355 0.789511 21.5879 0.735926C21.5403 0.682341 21.4817 0.639619 21.4161 0.610657C21.3506 0.581695 21.2795 0.567169 21.2079 0.568065H20.3289V0.510065C20.3297 0.443222 20.3171 0.376896 20.2918 0.315007C20.2666 0.253119 20.2291 0.196926 20.1818 0.14975C20.1344 0.102575 20.0781 0.0653762 20.0161 0.040353C19.9541 0.0153298 19.8877 0.00299057 19.8209 0.00406505C19.689 0.00617156 19.5632 0.0603278 19.4711 0.154733C19.3789 0.249138 19.3278 0.37614 19.3289 0.508065C19.33 0.441055 19.3176 0.374512 19.2924 0.31239C19.2673 0.250268 19.2299 0.193836 19.1825 0.146447C19.1351 0.0990574 19.0787 0.0616787 19.0165 0.036532C18.9544 0.0113854 18.8879 -0.00101596 18.8209 6.50543e-05C18.7552 0.00110726 18.6904 0.0150748 18.6301 0.0411698C18.5699 0.0672648 18.5153 0.104976 18.4696 0.15215C18.424 0.199324 18.388 0.255036 18.3639 0.316105C18.3397 0.377173 18.3278 0.442402 18.3289 0.508065C18.33 0.441055 18.3176 0.374512 18.2924 0.31239C18.2673 0.250268 18.2299 0.193836 18.1825 0.146447C18.1351 0.0990574 18.0787 0.0616787 18.0165 0.036532C17.9544 0.0113854 17.8879 -0.00101596 17.8209 6.50543e-05C17.7552 0.00110726 17.6904 0.0150748 17.6301 0.0411698C17.5699 0.0672648 17.5153 0.104976 17.4696 0.15215C17.424 0.199324 17.388 0.255036 17.3639 0.316105C17.3397 0.377173 17.3278 0.442402 17.3289 0.508065V0.568065H16.1569C16.0852 0.567169 16.0142 0.581695 15.9486 0.610657C15.883 0.639619 15.8245 0.682341 15.7768 0.735926C15.7292 0.789511 15.6937 0.852706 15.6727 0.921228C15.6516 0.989749 15.6456 1.06199 15.6549 1.13307H15.5999C15.6092 1.06199 15.6031 0.989749 15.5821 0.921228C15.561 0.852706 15.5255 0.789511 15.4779 0.735926C15.4303 0.682341 15.3717 0.639619 15.3061 0.610657C15.2406 0.581695 15.1695 0.567169 15.0979 0.568065H13.6279V0.508065C13.6289 0.441226 13.6166 0.37485 13.5916 0.312863C13.5666 0.250875 13.5294 0.194535 13.4822 0.147173C13.435 0.0998113 13.3788 0.0623903 13.3169 0.0371227C13.255 0.0118552 13.1877 -0.000745754 13.1209 6.50543e-05ZM7.97988 2.13306H9.64587C9.68088 2.13306 9.70187 2.14807 9.70187 2.19507V8.75006C9.678 8.747 9.65394 8.74566 9.62988 8.74607H7.92188V2.19607C7.92188 2.14807 7.94288 2.13306 7.97988 2.13306ZM14.6869 2.13306H16.3529C16.3879 2.13306 16.4089 2.14807 16.4089 2.19507V8.74607H14.6319V2.19607C14.6319 2.14807 14.6509 2.13306 14.6869 2.13306ZM21.3069 2.13306H22.9739C23.0089 2.13306 23.0299 2.14807 23.0299 2.19507V8.74607H21.2499V2.19607C21.2499 2.14807 21.2709 2.13306 21.3069 2.13306ZM9.70187 9.74306V10.7501C9.678 10.747 9.65394 10.7457 9.62988 10.7461H7.92188V9.74607H9.62887C9.65294 9.74647 9.677 9.74513 9.70088 9.74206L9.70187 9.74306ZM14.6319 9.74607H16.4089V10.7461H14.6319V9.74607ZM21.2509 9.74607H23.0309V10.7461H21.2509V9.74607ZM9.70088 11.7421V12.7501C9.677 12.747 9.65294 12.7457 9.62887 12.7461H7.92188V11.7461H9.62887C9.65294 11.7465 9.677 11.7451 9.70088 11.7421ZM14.6309 11.7461H16.4079V12.7461H14.6309V11.7461ZM21.2499 11.7461H23.0299V12.7461H21.2499V11.7461ZM9.70088 13.7421V28.6821C9.70088 28.6971 9.58788 28.8751 9.58788 28.8751C9.54107 28.9175 9.50273 28.9684 9.47488 29.0251C9.47139 29.0317 9.46806 29.0383 9.46488 29.0451L8.81287 30.3711L8.15388 29.0391V29.0371C8.15193 29.033 8.14993 29.029 8.14787 29.0251C8.12002 28.9684 8.08168 28.9175 8.03487 28.8751C8.03487 28.8751 7.92188 28.6971 7.92188 28.6821V13.7461H9.62887C9.65294 13.7465 9.677 13.7451 9.70088 13.7421ZM14.6309 13.7461H16.4079V28.6821C16.4079 28.6971 16.2949 28.8751 16.2949 28.8751C16.2481 28.9175 16.2097 28.9684 16.1819 29.0251C16.1784 29.0317 16.1751 29.0383 16.1719 29.0451L15.5199 30.3711L14.8609 29.0391V29.0371C14.8589 29.033 14.8569 29.029 14.8549 29.0251C14.827 28.9684 14.7887 28.9175 14.7419 28.8751C14.7419 28.8751 14.6309 28.6971 14.6309 28.6821V13.7461ZM21.2499 13.7461H23.0299V28.6821C23.0299 28.6971 22.9159 28.8751 22.9159 28.8751C22.8691 28.9175 22.8307 28.9684 22.8029 29.0251C22.7994 29.0317 22.7961 29.0383 22.7929 29.0451L22.1409 30.3711L21.4819 29.0391V29.0371C21.4803 29.033 21.4786 29.029 21.4769 29.0251C21.4487 28.9683 21.41 28.9174 21.3629 28.8751C21.3629 28.8751 21.2499 28.6971 21.2499 28.6821V13.7461Z" fill="black"/>
</g>
<defs>
<clipPath id="clip0_2575_11438">
<rect width="32" height="32" fill="white"/>
</clipPath>
</defs>
</svg>
