<svg width="32" height="32" viewBox="0 0 32 32" fill="none" xmlns="http://www.w3.org/2000/svg">
<path d="M23 10H9.41736L14 5.41638L12.5839 4L6.29346 10.2917C6.20043 10.3847 6.12664 10.4951 6.07629 10.6166C6.02594 10.7382 6.00003 10.8684 6.00003 10.9999C6.00003 11.1315 6.02594 11.2617 6.07629 11.3832C6.12664 11.5047 6.20043 11.6151 6.29346 11.7081L12.5839 18L14 16.5835L9.41736 12H23C24.8565 12 26.637 12.7375 27.9497 14.0503C29.2625 15.363 30 17.1435 30 19C30 20.8565 29.2625 22.637 27.9497 23.9497C26.637 25.2625 24.8565 26 23 26H0V28H23C25.3869 28 27.6761 27.0518 29.364 25.364C31.0518 23.6761 32 21.3869 32 19C32 16.6131 31.0518 14.3239 29.364 12.636C27.6761 10.9482 25.3869 10 23 10Z" fill="black"/>
</svg>
