<svg width="60" height="61" viewBox="0 0 60 61" fill="none" xmlns="http://www.w3.org/2000/svg">
<path d="M59.3748 38.1184C55.0503 52.319 42.3487 61.7767 27.0295 60.0762C11.7104 58.3757 2.98848 45.3351 4.7586 30.6383C6.52872 15.9415 20.0389 0.932599 33.5758 7.15235C47.846 13.7076 63.3206 25.1617 59.3748 38.1184Z" fill="#DEFF8F"/>
<path d="M29.9398 3.86328C15.4947 3.86328 3.74268 15.1378 3.74268 28.9961C3.74268 42.8543 15.4947 54.1288 29.9398 54.1288C44.3848 54.1288 56.1368 42.8543 56.1368 28.9961C56.1368 15.1378 44.3848 3.86328 29.9398 3.86328ZM6.73663 28.9961C6.73663 17.6131 15.6908 8.20407 27.1951 6.89645L21.4729 16.0462C19.666 18.9358 19.2521 22.4299 20.3374 25.6347C21.4227 28.8395 23.9002 31.4332 27.1322 32.7509C31.7316 34.6265 33.915 39.755 31.9996 44.1827L28.951 51.2321C16.6137 50.733 6.73663 40.9521 6.73663 28.9961ZM32.2286 51.1474L34.7645 45.2842C37.3079 39.4053 34.409 32.5972 28.3028 30.1076C27.0998 29.6173 26.0204 28.885 25.1376 27.9603C24.2548 27.0356 23.5891 25.9399 23.1854 24.7472C22.781 23.5545 22.6481 22.2924 22.7955 21.0462C22.943 19.8 23.3674 18.5987 24.0402 17.5233L30.7743 6.7557C43.1828 7.17937 53.1429 16.9905 53.1429 28.9961C53.1429 40.5291 43.9522 50.0408 32.2286 51.1474Z" fill="black"/>
</svg>
