<svg width="32" height="32" viewBox="0 0 32 32" fill="none" xmlns="http://www.w3.org/2000/svg">
<circle cx="16" cy="16" r="16" fill="#181518"/>
<circle cx="16" cy="16" r="16" fill="#F0EDF1"/>
<g clip-path="url(#clip0_1667_9196)">
<path d="M19.75 11L18.72 10H13.28L12.25 11H8.5V22H23.5V11H19.75Z" stroke="#181518" stroke-width="1.5" stroke-miterlimit="10"/>
<path d="M16 20C17.933 20 19.5 18.433 19.5 16.5C19.5 14.567 17.933 13 16 13C14.067 13 12.5 14.567 12.5 16.5C12.5 18.433 14.067 20 16 20Z" stroke="#181518" stroke-width="1.5" stroke-miterlimit="10"/>
<path d="M10.5 13.25C10.4337 13.25 10.3701 13.2237 10.3232 13.1768C10.2763 13.1299 10.25 13.0663 10.25 13C10.25 12.9337 10.2763 12.8701 10.3232 12.8232C10.3701 12.7763 10.4337 12.75 10.5 12.75C10.5663 12.75 10.6299 12.7763 10.6768 12.8232C10.7237 12.8701 10.75 12.9337 10.75 13C10.75 13.0663 10.7237 13.1299 10.6768 13.1768C10.6299 13.2237 10.5663 13.25 10.5 13.25Z" stroke="#181518" stroke-width="0.75" stroke-miterlimit="10"/>
</g>
<defs>
<clipPath id="clip0_1667_9196">
<rect width="16" height="16" fill="white" transform="translate(8 8)"/>
</clipPath>
</defs>
</svg>
