<svg width="60" height="60" viewBox="0 0 60 60" fill="none" xmlns="http://www.w3.org/2000/svg">
<path d="M6.57538 35.3232C3.50538 42.4907 6.57538 49.4007 11.6954 51.9607C26.4629 59.3432 39.8454 51.9607 48.4604 43.7607C56.4354 36.1732 57.4179 14.3307 47.1804 7.93319C36.9454 1.53319 19.0304 5.89069 19.0304 18.1682C19.0304 28.9282 10.4154 26.3657 6.57538 35.3232Z" fill="#D8C5E3"/>
<path fill-rule="evenodd" clip-rule="evenodd" d="M1.25 46.25C1.25 45.9185 1.3817 45.6005 1.61612 45.3661C1.85054 45.1317 2.16848 45 2.5 45H57.5C57.8315 45 58.1495 45.1317 58.3839 45.3661C58.6183 45.6005 58.75 45.9185 58.75 46.25C58.75 46.5815 58.6183 46.8995 58.3839 47.1339C58.1495 47.3683 57.8315 47.5 57.5 47.5H2.5C2.16848 47.5 1.85054 47.3683 1.61612 47.1339C1.3817 46.8995 1.25 46.5815 1.25 46.25Z" fill="black"/>
<path fill-rule="evenodd" clip-rule="evenodd" d="M1.25 16.248C1.25 15.2535 1.64509 14.2997 2.34835 13.5964C3.05161 12.8931 4.00544 12.498 5 12.498H12.5C13.4946 12.498 14.4484 12.8931 15.1517 13.5964C15.8549 14.2997 16.25 15.2535 16.25 16.248V28.748C16.25 29.0796 16.1183 29.3975 15.8839 29.6319C15.6495 29.8664 15.3315 29.998 15 29.998H2.5C2.16848 29.998 1.85054 29.8664 1.61612 29.6319C1.3817 29.3975 1.25 29.0796 1.25 28.748V16.248ZM5 14.998C4.66848 14.998 4.35054 15.1297 4.11612 15.3642C3.8817 15.5986 3.75 15.9165 3.75 16.248V27.498H13.75V16.248C13.75 15.9165 13.6183 15.5986 13.3839 15.3642C13.1495 15.1297 12.8315 14.998 12.5 14.998H5ZM43.75 16.248C43.75 15.2535 44.1451 14.2997 44.8484 13.5964C45.5516 12.8931 46.5054 12.498 47.5 12.498H55C55.9946 12.498 56.9484 12.8931 57.6516 13.5964C58.3549 14.2997 58.75 15.2535 58.75 16.248V28.748C58.75 29.0796 58.6183 29.3975 58.3839 29.6319C58.1495 29.8664 57.8315 29.998 57.5 29.998H45C44.6685 29.998 44.3505 29.8664 44.1161 29.6319C43.8817 29.3975 43.75 29.0796 43.75 28.748V16.248ZM47.5 14.998C47.1685 14.998 46.8505 15.1297 46.6161 15.3642C46.3817 15.5986 46.25 15.9165 46.25 16.248V27.498H56.25V16.248C56.25 15.9165 56.1183 15.5986 55.8839 15.3642C55.6495 15.1297 55.3315 14.998 55 14.998H47.5ZM22.5 16.248C22.5 15.2535 22.8951 14.2997 23.5983 13.5964C24.3016 12.8931 25.2554 12.498 26.25 12.498H33.75C34.7446 12.498 35.6984 12.8931 36.4016 13.5964C37.1049 14.2997 37.5 15.2535 37.5 16.248V28.748C37.5 29.0796 37.3683 29.3975 37.1339 29.6319C36.8995 29.8664 36.5815 29.998 36.25 29.998H23.75C23.4185 29.998 23.1005 29.8664 22.8661 29.6319C22.6317 29.3975 22.5 29.0796 22.5 28.748V16.248ZM26.25 14.998C25.9185 14.998 25.6005 15.1297 25.3661 15.3642C25.1317 15.5986 25 15.9165 25 16.248V27.498H35V16.248C35 15.9165 34.8683 15.5986 34.6339 15.3642C34.3995 15.1297 34.0815 14.998 33.75 14.998H26.25ZM1.25 36.248C1.25 35.9165 1.3817 35.5986 1.61612 35.3642C1.85054 35.1297 2.16848 34.998 2.5 34.998H15C15.3315 34.998 15.6495 35.1297 15.8839 35.3642C16.1183 35.5986 16.25 35.9165 16.25 36.248C16.25 36.5796 16.1183 36.8975 15.8839 37.1319C15.6495 37.3664 15.3315 37.498 15 37.498H10V46.2481C10 46.5796 9.8683 46.8975 9.63388 47.1319C9.39946 47.3664 9.08152 47.4981 8.75 47.4981C8.41848 47.4981 8.10054 47.3664 7.86612 47.1319C7.6317 46.8975 7.5 46.5796 7.5 46.2481V37.498H2.5C2.16848 37.498 1.85054 37.3664 1.61612 37.1319C1.3817 36.8975 1.25 36.5796 1.25 36.248ZM43.75 36.248C43.75 35.9165 43.8817 35.5986 44.1161 35.3642C44.3505 35.1297 44.6685 34.998 45 34.998H57.5C57.8315 34.998 58.1495 35.1297 58.3839 35.3642C58.6183 35.5986 58.75 35.9165 58.75 36.248C58.75 36.5796 58.6183 36.8975 58.3839 37.1319C58.1495 37.3664 57.8315 37.498 57.5 37.498H52.5V46.2481C52.5 46.5796 52.3683 46.8975 52.1339 47.1319C51.8995 47.3664 51.5815 47.4981 51.25 47.4981C50.9185 47.4981 50.6005 47.3664 50.3661 47.1319C50.1317 46.8975 50 46.5796 50 46.2481V37.498H45C44.6685 37.498 44.3505 37.3664 44.1161 37.1319C43.8817 36.8975 43.75 36.5796 43.75 36.248ZM22.5 36.248C22.5 35.9165 22.6317 35.5986 22.8661 35.3642C23.1005 35.1297 23.4185 34.998 23.75 34.998H36.25C36.5815 34.998 36.8995 35.1297 37.1339 35.3642C37.3683 35.5986 37.5 35.9165 37.5 36.248C37.5 36.5796 37.3683 36.8975 37.1339 37.1319C36.8995 37.3664 36.5815 37.498 36.25 37.498H31.25V46.2481C31.25 46.5796 31.1183 46.8975 30.8839 47.1319C30.6495 47.3664 30.3315 47.4981 30 47.4981C29.6685 47.4981 29.3505 47.3664 29.1161 47.1319C28.8817 46.8975 28.75 46.5796 28.75 46.2481V37.498H23.75C23.4185 37.498 23.1005 37.3664 22.8661 37.1319C22.6317 36.8975 22.5 36.5796 22.5 36.248Z" fill="black"/>
</svg>
