<svg width="17" height="16" viewBox="0 0 17 16" fill="none" xmlns="http://www.w3.org/2000/svg">
<path fill-rule="evenodd" clip-rule="evenodd" d="M8.50264 0.666016C4.46002 0.666016 1.16406 3.95731 1.16406 7.99926C1.16406 12.0412 4.46069 15.3365 8.50264 15.3365C12.5446 15.3365 15.8345 12.0412 15.8345 7.99926C15.8345 3.95731 12.5446 0.666016 8.50264 0.666016ZM8.50264 1.99933C9.29086 1.99801 10.0716 2.15232 10.8001 2.45339C11.5285 2.75447 12.1904 3.19639 12.7477 3.75381C13.305 4.31124 13.7468 4.9732 14.0477 5.70173C14.3486 6.43026 14.5027 7.21103 14.5012 7.99926C14.5028 8.7877 14.3488 9.5687 14.0479 10.2975C13.7471 11.0263 13.3054 11.6885 12.7481 12.2463C12.1909 12.8041 11.529 13.2464 10.8005 13.5478C10.0719 13.8493 9.29108 14.0041 8.50264 14.0032C7.71386 14.0041 6.93263 13.8495 6.20369 13.5482C5.47475 13.2468 4.81241 12.8046 4.2546 12.2469C3.69678 11.6892 3.25445 11.027 2.95292 10.2981C2.65139 9.56923 2.49659 8.78804 2.49738 7.99926C2.49738 4.67797 5.18134 1.99933 8.50264 1.99933ZM8.49197 3.32332C8.40385 3.32418 8.31678 3.3425 8.23579 3.37723C8.1548 3.41196 8.0815 3.4624 8.02012 3.52563C7.95875 3.58887 7.91052 3.66364 7.87822 3.74563C7.84593 3.82762 7.83021 3.9152 7.83198 4.00331V7.99926C7.83235 8.08698 7.85003 8.17377 7.884 8.25465C7.91798 8.33553 7.96758 8.40891 8.02998 8.47058L10.6966 11.1386C10.7583 11.202 10.832 11.2526 10.9134 11.2873C10.9949 11.322 11.0824 11.3401 11.1709 11.3406C11.2594 11.3411 11.3471 11.324 11.4289 11.2902C11.5108 11.2565 11.585 11.2068 11.6474 11.144C11.7098 11.0813 11.7591 11.0067 11.7924 10.9247C11.8257 10.8427 11.8423 10.7549 11.8413 10.6663C11.8403 10.5778 11.8217 10.4904 11.7865 10.4092C11.7514 10.328 11.7004 10.2546 11.6366 10.1932L9.16663 7.72326V4.00331C9.16842 3.91397 9.15224 3.82518 9.11903 3.74222C9.08583 3.65926 9.03629 3.58382 8.97336 3.52039C8.91042 3.45695 8.83537 3.40682 8.75268 3.37296C8.66998 3.33911 8.58132 3.32223 8.49197 3.32332Z" fill="#BDBABD"/>
</svg>
