<svg width="24" height="24" viewBox="0 0 24 24" fill="none" xmlns="http://www.w3.org/2000/svg">
<g clip-path="url(#clip0_1386_4760)">
<path d="M18.8579 11.9348L20.9963 15.6387" stroke="#181518" stroke-width="1.125" stroke-linecap="round" stroke-linejoin="round"/>
<path d="M18.8579 11.9348L20.9963 15.6387" stroke="#6F6C6F" stroke-width="1.125" stroke-linecap="round" stroke-linejoin="round"/>
<path d="M14.4546 13.9935L15.1215 17.7757" stroke="#181518" stroke-width="1.125" stroke-linecap="round" stroke-linejoin="round"/>
<path d="M14.4546 13.9935L15.1215 17.7757" stroke="#6F6C6F" stroke-width="1.125" stroke-linecap="round" stroke-linejoin="round"/>
<path d="M9.53715 13.9916L8.87012 17.7744" stroke="#181518" stroke-width="1.125" stroke-linecap="round" stroke-linejoin="round"/>
<path d="M9.53715 13.9916L8.87012 17.7744" stroke="#6F6C6F" stroke-width="1.125" stroke-linecap="round" stroke-linejoin="round"/>
<path d="M5.1385 11.9317L2.98975 15.6535" stroke="#181518" stroke-width="1.125" stroke-linecap="round" stroke-linejoin="round"/>
<path d="M5.1385 11.9317L2.98975 15.6535" stroke="#6F6C6F" stroke-width="1.125" stroke-linecap="round" stroke-linejoin="round"/>
<path d="M3 9.83203C4.57617 11.783 7.4657 14.25 12.0001 14.25C16.5344 14.25 19.4239 11.783 21.0001 9.83205" stroke="#181518" stroke-width="1.125" stroke-linecap="round" stroke-linejoin="round"/>
<path d="M3 9.83203C4.57617 11.783 7.4657 14.25 12.0001 14.25C16.5344 14.25 19.4239 11.783 21.0001 9.83205" stroke="#6F6C6F" stroke-width="1.125" stroke-linecap="round" stroke-linejoin="round"/>
</g>
<defs>
<clipPath id="clip0_1386_4760">
<rect width="24" height="24" fill="white"/>
</clipPath>
</defs>
</svg>
