<svg width="399" height="423" viewBox="0 0 399 423" fill="none" xmlns="http://www.w3.org/2000/svg">
<g filter="url(#filter0_f_1667_6668)">
<path d="M314 211.5C314 281.265 257.016 338 186.5 338C115.984 338 59 281.265 59 211.5C59 141.735 115.984 85 186.5 85C257.016 85 314 141.735 314 211.5Z" stroke="#2E8DFF" stroke-opacity="0.49" stroke-width="30"/>
</g>
<path d="M158.814 156V148.3H161.344C161.945 148.3 162.44 148.399 162.829 148.597C163.218 148.795 163.504 149.063 163.687 149.4C163.878 149.737 163.973 150.119 163.973 150.544C163.973 150.962 163.881 151.34 163.698 151.677C163.515 152.014 163.229 152.286 162.84 152.491C162.451 152.689 161.953 152.788 161.344 152.788H159.738V156H158.814ZM159.738 152.007H161.322C161.938 152.007 162.374 151.879 162.631 151.622C162.895 151.358 163.027 150.999 163.027 150.544C163.027 150.082 162.895 149.723 162.631 149.466C162.374 149.202 161.938 149.07 161.322 149.07H159.738V152.007ZM165.129 156V148.08H166.053V156H165.129ZM169.383 156.132C168.928 156.132 168.55 156.055 168.25 155.901C167.949 155.747 167.725 155.542 167.579 155.285C167.432 155.028 167.359 154.75 167.359 154.449C167.359 153.892 167.571 153.463 167.997 153.162C168.422 152.861 169.001 152.711 169.735 152.711H171.209V152.645C171.209 152.168 171.084 151.809 170.835 151.567C170.585 151.318 170.252 151.193 169.834 151.193C169.474 151.193 169.163 151.285 168.899 151.468C168.642 151.644 168.481 151.904 168.415 152.249H167.469C167.505 151.853 167.637 151.519 167.865 151.248C168.099 150.977 168.389 150.771 168.734 150.632C169.078 150.485 169.445 150.412 169.834 150.412C170.596 150.412 171.168 150.617 171.55 151.028C171.938 151.431 172.133 151.97 172.133 152.645V156H171.308L171.253 155.021C171.099 155.329 170.871 155.593 170.571 155.813C170.277 156.026 169.881 156.132 169.383 156.132ZM169.526 155.351C169.878 155.351 170.178 155.259 170.428 155.076C170.684 154.893 170.879 154.654 171.011 154.361C171.143 154.068 171.209 153.76 171.209 153.437V153.426H169.812C169.269 153.426 168.884 153.521 168.657 153.712C168.437 153.895 168.327 154.126 168.327 154.405C168.327 154.691 168.429 154.922 168.635 155.098C168.847 155.267 169.144 155.351 169.526 155.351ZM173.952 158.42L175.305 155.472H174.986L172.819 150.544H173.82L175.624 154.79L177.538 150.544H178.495L174.92 158.42H173.952ZM181.407 156.132C180.887 156.132 180.425 156.015 180.021 155.78C179.618 155.538 179.299 155.204 179.064 154.779C178.837 154.354 178.723 153.851 178.723 153.272C178.723 152.7 178.837 152.201 179.064 151.776C179.292 151.343 179.607 151.01 180.01 150.775C180.421 150.533 180.894 150.412 181.429 150.412C181.957 150.412 182.412 150.533 182.793 150.775C183.182 151.01 183.479 151.321 183.684 151.71C183.89 152.099 183.992 152.517 183.992 152.964C183.992 153.045 183.989 153.125 183.981 153.206C183.981 153.287 183.981 153.378 183.981 153.481H179.636C179.658 153.899 179.754 154.247 179.922 154.526C180.098 154.797 180.315 155.003 180.571 155.142C180.835 155.281 181.114 155.351 181.407 155.351C181.789 155.351 182.108 155.263 182.364 155.087C182.621 154.911 182.808 154.673 182.925 154.372H183.838C183.692 154.878 183.409 155.3 182.991 155.637C182.581 155.967 182.053 156.132 181.407 156.132ZM181.407 151.193C180.967 151.193 180.575 151.329 180.23 151.6C179.893 151.864 179.699 152.253 179.647 152.766H183.079C183.057 152.275 182.889 151.89 182.573 151.611C182.258 151.332 181.869 151.193 181.407 151.193ZM185.217 156V150.544H186.053L186.13 151.589C186.299 151.23 186.555 150.944 186.9 150.731C187.245 150.518 187.67 150.412 188.176 150.412V151.38H187.923C187.6 151.38 187.303 151.439 187.032 151.556C186.761 151.666 186.544 151.857 186.383 152.128C186.222 152.399 186.141 152.773 186.141 153.25V156H185.217Z" fill="black"/>
<path d="M194.407 105.349C197.716 113.07 198.82 121.895 192.199 132.926C185.376 146.751 177.859 131.822 172.345 132.926C166.83 134.03 160.212 136.236 155.799 128.513C148.059 114.97 158.005 110.863 163.52 102.041C169.037 93.2156 191.097 97.626 194.407 105.349Z" fill="#FFADAD"/>
<path fill-rule="evenodd" clip-rule="evenodd" d="M152.313 136.952C153.152 134.804 154.619 132.96 156.523 131.66C158.427 130.36 160.678 129.664 162.983 129.664H182.85C185.156 129.664 187.408 130.359 189.312 131.66C191.216 132.96 192.684 134.804 193.523 136.952L193.611 137.174C193.796 137.648 193.862 138.16 193.805 138.665C193.747 139.17 193.567 139.654 193.281 140.074C192.994 140.494 192.609 140.838 192.159 141.075C191.71 141.313 191.209 141.437 190.7 141.437H155.136C154.627 141.437 154.126 141.313 153.676 141.075C153.227 140.838 152.842 140.494 152.555 140.074C152.268 139.654 152.088 139.17 152.031 138.665C151.973 138.16 152.04 137.648 152.225 137.174L152.313 136.952ZM162.983 131.747C161.098 131.748 159.256 132.317 157.698 133.381C156.141 134.445 154.941 135.953 154.254 137.71L154.165 137.933C154.103 138.091 154.081 138.261 154.1 138.43C154.119 138.598 154.179 138.76 154.275 138.9C154.371 139.04 154.499 139.154 154.649 139.233C154.799 139.312 154.966 139.354 155.136 139.354H190.698C190.868 139.354 191.035 139.312 191.185 139.233C191.335 139.154 191.463 139.04 191.559 138.9C191.654 138.76 191.714 138.598 191.734 138.43C191.753 138.261 191.731 138.091 191.669 137.933L191.581 137.71C190.895 135.953 189.695 134.445 188.137 133.381C186.58 132.317 184.738 131.748 182.852 131.747H162.983Z" fill="black"/>
<path fill-rule="evenodd" clip-rule="evenodd" d="M166.162 130.345C166.235 130.145 166.369 129.972 166.544 129.851C166.719 129.729 166.927 129.664 167.141 129.664H178.693C178.906 129.664 179.113 129.73 179.288 129.852C179.462 129.974 179.595 130.146 179.668 130.346C179.742 130.545 179.752 130.763 179.699 130.969C179.645 131.175 179.53 131.359 179.368 131.497L174.943 135.268C174.378 135.75 173.659 136.014 172.917 136.014C172.174 136.014 171.456 135.75 170.891 135.268L166.464 131.497C166.302 131.359 166.186 131.175 166.132 130.969C166.078 130.763 166.088 130.545 166.162 130.345ZM169.97 131.747L172.241 133.681C172.429 133.841 172.668 133.929 172.916 133.929C173.163 133.929 173.402 133.841 173.591 133.681L175.862 131.747H169.97Z" fill="black"/>
<path fill-rule="evenodd" clip-rule="evenodd" d="M172.917 134.146C173.193 134.146 173.458 134.256 173.653 134.451C173.849 134.646 173.958 134.911 173.958 135.188V140.396C173.958 140.672 173.849 140.937 173.653 141.132C173.458 141.328 173.193 141.438 172.917 141.438C172.64 141.438 172.375 141.328 172.18 141.132C171.985 140.937 171.875 140.672 171.875 140.396V135.188C171.875 134.911 171.985 134.646 172.18 134.451C172.375 134.256 172.64 134.146 172.917 134.146ZM160.5 110.146C160.5 103.302 165.506 97.6875 172.917 97.6875C180.325 97.6875 185.329 103.302 185.329 110.146C185.329 111 185.252 111.913 185.104 112.852C185.804 113.494 186.271 114.39 186.271 115.415C186.271 117.192 184.925 118.525 183.292 118.95C182.312 121.173 180.987 123.296 179.358 124.915C177.6 126.66 175.423 127.875 172.915 127.875C170.406 127.875 168.227 126.66 166.471 124.915C164.842 123.296 163.519 121.173 162.537 118.948C160.908 118.523 159.565 117.19 159.565 115.417C159.565 114.392 160.029 113.5 160.725 112.854C160.58 111.959 160.505 111.053 160.5 110.146ZM172.917 99.7708C166.727 99.7708 162.583 104.381 162.583 110.146C162.583 111.042 162.683 112.044 162.883 113.104C162.921 113.309 162.897 113.521 162.813 113.712C162.73 113.902 162.591 114.064 162.415 114.175C161.904 114.498 161.648 114.965 161.648 115.417C161.648 116.096 162.275 116.867 163.394 116.994C163.579 117.014 163.755 117.084 163.903 117.196C164.052 117.308 164.168 117.457 164.24 117.629C165.167 119.867 166.431 121.94 167.94 123.435C169.444 124.929 171.123 125.792 172.915 125.792C174.706 125.792 176.385 124.929 177.89 123.437C179.398 121.937 180.665 119.867 181.59 117.631C181.661 117.459 181.777 117.309 181.926 117.196C182.075 117.084 182.252 117.014 182.437 116.994C183.558 116.869 184.187 116.096 184.187 115.417C184.187 114.962 183.929 114.498 183.417 114.175C183.24 114.064 183.1 113.901 183.017 113.71C182.933 113.518 182.909 113.306 182.948 113.1C183.146 112.044 183.246 111.042 183.246 110.146C183.246 104.381 179.104 99.7708 172.915 99.7708H172.917Z" fill="black"/>
<path fill-rule="evenodd" clip-rule="evenodd" d="M172.812 105.444C172.882 105.437 172.953 105.437 173.023 105.444L182.448 106.408C182.775 106.417 183.087 106.494 183.371 106.625C183.552 106.484 183.775 106.407 184.004 106.406C184.234 106.405 184.457 106.48 184.64 106.619C184.822 106.758 184.954 106.953 185.014 107.175C185.074 107.396 185.06 107.631 184.973 107.844L184.733 108.431C185.458 111.413 183.4 114.452 180.281 114.698L179.156 114.788C179.1 114.792 179.045 114.792 178.989 114.788L172.916 114.308L166.843 114.788C166.789 114.792 166.734 114.792 166.679 114.788L165.554 114.698C162.429 114.452 160.373 111.406 161.104 108.421L160.875 107.827C160.793 107.616 160.783 107.384 160.845 107.166C160.907 106.948 161.038 106.756 161.219 106.62C161.4 106.483 161.621 106.41 161.847 106.41C162.074 106.41 162.294 106.484 162.475 106.621C162.754 106.492 163.062 106.417 163.385 106.408L172.812 105.444ZM172.916 107.527L163.552 108.485C163.517 108.489 163.482 108.491 163.448 108.492C163.389 108.493 163.333 108.514 163.287 108.55C163.241 108.586 163.207 108.635 163.191 108.692C162.581 110.567 163.862 112.475 165.716 112.621L166.762 112.704L172.835 112.225C172.89 112.221 172.945 112.221 173 112.225L179.073 112.704L180.118 112.621C181.973 112.475 183.252 110.565 182.641 108.692C182.626 108.636 182.592 108.586 182.547 108.55C182.501 108.514 182.445 108.494 182.387 108.492C182.352 108.491 182.318 108.489 182.283 108.485L172.916 107.527ZM189.583 97.6875C189.583 96.8587 189.912 96.0638 190.498 95.4778C191.084 94.8917 191.879 94.5625 192.708 94.5625H195.833C196.662 94.5625 197.457 94.8917 198.043 95.4778C198.629 96.0638 198.958 96.8587 198.958 97.6875V114.875C198.958 116.118 198.464 117.31 197.585 118.19C196.706 119.069 195.514 119.562 194.271 119.562C193.027 119.562 191.835 119.069 190.956 118.19C190.077 117.31 189.583 116.118 189.583 114.875V97.6875ZM192.708 96.6458C192.432 96.6458 192.167 96.7556 191.971 96.9509C191.776 97.1463 191.666 97.4112 191.666 97.6875V114.875C191.666 115.566 191.941 116.228 192.429 116.716C192.917 117.205 193.58 117.479 194.271 117.479C194.961 117.479 195.624 117.205 196.112 116.716C196.6 116.228 196.875 115.566 196.875 114.875V97.6875C196.875 97.4112 196.765 97.1463 196.57 96.9509C196.374 96.7556 196.109 96.6458 195.833 96.6458H192.708Z" fill="black"/>
<path fill-rule="evenodd" clip-rule="evenodd" d="M191.666 118.521C191.666 118.245 191.776 117.98 191.971 117.784C192.167 117.589 192.432 117.479 192.708 117.479H195.833C196.109 117.479 196.374 117.589 196.57 117.784C196.765 117.98 196.875 118.245 196.875 118.521V127.375C196.875 128.066 196.6 128.728 196.112 129.216C195.624 129.705 194.961 129.979 194.27 129.979C193.58 129.979 192.917 129.705 192.429 129.216C191.941 128.728 191.666 128.066 191.666 127.375V118.521ZM193.75 119.563V127.375C193.75 127.513 193.805 127.646 193.902 127.743C194 127.841 194.132 127.896 194.27 127.896C194.409 127.896 194.541 127.841 194.639 127.743C194.736 127.646 194.791 127.513 194.791 127.375V119.563H193.75ZM168.435 118.317C169.81 117.568 171.351 117.176 172.917 117.176C174.483 117.176 176.024 117.568 177.4 118.317L181.166 120.367C181.409 120.499 181.59 120.722 181.668 120.987C181.746 121.252 181.716 121.537 181.584 121.78C181.452 122.023 181.229 122.204 180.964 122.282C180.699 122.36 180.413 122.33 180.17 122.198L176.404 120.148C175.334 119.566 174.135 119.26 172.917 119.26C171.699 119.26 170.501 119.566 169.431 120.148L165.96 122.035C165.84 122.105 165.707 122.15 165.569 122.167C165.431 122.184 165.291 122.174 165.157 122.136C165.023 122.098 164.898 122.034 164.79 121.948C164.681 121.861 164.591 121.754 164.524 121.631C164.458 121.509 164.416 121.375 164.403 121.237C164.389 121.099 164.403 120.959 164.444 120.826C164.485 120.693 164.552 120.57 164.641 120.464C164.731 120.357 164.84 120.27 164.964 120.206L168.435 118.317Z" fill="black"/>
<path d="M52.618 252V245.059H50.319V244.3H55.841V245.059H53.542V252H52.618ZM58.412 252.132C57.8987 252.132 57.4367 252.015 57.026 251.78C56.6153 251.545 56.289 251.215 56.047 250.79C55.8123 250.357 55.695 249.851 55.695 249.272C55.695 248.693 55.816 248.19 56.058 247.765C56.3 247.332 56.6263 246.999 57.037 246.764C57.455 246.529 57.9207 246.412 58.434 246.412C58.9473 246.412 59.4093 246.529 59.82 246.764C60.2307 246.999 60.5533 247.332 60.788 247.765C61.03 248.19 61.151 248.693 61.151 249.272C61.151 249.851 61.03 250.357 60.788 250.79C60.546 251.215 60.216 251.545 59.798 251.78C59.3873 252.015 58.9253 252.132 58.412 252.132ZM58.412 251.34C58.7273 251.34 59.0207 251.263 59.292 251.109C59.5633 250.955 59.7833 250.724 59.952 250.416C60.1207 250.108 60.205 249.727 60.205 249.272C60.205 248.817 60.1207 248.436 59.952 248.128C59.7907 247.82 59.5743 247.589 59.303 247.435C59.0317 247.281 58.742 247.204 58.434 247.204C58.1187 247.204 57.8253 247.281 57.554 247.435C57.2827 247.589 57.0627 247.82 56.894 248.128C56.7253 248.436 56.641 248.817 56.641 249.272C56.641 249.727 56.7253 250.108 56.894 250.416C57.0627 250.724 57.279 250.955 57.543 251.109C57.8143 251.263 58.104 251.34 58.412 251.34ZM64.4268 252.132C63.7814 252.132 63.2681 251.938 62.8868 251.549C62.5054 251.153 62.3148 250.548 62.3148 249.734V246.544H63.2388V249.635C63.2388 250.772 63.7044 251.34 64.6358 251.34C65.1124 251.34 65.5048 251.171 65.8128 250.834C66.1281 250.489 66.2858 250.002 66.2858 249.371V246.544H67.2098V252H66.3738L66.3078 251.021C66.1391 251.366 65.8861 251.637 65.5488 251.835C65.2188 252.033 64.8448 252.132 64.4268 252.132ZM68.7307 252V246.544H69.5667L69.6437 247.589C69.8123 247.23 70.069 246.944 70.4137 246.731C70.7583 246.518 71.1837 246.412 71.6897 246.412V247.38H71.4367C71.114 247.38 70.817 247.439 70.5457 247.556C70.2743 247.666 70.058 247.857 69.8967 248.128C69.7353 248.399 69.6547 248.773 69.6547 249.25V252H68.7307ZM72.7268 252V246.544H73.5628L73.6178 247.523C73.7938 247.178 74.0468 246.907 74.3768 246.709C74.7068 246.511 75.0808 246.412 75.4988 246.412C76.1441 246.412 76.6574 246.61 77.0388 247.006C77.4274 247.395 77.6218 247.996 77.6218 248.81V252H76.6978V248.909C76.6978 247.772 76.2284 247.204 75.2898 247.204C74.8204 247.204 74.4281 247.376 74.1128 247.721C73.8048 248.058 73.6508 248.542 73.6508 249.173V252H72.7268ZM80.8367 252.132C80.382 252.132 80.0044 252.055 79.7037 251.901C79.403 251.747 79.1794 251.542 79.0327 251.285C78.886 251.028 78.8127 250.75 78.8127 250.449C78.8127 249.892 79.0254 249.463 79.4507 249.162C79.876 248.861 80.4554 248.711 81.1887 248.711H82.6627V248.645C82.6627 248.168 82.538 247.809 82.2887 247.567C82.0394 247.318 81.7057 247.193 81.2877 247.193C80.9284 247.193 80.6167 247.285 80.3527 247.468C80.096 247.644 79.9347 247.904 79.8687 248.249H78.9227C78.9594 247.853 79.0914 247.519 79.3187 247.248C79.5534 246.977 79.843 246.771 80.1877 246.632C80.5324 246.485 80.899 246.412 81.2877 246.412C82.0504 246.412 82.6224 246.617 83.0037 247.028C83.3924 247.431 83.5867 247.97 83.5867 248.645V252H82.7617L82.7067 251.021C82.5527 251.329 82.3254 251.593 82.0247 251.813C81.7314 252.026 81.3354 252.132 80.8367 252.132ZM80.9797 251.351C81.3317 251.351 81.6324 251.259 81.8817 251.076C82.1384 250.893 82.3327 250.654 82.4647 250.361C82.5967 250.068 82.6627 249.76 82.6627 249.437V249.426H81.2657C80.723 249.426 80.338 249.521 80.1107 249.712C79.8907 249.895 79.7807 250.126 79.7807 250.405C79.7807 250.691 79.8834 250.922 80.0887 251.098C80.3014 251.267 80.5984 251.351 80.9797 251.351ZM84.9729 252V246.544H85.8089L85.8749 247.336C86.0509 247.043 86.2855 246.815 86.5789 246.654C86.8722 246.493 87.2022 246.412 87.5689 246.412C88.0015 246.412 88.3719 246.5 88.6799 246.676C88.9952 246.852 89.2372 247.12 89.4059 247.479C89.5965 247.149 89.8569 246.889 90.1869 246.698C90.5242 246.507 90.8872 246.412 91.2759 246.412C91.9285 246.412 92.4492 246.61 92.8379 247.006C93.2265 247.395 93.4209 247.996 93.4209 248.81V252H92.5079V248.909C92.5079 248.344 92.3942 247.919 92.1669 247.633C91.9395 247.347 91.6132 247.204 91.1879 247.204C90.7479 247.204 90.3812 247.376 90.0879 247.721C89.8019 248.058 89.6589 248.542 89.6589 249.173V252H88.7349V248.909C88.7349 248.344 88.6212 247.919 88.3939 247.633C88.1665 247.347 87.8402 247.204 87.4149 247.204C86.9822 247.204 86.6192 247.376 86.3259 247.721C86.0399 248.058 85.8969 248.542 85.8969 249.173V252H84.9729ZM97.2657 252.132C96.745 252.132 96.283 252.015 95.8797 251.78C95.4764 251.538 95.1574 251.204 94.9227 250.779C94.6954 250.354 94.5817 249.851 94.5817 249.272C94.5817 248.7 94.6954 248.201 94.9227 247.776C95.15 247.343 95.4654 247.01 95.8687 246.775C96.2794 246.533 96.7524 246.412 97.2877 246.412C97.8157 246.412 98.2704 246.533 98.6517 246.775C99.0404 247.01 99.3374 247.321 99.5427 247.71C99.748 248.099 99.8507 248.517 99.8507 248.964C99.8507 249.045 99.847 249.125 99.8397 249.206C99.8397 249.287 99.8397 249.378 99.8397 249.481H95.4947C95.5167 249.899 95.612 250.247 95.7807 250.526C95.9567 250.797 96.173 251.003 96.4297 251.142C96.6937 251.281 96.9724 251.351 97.2657 251.351C97.647 251.351 97.966 251.263 98.2227 251.087C98.4794 250.911 98.6664 250.673 98.7837 250.372H99.6967C99.55 250.878 99.2677 251.3 98.8497 251.637C98.439 251.967 97.911 252.132 97.2657 252.132ZM97.2657 247.193C96.8257 247.193 96.4334 247.329 96.0887 247.6C95.7514 247.864 95.557 248.253 95.5057 248.766H98.9377C98.9157 248.275 98.747 247.89 98.4317 247.611C98.1164 247.332 97.7277 247.193 97.2657 247.193ZM101.075 252V246.544H101.911L101.966 247.523C102.142 247.178 102.395 246.907 102.725 246.709C103.055 246.511 103.429 246.412 103.847 246.412C104.493 246.412 105.006 246.61 105.387 247.006C105.776 247.395 105.97 247.996 105.97 248.81V252H105.046V248.909C105.046 247.772 104.577 247.204 103.638 247.204C103.169 247.204 102.777 247.376 102.461 247.721C102.153 248.058 101.999 248.542 101.999 249.173V252H101.075ZM109.526 252C109.028 252 108.635 251.879 108.349 251.637C108.063 251.395 107.92 250.959 107.92 250.328V247.325H106.974V246.544H107.92L108.041 245.235H108.844V246.544H110.45V247.325H108.844V250.328C108.844 250.673 108.914 250.907 109.053 251.032C109.193 251.149 109.438 251.208 109.79 251.208H110.362V252H109.526Z" fill="black"/>
<path d="M81.5675 198.166C73.3592 200.904 68.5154 199.372 65.505 198.166C55.4634 194.154 54.4592 229.291 70.5217 232.302C86.5842 235.314 98.6321 219.252 99.6363 210.218C100.638 201.181 97.628 198.17 94.6155 196.162C91.605 194.154 87.5884 196.162 81.5655 198.17L81.5675 198.166Z" fill="#9BF6FF"/>
<path fill-rule="evenodd" clip-rule="evenodd" d="M58.4484 204.108C57.3693 204.806 57.1255 205.356 57.1255 205.667C57.1255 205.979 57.3693 206.527 58.4484 207.225C59.4818 207.892 61.0443 208.529 63.0693 209.079C67.1047 210.183 72.7359 210.875 79.0005 210.875C85.263 210.875 90.8963 210.181 94.9318 209.081C96.9568 208.529 98.5193 207.89 99.5526 207.225C100.632 206.527 100.876 205.977 100.876 205.667C100.876 205.354 100.632 204.806 99.5526 204.108C98.5193 203.442 96.9568 202.804 94.9318 202.254C90.8963 201.148 85.2651 200.458 79.0005 200.458C72.738 200.458 67.1047 201.152 63.0693 202.252C61.0443 202.804 59.4818 203.444 58.4484 204.108ZM62.5213 200.242C66.7818 199.083 72.6068 198.375 79.0005 198.375C85.3943 198.375 91.2193 199.081 95.4797 200.242C97.6005 200.821 99.3943 201.529 100.682 202.358C101.921 203.158 102.959 204.252 102.959 205.667C102.959 207.081 101.921 208.175 100.682 208.975C99.3943 209.804 97.6005 210.513 95.4797 211.092C91.2193 212.252 85.3943 212.958 79.0005 212.958C72.6068 212.958 66.7818 212.252 62.5213 211.092C60.4005 210.513 58.6068 209.804 57.3193 208.975C56.0797 208.175 55.0422 207.081 55.0422 205.667C55.0422 204.252 56.0797 203.158 57.3193 202.358C58.6068 201.529 60.4005 200.821 62.5213 200.242Z" fill="black"/>
<path fill-rule="evenodd" clip-rule="evenodd" d="M79.0006 206.708C70.8652 206.708 63.8402 207.877 59.9798 209.558C59.8544 209.613 59.7194 209.642 59.5826 209.645C59.4458 209.647 59.3099 209.623 59.1826 209.572C58.9256 209.471 58.7192 209.272 58.609 209.019C58.4987 208.765 58.4937 208.479 58.5948 208.222C58.696 207.965 58.8952 207.758 59.1485 207.648C63.3902 205.802 70.7465 204.625 79.0027 204.625C87.2548 204.625 94.611 205.802 98.8527 207.648C98.9782 207.703 99.0916 207.782 99.1865 207.88C99.2815 207.979 99.3561 208.095 99.4061 208.222C99.4561 208.35 99.4805 208.486 99.478 208.623C99.4754 208.759 99.446 208.894 99.3913 209.02C99.3365 209.145 99.2576 209.259 99.1591 209.354C99.0605 209.449 98.9442 209.523 98.8169 209.573C98.6895 209.623 98.5535 209.648 98.4166 209.645C98.2798 209.643 98.1448 209.613 98.0194 209.558C94.1631 207.877 87.1381 206.708 79.0006 206.708ZM60.786 226.721C60.8267 226.59 60.8926 226.469 60.9801 226.364C61.0677 226.259 61.175 226.172 61.2962 226.108C61.4173 226.044 61.5497 226.005 61.686 225.993C61.8222 225.98 61.9596 225.995 62.0902 226.035C65.6944 227.154 70.8527 227.923 76.7152 228.083C76.852 228.087 76.9867 228.118 77.1117 228.173C77.2367 228.229 77.3494 228.309 77.4435 228.408C77.5377 228.508 77.6113 228.625 77.6602 228.752C77.7092 228.88 77.7324 229.016 77.7288 229.153C77.7251 229.29 77.6945 229.425 77.6387 229.55C77.5829 229.675 77.5031 229.787 77.4038 229.881C77.3044 229.976 77.1875 230.049 77.0597 230.098C76.9319 230.147 76.7958 230.17 76.659 230.167C70.6735 230.002 65.3131 229.217 61.4715 228.025C61.3408 227.984 61.2195 227.918 61.1143 227.831C61.0091 227.743 60.9223 227.636 60.8586 227.515C60.795 227.394 60.7558 227.261 60.7433 227.125C60.7309 226.989 60.7454 226.851 60.786 226.721ZM97.2152 226.721C97.2558 226.852 97.2702 226.989 97.2577 227.125C97.2451 227.262 97.2057 227.394 97.1419 227.515C97.078 227.637 96.9909 227.744 96.8855 227.831C96.7801 227.919 96.6586 227.985 96.5277 228.025C92.6881 229.217 87.3277 230.004 81.3423 230.167C81.2055 230.17 81.0693 230.147 80.9415 230.098C80.8137 230.049 80.6968 229.976 80.5975 229.881C80.4982 229.787 80.4183 229.675 80.3626 229.55C80.3068 229.425 80.2762 229.29 80.2725 229.153C80.2688 229.016 80.2921 228.88 80.341 228.752C80.39 228.625 80.4636 228.508 80.5577 228.408C80.6518 228.309 80.7646 228.229 80.8896 228.173C81.0145 228.118 81.1493 228.087 81.286 228.083C87.1506 227.923 92.3069 227.154 95.911 226.035C96.0418 225.995 96.1793 225.98 96.3157 225.993C96.452 226.006 96.5845 226.045 96.7057 226.109C96.8268 226.173 96.9342 226.26 97.0216 226.365C97.109 226.47 97.1748 226.59 97.2152 226.721Z" fill="black"/>
<path fill-rule="evenodd" clip-rule="evenodd" d="M55.8312 204.656C56.0992 204.589 56.3827 204.632 56.6195 204.774C56.8562 204.916 57.0268 205.146 57.0937 205.414L63.3437 230.414C63.3644 230.497 63.3749 230.581 63.375 230.666C63.375 231.125 63.6187 231.687 64.3333 232.32C65.0479 232.954 66.1417 233.57 67.5812 234.112C70.4521 235.187 74.4896 235.875 79 235.875C83.5104 235.875 87.5479 235.187 90.4187 234.11C91.8583 233.57 92.9521 232.954 93.6667 232.318C94.3812 231.685 94.625 231.125 94.625 230.666C94.625 230.583 94.6354 230.495 94.6562 230.414L100.906 205.414C100.978 205.152 101.15 204.928 101.385 204.791C101.62 204.653 101.899 204.613 102.163 204.679C102.427 204.745 102.655 204.911 102.798 205.143C102.94 205.375 102.987 205.653 102.927 205.918L96.7083 230.806C96.6604 232.014 95.9854 233.05 95.05 233.879C94.0771 234.741 92.7292 235.47 91.1542 236.062C87.9937 237.245 83.6958 237.958 79.0021 237.958C74.3083 237.958 70.0125 237.245 66.8521 236.062C65.275 235.47 63.9271 234.741 62.9562 233.879C62.0187 233.05 61.3458 232.014 61.2958 230.806L55.0729 205.918C55.0061 205.65 55.0485 205.367 55.1907 205.13C55.3329 204.893 55.5633 204.723 55.8312 204.656Z" fill="black"/>
<path fill-rule="evenodd" clip-rule="evenodd" d="M74.8333 232.878C74.6743 232.245 74.6619 231.584 74.797 230.945C74.9321 230.305 75.2111 229.706 75.6128 229.191C76.0145 228.676 76.5284 228.259 77.1153 227.973C77.7023 227.686 78.3468 227.537 78.9999 227.537C79.6531 227.537 80.2976 227.686 80.8846 227.973C81.4715 228.259 81.9854 228.676 82.3871 229.191C82.7888 229.706 83.0678 230.305 83.2029 230.945C83.338 231.584 83.3256 232.245 83.1666 232.878L82.0937 237.17C82.0371 237.395 81.9069 237.595 81.7238 237.738C81.5408 237.88 81.3153 237.958 81.0833 237.958H76.9166C76.6842 237.958 76.4586 237.88 76.2755 237.737C76.0924 237.594 75.9624 237.393 75.9062 237.168L74.8333 232.878ZM78.9999 229.624C77.5624 229.624 76.5062 230.976 76.8541 232.372L77.7291 235.874H80.2708L81.1458 232.372C81.2271 232.046 81.2331 231.706 81.1633 231.377C81.0934 231.048 80.9497 230.74 80.7428 230.475C80.536 230.21 80.2716 229.996 79.9696 229.849C79.6676 229.701 79.336 229.624 78.9999 229.624Z" fill="black"/>
<path fill-rule="evenodd" clip-rule="evenodd" d="M79.0003 210.874C79.2766 210.874 79.5415 210.984 79.7369 211.179C79.9322 211.375 80.042 211.64 80.042 211.916V228.583C80.042 228.859 79.9322 229.124 79.7369 229.319C79.5415 229.515 79.2766 229.624 79.0003 229.624C78.7241 229.624 78.4591 229.515 78.2638 229.319C78.0684 229.124 77.9587 228.859 77.9587 228.583V211.916C77.9587 211.64 78.0684 211.375 78.2638 211.179C78.4591 210.984 78.7241 210.874 79.0003 210.874ZM66.5003 210.874C66.7766 210.874 67.0415 210.984 67.2369 211.179C67.4322 211.375 67.542 211.64 67.542 211.916V227.541C67.542 227.817 67.4322 228.082 67.2369 228.278C67.0415 228.473 66.7766 228.583 66.5003 228.583C66.2241 228.583 65.9591 228.473 65.7638 228.278C65.5684 228.082 65.4587 227.817 65.4587 227.541V211.916C65.4587 211.64 65.5684 211.375 65.7638 211.179C65.9591 210.984 66.2241 210.874 66.5003 210.874ZM91.5003 210.874C91.7766 210.874 92.0415 210.984 92.2369 211.179C92.4322 211.375 92.542 211.64 92.542 211.916V227.541C92.542 227.817 92.4322 228.082 92.2369 228.278C92.0415 228.473 91.7766 228.583 91.5003 228.583C91.2241 228.583 90.9591 228.473 90.7638 228.278C90.5684 228.082 90.4587 227.817 90.4587 227.541V211.916C90.4587 211.64 90.5684 211.375 90.7638 211.179C90.9591 210.984 91.2241 210.874 91.5003 210.874ZM75.8753 191.083C75.8753 190.806 75.9851 190.541 76.1804 190.346C76.3758 190.151 76.6407 190.041 76.917 190.041H83.167C83.4433 190.041 83.7082 190.151 83.9036 190.346C84.0989 190.541 84.2087 190.806 84.2087 191.083V195.249C84.2087 195.526 84.0989 195.791 83.9036 195.986C83.7082 196.181 83.4433 196.291 83.167 196.291H77.9587V199.416C77.9587 199.692 77.8489 199.957 77.6536 200.153C77.4582 200.348 77.1933 200.458 76.917 200.458C76.6407 200.458 76.3758 200.348 76.1804 200.153C75.9851 199.957 75.8753 199.692 75.8753 199.416V191.083ZM77.9587 194.208H82.1253V192.124H77.9587V194.208ZM61.292 191.083C61.292 190.806 61.4017 190.541 61.5971 190.346C61.7924 190.151 62.0574 190.041 62.3337 190.041H68.5837C68.8599 190.041 69.1249 190.151 69.3202 190.346C69.5156 190.541 69.6253 190.806 69.6253 191.083V195.249C69.6253 195.526 69.5156 195.791 69.3202 195.986C69.1249 196.181 68.8599 196.291 68.5837 196.291H63.3753V200.458C63.3753 200.734 63.2656 200.999 63.0702 201.194C62.8749 201.39 62.6099 201.499 62.3337 201.499C62.0574 201.499 61.7924 201.39 61.5971 201.194C61.4017 200.999 61.292 200.734 61.292 200.458V191.083ZM63.3753 194.208H67.542V192.124H63.3753V194.208ZM90.4587 191.083C90.4587 190.806 90.5684 190.541 90.7638 190.346C90.9591 190.151 91.2241 190.041 91.5003 190.041H97.7503C98.0266 190.041 98.2915 190.151 98.4869 190.346C98.6822 190.541 98.792 190.806 98.792 191.083V195.249C98.792 195.526 98.6822 195.791 98.4869 195.986C98.2915 196.181 98.0266 196.291 97.7503 196.291H92.542V199.416C92.542 199.692 92.4322 199.957 92.2369 200.153C92.0415 200.348 91.7766 200.458 91.5003 200.458C91.2241 200.458 90.9591 200.348 90.7638 200.153C90.5684 199.957 90.4587 199.692 90.4587 199.416V191.083ZM92.542 194.208H96.7087V192.124H92.542V194.208Z" fill="black"/>
<path d="M161.814 330V322.3H162.892L165.664 327.668L168.414 322.3H169.503V330H168.579V323.95L166.005 328.9H165.312L162.738 323.961V330H161.814ZM172.887 330.132C172.433 330.132 172.055 330.055 171.754 329.901C171.454 329.747 171.23 329.542 171.083 329.285C170.937 329.028 170.863 328.75 170.863 328.449C170.863 327.892 171.076 327.463 171.501 327.162C171.927 326.861 172.506 326.711 173.239 326.711H174.713V326.645C174.713 326.168 174.589 325.809 174.339 325.567C174.09 325.318 173.756 325.193 173.338 325.193C172.979 325.193 172.667 325.285 172.403 325.468C172.147 325.644 171.985 325.904 171.919 326.249H170.973C171.01 325.853 171.142 325.519 171.369 325.248C171.604 324.977 171.894 324.771 172.238 324.632C172.583 324.485 172.95 324.412 173.338 324.412C174.101 324.412 174.673 324.617 175.054 325.028C175.443 325.431 175.637 325.97 175.637 326.645V330H174.812L174.757 329.021C174.603 329.329 174.376 329.593 174.075 329.813C173.782 330.026 173.386 330.132 172.887 330.132ZM173.03 329.351C173.382 329.351 173.683 329.259 173.932 329.076C174.189 328.893 174.383 328.654 174.515 328.361C174.647 328.068 174.713 327.76 174.713 327.437V327.426H173.316C172.774 327.426 172.389 327.521 172.161 327.712C171.941 327.895 171.831 328.126 171.831 328.405C171.831 328.691 171.934 328.922 172.139 329.098C172.352 329.267 172.649 329.351 173.03 329.351ZM179.029 330C178.531 330 178.138 329.879 177.852 329.637C177.566 329.395 177.423 328.959 177.423 328.328V325.325H176.477V324.544H177.423L177.544 323.235H178.347V324.544H179.953V325.325H178.347V328.328C178.347 328.673 178.417 328.907 178.556 329.032C178.696 329.149 178.941 329.208 179.293 329.208H179.865V330H179.029ZM183.485 330.132C182.964 330.132 182.495 330.015 182.077 329.78C181.666 329.538 181.34 329.204 181.098 328.779C180.863 328.346 180.746 327.844 180.746 327.272C180.746 326.7 180.863 326.201 181.098 325.776C181.34 325.343 181.666 325.01 182.077 324.775C182.495 324.533 182.964 324.412 183.485 324.412C184.13 324.412 184.673 324.581 185.113 324.918C185.56 325.255 185.842 325.706 185.96 326.271H185.014C184.94 325.934 184.761 325.673 184.475 325.49C184.189 325.299 183.855 325.204 183.474 325.204C183.166 325.204 182.876 325.281 182.605 325.435C182.333 325.589 182.113 325.82 181.945 326.128C181.776 326.436 181.692 326.817 181.692 327.272C181.692 327.727 181.776 328.108 181.945 328.416C182.113 328.724 182.333 328.959 182.605 329.12C182.876 329.274 183.166 329.351 183.474 329.351C183.855 329.351 184.189 329.259 184.475 329.076C184.761 328.885 184.94 328.618 185.014 328.273H185.96C185.85 328.823 185.571 329.27 185.124 329.615C184.676 329.96 184.13 330.132 183.485 330.132ZM187.25 330V322.08H188.174V325.479C188.358 325.142 188.618 324.881 188.955 324.698C189.293 324.507 189.659 324.412 190.055 324.412C190.686 324.412 191.192 324.61 191.573 325.006C191.955 325.395 192.145 325.996 192.145 326.81V330H191.232V326.909C191.232 325.772 190.774 325.204 189.857 325.204C189.381 325.204 188.981 325.376 188.658 325.721C188.336 326.058 188.174 326.542 188.174 327.173V330H187.25Z" fill="black"/>
<path d="M161.167 289.433C163.905 297.642 162.373 302.485 161.167 305.496C157.153 315.537 192.29 316.539 195.301 300.477C198.313 284.414 182.251 272.367 173.217 271.362C164.18 270.36 161.169 273.371 159.161 276.383C157.153 279.396 159.159 283.41 161.167 289.433Z" fill="#CAFFBF"/>
<path fill-rule="evenodd" clip-rule="evenodd" d="M188.322 274.848C188.517 274.653 188.782 274.543 189.059 274.543C189.335 274.543 189.6 274.653 189.795 274.848L197.162 282.213C197.259 282.309 197.336 282.424 197.388 282.551C197.441 282.677 197.468 282.813 197.468 282.95C197.468 283.087 197.441 283.223 197.388 283.349C197.336 283.476 197.259 283.591 197.162 283.688L177.433 303.417C177.246 303.603 176.995 303.712 176.73 303.721L172.153 303.879C172.011 303.884 171.869 303.859 171.736 303.806C171.604 303.753 171.483 303.674 171.383 303.573L168.435 300.627C168.334 300.526 168.255 300.406 168.203 300.273C168.15 300.141 168.126 299.999 168.13 299.856L168.289 295.277C168.298 295.014 168.407 294.764 168.593 294.577L188.322 274.848ZM189.06 277.056L170.353 295.763L170.226 299.477L172.533 301.783L176.247 301.654L194.949 282.952L189.058 277.06L189.06 277.056Z" fill="black"/>
<path fill-rule="evenodd" clip-rule="evenodd" d="M172.119 291.057C172.315 290.862 172.58 290.752 172.856 290.752C173.132 290.752 173.397 290.862 173.592 291.057L180.957 298.424C181.152 298.619 181.262 298.884 181.262 299.16C181.262 299.436 181.152 299.701 180.957 299.897L177.276 303.58C177.179 303.677 177.064 303.753 176.937 303.805C176.81 303.858 176.675 303.884 176.538 303.884H172.119C171.982 303.884 171.847 303.858 171.72 303.805C171.594 303.753 171.479 303.677 171.382 303.58L168.438 300.632C168.243 300.437 168.132 300.173 168.132 299.897V295.478C168.132 295.341 168.159 295.205 168.211 295.079C168.264 294.952 168.341 294.837 168.438 294.74L172.121 291.057H172.119ZM172.855 293.265L170.213 295.909V299.465L172.551 301.801H176.107L178.748 299.159L172.855 293.267V293.265Z" fill="black"/>
<path fill-rule="evenodd" clip-rule="evenodd" d="M168.438 299.157C168.633 298.963 168.897 298.853 169.173 298.853C169.449 298.853 169.713 298.963 169.908 299.157L172.854 302.103C173.049 302.299 173.159 302.563 173.159 302.84C173.159 303.116 173.049 303.381 172.854 303.576L166.229 310.205L166.965 310.943C167.064 311.039 167.143 311.154 167.198 311.281C167.253 311.408 167.281 311.545 167.283 311.683C167.284 311.821 167.257 311.959 167.205 312.087C167.153 312.215 167.075 312.331 166.978 312.429C166.88 312.526 166.763 312.604 166.635 312.656C166.507 312.709 166.37 312.735 166.232 312.734C166.094 312.733 165.957 312.704 165.83 312.649C165.703 312.595 165.588 312.515 165.492 312.416L159.6 306.524C159.41 306.328 159.305 306.064 159.308 305.791C159.31 305.518 159.42 305.257 159.613 305.064C159.806 304.871 160.067 304.761 160.34 304.759C160.613 304.756 160.876 304.861 161.073 305.051L161.808 305.787L168.438 299.157ZM163.279 307.262L164.752 308.732L170.646 302.841L169.173 301.368L163.279 307.259V307.262ZM172.119 274.851C171.83 274.553 171.486 274.315 171.104 274.151C170.723 273.987 170.313 273.901 169.898 273.897C169.483 273.894 169.072 273.973 168.688 274.13C168.304 274.287 167.955 274.519 167.661 274.812C167.368 275.106 167.136 275.455 166.979 275.839C166.822 276.223 166.742 276.634 166.746 277.049C166.75 277.464 166.836 277.874 167 278.256C167.163 278.637 167.402 278.982 167.7 279.27C168.291 279.829 169.077 280.135 169.891 280.124C170.705 280.112 171.482 279.784 172.057 279.208C172.632 278.633 172.96 277.855 172.972 277.042C172.983 276.228 172.678 275.442 172.119 274.851ZM166.225 273.376C166.708 272.889 167.282 272.502 167.915 272.237C168.548 271.973 169.226 271.836 169.912 271.834C170.598 271.832 171.278 271.966 171.912 272.228C172.546 272.49 173.122 272.874 173.607 273.359C174.092 273.844 174.476 274.42 174.738 275.054C175 275.688 175.134 276.367 175.133 277.053C175.131 277.739 174.995 278.418 174.73 279.051C174.466 279.683 174.079 280.258 173.592 280.741C172.614 281.711 171.291 282.253 169.914 282.251C168.536 282.248 167.216 281.7 166.242 280.726C165.268 279.752 164.719 278.432 164.716 277.054C164.713 275.677 165.255 274.354 166.225 273.376Z" fill="black"/>
<path d="M275.618 252V245.059H273.319V244.3H278.841V245.059H276.542V252H275.618ZM281.379 252.132C280.858 252.132 280.396 252.015 279.993 251.78C279.59 251.538 279.271 251.204 279.036 250.779C278.809 250.354 278.695 249.851 278.695 249.272C278.695 248.7 278.809 248.201 279.036 247.776C279.263 247.343 279.579 247.01 279.982 246.775C280.393 246.533 280.866 246.412 281.401 246.412C281.929 246.412 282.384 246.533 282.765 246.775C283.154 247.01 283.451 247.321 283.656 247.71C283.861 248.099 283.964 248.517 283.964 248.964C283.964 249.045 283.96 249.125 283.953 249.206C283.953 249.287 283.953 249.378 283.953 249.481H279.608C279.63 249.899 279.725 250.247 279.894 250.526C280.07 250.797 280.286 251.003 280.543 251.142C280.807 251.281 281.086 251.351 281.379 251.351C281.76 251.351 282.079 251.263 282.336 251.087C282.593 250.911 282.78 250.673 282.897 250.372H283.81C283.663 250.878 283.381 251.3 282.963 251.637C282.552 251.967 282.024 252.132 281.379 252.132ZM281.379 247.193C280.939 247.193 280.547 247.329 280.202 247.6C279.865 247.864 279.67 248.253 279.619 248.766H283.051C283.029 248.275 282.86 247.89 282.545 247.611C282.23 247.332 281.841 247.193 281.379 247.193ZM287.004 252.132C286.549 252.132 286.171 252.055 285.871 251.901C285.57 251.747 285.346 251.542 285.2 251.285C285.053 251.028 284.98 250.75 284.98 250.449C284.98 249.892 285.192 249.463 285.618 249.162C286.043 248.861 286.622 248.711 287.356 248.711H288.83V248.645C288.83 248.168 288.705 247.809 288.456 247.567C288.206 247.318 287.873 247.193 287.455 247.193C287.095 247.193 286.784 247.285 286.52 247.468C286.263 247.644 286.102 247.904 286.036 248.249H285.09C285.126 247.853 285.258 247.519 285.486 247.248C285.72 246.977 286.01 246.771 286.355 246.632C286.699 246.485 287.066 246.412 287.455 246.412C288.217 246.412 288.789 246.617 289.171 247.028C289.559 247.431 289.754 247.97 289.754 248.645V252H288.929L288.874 251.021C288.72 251.329 288.492 251.593 288.192 251.813C287.898 252.026 287.502 252.132 287.004 252.132ZM287.147 251.351C287.499 251.351 287.799 251.259 288.049 251.076C288.305 250.893 288.5 250.654 288.632 250.361C288.764 250.068 288.83 249.76 288.83 249.437V249.426H287.433C286.89 249.426 286.505 249.521 286.278 249.712C286.058 249.895 285.948 250.126 285.948 250.405C285.948 250.691 286.05 250.922 286.256 251.098C286.468 251.267 286.765 251.351 287.147 251.351ZM291.14 252V246.544H291.976L292.042 247.336C292.218 247.043 292.453 246.815 292.746 246.654C293.039 246.493 293.369 246.412 293.736 246.412C294.169 246.412 294.539 246.5 294.847 246.676C295.162 246.852 295.404 247.12 295.573 247.479C295.764 247.149 296.024 246.889 296.354 246.698C296.691 246.507 297.054 246.412 297.443 246.412C298.096 246.412 298.616 246.61 299.005 247.006C299.394 247.395 299.588 247.996 299.588 248.81V252H298.675V248.909C298.675 248.344 298.561 247.919 298.334 247.633C298.107 247.347 297.78 247.204 297.355 247.204C296.915 247.204 296.548 247.376 296.255 247.721C295.969 248.058 295.826 248.542 295.826 249.173V252H294.902V248.909C294.902 248.344 294.788 247.919 294.561 247.633C294.334 247.347 294.007 247.204 293.582 247.204C293.149 247.204 292.786 247.376 292.493 247.721C292.207 248.058 292.064 248.542 292.064 249.173V252H291.14Z" fill="black"/>
<path d="M267.48 218.437C264.921 224.41 267.48 230.168 271.746 232.302C284.053 238.454 295.205 232.302 302.384 225.468C309.03 219.145 309.848 200.943 301.317 195.612C292.788 190.279 277.859 193.91 277.859 204.141C277.859 213.108 270.68 210.972 267.48 218.437Z" fill="#BDB2FF"/>
<path fill-rule="evenodd" clip-rule="evenodd" d="M263.042 227.542C263.042 227.265 263.152 227 263.347 226.805C263.543 226.61 263.808 226.5 264.084 226.5H309.917C310.193 226.5 310.458 226.61 310.654 226.805C310.849 227 310.959 227.265 310.959 227.542C310.959 227.818 310.849 228.083 310.654 228.278C310.458 228.474 310.193 228.583 309.917 228.583H264.084C263.808 228.583 263.543 228.474 263.347 228.278C263.152 228.083 263.042 227.818 263.042 227.542Z" fill="black"/>
<path fill-rule="evenodd" clip-rule="evenodd" d="M263.042 202.541C263.042 201.712 263.371 200.917 263.957 200.331C264.543 199.745 265.338 199.416 266.167 199.416H272.417C273.246 199.416 274.041 199.745 274.627 200.331C275.213 200.917 275.542 201.712 275.542 202.541V212.958C275.542 213.234 275.432 213.499 275.237 213.694C275.042 213.89 274.777 213.999 274.5 213.999H264.084C263.807 213.999 263.542 213.89 263.347 213.694C263.152 213.499 263.042 213.234 263.042 212.958V202.541ZM266.167 201.499C265.891 201.499 265.626 201.609 265.43 201.804C265.235 202 265.125 202.265 265.125 202.541V211.916H273.459V202.541C273.459 202.265 273.349 202 273.154 201.804C272.958 201.609 272.693 201.499 272.417 201.499H266.167ZM298.459 202.541C298.459 201.712 298.788 200.917 299.374 200.331C299.96 199.745 300.755 199.416 301.584 199.416H307.834C308.662 199.416 309.457 199.745 310.043 200.331C310.629 200.917 310.959 201.712 310.959 202.541V212.958C310.959 213.234 310.849 213.499 310.654 213.694C310.458 213.89 310.193 213.999 309.917 213.999H299.5C299.224 213.999 298.959 213.89 298.764 213.694C298.568 213.499 298.459 213.234 298.459 212.958V202.541ZM301.584 201.499C301.307 201.499 301.042 201.609 300.847 201.804C300.652 202 300.542 202.265 300.542 202.541V211.916H308.875V202.541C308.875 202.265 308.766 202 308.57 201.804C308.375 201.609 308.11 201.499 307.834 201.499H301.584ZM280.75 202.541C280.75 201.712 281.08 200.917 281.666 200.331C282.252 199.745 283.047 199.416 283.875 199.416H290.125C290.954 199.416 291.749 199.745 292.335 200.331C292.921 200.917 293.25 201.712 293.25 202.541V212.958C293.25 213.234 293.141 213.499 292.945 213.694C292.75 213.89 292.485 213.999 292.209 213.999H281.792C281.516 213.999 281.251 213.89 281.055 213.694C280.86 213.499 280.75 213.234 280.75 212.958V202.541ZM283.875 201.499C283.599 201.499 283.334 201.609 283.139 201.804C282.943 202 282.834 202.265 282.834 202.541V211.916H291.167V202.541C291.167 202.265 291.057 202 290.862 201.804C290.667 201.609 290.402 201.499 290.125 201.499H283.875ZM263.042 219.208C263.042 218.931 263.152 218.666 263.347 218.471C263.542 218.276 263.807 218.166 264.084 218.166H274.5C274.777 218.166 275.042 218.276 275.237 218.471C275.432 218.666 275.542 218.931 275.542 219.208C275.542 219.484 275.432 219.749 275.237 219.944C275.042 220.14 274.777 220.249 274.5 220.249H270.334V227.541C270.334 227.817 270.224 228.082 270.029 228.278C269.833 228.473 269.568 228.583 269.292 228.583C269.016 228.583 268.751 228.473 268.555 228.278C268.36 228.082 268.25 227.817 268.25 227.541V220.249H264.084C263.807 220.249 263.542 220.14 263.347 219.944C263.152 219.749 263.042 219.484 263.042 219.208ZM298.459 219.208C298.459 218.931 298.568 218.666 298.764 218.471C298.959 218.276 299.224 218.166 299.5 218.166H309.917C310.193 218.166 310.458 218.276 310.654 218.471C310.849 218.666 310.959 218.931 310.959 219.208C310.959 219.484 310.849 219.749 310.654 219.944C310.458 220.14 310.193 220.249 309.917 220.249H305.75V227.541C305.75 227.817 305.641 228.082 305.445 228.278C305.25 228.473 304.985 228.583 304.709 228.583C304.432 228.583 304.167 228.473 303.972 228.278C303.777 228.082 303.667 227.817 303.667 227.541V220.249H299.5C299.224 220.249 298.959 220.14 298.764 219.944C298.568 219.749 298.459 219.484 298.459 219.208ZM280.75 219.208C280.75 218.931 280.86 218.666 281.055 218.471C281.251 218.276 281.516 218.166 281.792 218.166H292.209C292.485 218.166 292.75 218.276 292.945 218.471C293.141 218.666 293.25 218.931 293.25 219.208C293.25 219.484 293.141 219.749 292.945 219.944C292.75 220.14 292.485 220.249 292.209 220.249H288.042V227.541C288.042 227.817 287.932 228.082 287.737 228.278C287.542 228.473 287.277 228.583 287 228.583C286.724 228.583 286.459 228.473 286.264 228.278C286.068 228.082 285.959 227.817 285.959 227.541V220.249H281.792C281.516 220.249 281.251 220.14 281.055 219.944C280.86 219.749 280.75 219.484 280.75 219.208Z" fill="black"/>
<defs>
<filter id="filter0_f_1667_6668" x="-26" y="0" width="425" height="423" filterUnits="userSpaceOnUse" color-interpolation-filters="sRGB">
<feFlood flood-opacity="0" result="BackgroundImageFix"/>
<feBlend mode="normal" in="SourceGraphic" in2="BackgroundImageFix" result="shape"/>
<feGaussianBlur stdDeviation="35" result="effect1_foregroundBlur_1667_6668"/>
</filter>
</defs>
</svg>
