<svg width="425" height="423" viewBox="0 0 425 423" fill="none" xmlns="http://www.w3.org/2000/svg">
<g filter="url(#filter0_f_1667_8879)">
<path d="M340 211.5C340 281.265 283.016 338 212.5 338C141.984 338 85 281.265 85 211.5C85 141.735 141.984 85 212.5 85C283.016 85 340 141.735 340 211.5Z" stroke="#2E8DFF" stroke-opacity="0.49" stroke-width="30"/>
</g>
<path d="M87.814 252V244.3H90.344C90.9453 244.3 91.4403 244.399 91.829 244.597C92.2177 244.795 92.5037 245.063 92.687 245.4C92.8777 245.737 92.973 246.119 92.973 246.544C92.973 246.962 92.8813 247.34 92.698 247.677C92.5147 248.014 92.2287 248.286 91.84 248.491C91.4513 248.689 90.9527 248.788 90.344 248.788H88.738V252H87.814ZM88.738 248.007H90.322C90.938 248.007 91.3743 247.879 91.631 247.622C91.895 247.358 92.027 246.999 92.027 246.544C92.027 246.082 91.895 245.723 91.631 245.466C91.3743 245.202 90.938 245.07 90.322 245.07H88.738V248.007ZM94.1291 252V244.08H95.0531V252H94.1291ZM98.3826 252.132C97.9279 252.132 97.5503 252.055 97.2496 251.901C96.9489 251.747 96.7253 251.542 96.5786 251.285C96.4319 251.028 96.3586 250.75 96.3586 250.449C96.3586 249.892 96.5713 249.463 96.9966 249.162C97.4219 248.861 98.0013 248.711 98.7346 248.711H100.209V248.645C100.209 248.168 100.084 247.809 99.8346 247.567C99.5853 247.318 99.2516 247.193 98.8336 247.193C98.4743 247.193 98.1626 247.285 97.8986 247.468C97.6419 247.644 97.4806 247.904 97.4146 248.249H96.4686C96.5053 247.853 96.6373 247.519 96.8646 247.248C97.0993 246.977 97.3889 246.771 97.7336 246.632C98.0783 246.485 98.4449 246.412 98.8336 246.412C99.5963 246.412 100.168 246.617 100.55 247.028C100.938 247.431 101.133 247.97 101.133 248.645V252H100.308L100.253 251.021C100.099 251.329 99.8713 251.593 99.5706 251.813C99.2773 252.026 98.8813 252.132 98.3826 252.132ZM98.5256 251.351C98.8776 251.351 99.1783 251.259 99.4276 251.076C99.6843 250.893 99.8786 250.654 100.011 250.361C100.143 250.068 100.209 249.76 100.209 249.437V249.426H98.8116C98.2689 249.426 97.8839 249.521 97.6566 249.712C97.4366 249.895 97.3266 250.126 97.3266 250.405C97.3266 250.691 97.4293 250.922 97.6346 251.098C97.8473 251.267 98.1443 251.351 98.5256 251.351ZM102.952 254.42L104.305 251.472H103.986L101.819 246.544H102.82L104.624 250.79L106.538 246.544H107.495L103.92 254.42H102.952ZM110.407 252.132C109.887 252.132 109.425 252.015 109.021 251.78C108.618 251.538 108.299 251.204 108.064 250.779C107.837 250.354 107.723 249.851 107.723 249.272C107.723 248.7 107.837 248.201 108.064 247.776C108.292 247.343 108.607 247.01 109.01 246.775C109.421 246.533 109.894 246.412 110.429 246.412C110.957 246.412 111.412 246.533 111.793 246.775C112.182 247.01 112.479 247.321 112.684 247.71C112.89 248.099 112.992 248.517 112.992 248.964C112.992 249.045 112.989 249.125 112.981 249.206C112.981 249.287 112.981 249.378 112.981 249.481H108.636C108.658 249.899 108.754 250.247 108.922 250.526C109.098 250.797 109.315 251.003 109.571 251.142C109.835 251.281 110.114 251.351 110.407 251.351C110.789 251.351 111.108 251.263 111.364 251.087C111.621 250.911 111.808 250.673 111.925 250.372H112.838C112.692 250.878 112.409 251.3 111.991 251.637C111.581 251.967 111.053 252.132 110.407 252.132ZM110.407 247.193C109.967 247.193 109.575 247.329 109.23 247.6C108.893 247.864 108.699 248.253 108.647 248.766H112.079C112.057 248.275 111.889 247.89 111.573 247.611C111.258 247.332 110.869 247.193 110.407 247.193ZM114.217 252V246.544H115.053L115.13 247.589C115.299 247.23 115.555 246.944 115.9 246.731C116.245 246.518 116.67 246.412 117.176 246.412V247.38H116.923C116.6 247.38 116.303 247.439 116.032 247.556C115.761 247.666 115.544 247.857 115.383 248.128C115.222 248.399 115.141 248.773 115.141 249.25V252H114.217Z" fill="black"/>
<path d="M123.407 201.349C126.716 209.07 127.82 217.895 121.199 228.926C114.376 242.751 106.859 227.822 101.345 228.926C95.8303 230.03 89.2115 232.236 84.799 224.513C77.0595 210.97 87.0053 206.863 92.5199 198.041C98.0365 189.216 120.097 193.626 123.407 201.349Z" fill="#FFADAD"/>
<path fill-rule="evenodd" clip-rule="evenodd" d="M81.3126 232.952C82.1518 230.804 83.6191 228.96 85.5228 227.66C87.4265 226.36 89.6781 225.664 91.9835 225.664H111.85C114.156 225.664 116.408 226.359 118.312 227.66C120.216 228.96 121.684 230.804 122.523 232.952L122.611 233.174C122.796 233.648 122.862 234.16 122.805 234.665C122.747 235.17 122.567 235.654 122.281 236.074C121.994 236.494 121.609 236.838 121.159 237.075C120.71 237.313 120.209 237.437 119.7 237.437H84.1355C83.627 237.437 83.1261 237.313 82.6764 237.075C82.2267 236.838 81.8417 236.494 81.555 236.074C81.2682 235.654 81.0882 235.17 81.0308 234.665C80.9733 234.16 81.04 233.648 81.2251 233.174L81.3126 232.952ZM91.9835 227.747C90.0975 227.748 88.2556 228.317 86.6983 229.381C85.141 230.445 83.9408 231.953 83.2543 233.71L83.1647 233.933C83.103 234.091 83.0807 234.261 83.0999 234.43C83.1191 234.598 83.1792 234.76 83.2748 234.9C83.3705 235.04 83.4989 235.154 83.6489 235.233C83.7989 235.312 83.966 235.354 84.1355 235.354H119.698C119.868 235.354 120.035 235.312 120.185 235.233C120.335 235.154 120.463 235.04 120.559 234.9C120.654 234.76 120.714 234.598 120.734 234.43C120.753 234.261 120.731 234.091 120.669 233.933L120.581 233.71C119.895 231.953 118.695 230.445 117.137 229.381C115.58 228.317 113.738 227.748 111.852 227.747H91.9835Z" fill="black"/>
<path fill-rule="evenodd" clip-rule="evenodd" d="M95.1616 226.345C95.2354 226.145 95.3689 225.972 95.544 225.851C95.7191 225.729 95.9274 225.664 96.1407 225.664H107.693C107.906 225.664 108.113 225.73 108.288 225.852C108.462 225.974 108.595 226.146 108.668 226.346C108.742 226.545 108.752 226.763 108.699 226.969C108.645 227.175 108.53 227.359 108.368 227.497L103.943 231.268C103.378 231.75 102.659 232.014 101.917 232.014C101.174 232.014 100.456 231.75 99.8907 231.268L95.4637 227.497C95.3016 227.359 95.1857 227.175 95.1317 226.969C95.0777 226.763 95.0881 226.545 95.1616 226.345ZM98.9699 227.747L101.241 229.681C101.429 229.841 101.668 229.929 101.916 229.929C102.163 229.929 102.402 229.841 102.591 229.681L104.862 227.747H98.9699Z" fill="black"/>
<path fill-rule="evenodd" clip-rule="evenodd" d="M101.917 230.146C102.193 230.146 102.458 230.256 102.653 230.451C102.849 230.646 102.958 230.911 102.958 231.188V236.396C102.958 236.672 102.849 236.937 102.653 237.132C102.458 237.328 102.193 237.438 101.917 237.438C101.64 237.438 101.375 237.328 101.18 237.132C100.985 236.937 100.875 236.672 100.875 236.396V231.188C100.875 230.911 100.985 230.646 101.18 230.451C101.375 230.256 101.64 230.146 101.917 230.146ZM89.5 206.146C89.5 199.302 94.5062 193.688 101.917 193.688C109.325 193.688 114.329 199.302 114.329 206.146C114.329 207 114.252 207.913 114.104 208.852C114.804 209.494 115.271 210.39 115.271 211.415C115.271 213.192 113.925 214.525 112.292 214.95C111.312 217.173 109.987 219.296 108.358 220.915C106.6 222.66 104.423 223.875 101.915 223.875C99.4062 223.875 97.2271 222.66 95.4708 220.915C93.8417 219.296 92.5187 217.173 91.5375 214.948C89.9083 214.523 88.5646 213.19 88.5646 211.417C88.5646 210.392 89.0292 209.5 89.725 208.854C89.5803 207.959 89.5051 207.053 89.5 206.146ZM101.917 195.771C95.7271 195.771 91.5833 200.381 91.5833 206.146C91.5833 207.042 91.6833 208.044 91.8833 209.104C91.9213 209.309 91.8969 209.521 91.8133 209.712C91.7298 209.902 91.5909 210.064 91.4146 210.175C90.9042 210.498 90.6479 210.965 90.6479 211.417C90.6479 212.096 91.275 212.867 92.3937 212.994C92.5786 213.014 92.7546 213.084 92.9033 213.196C93.0521 213.308 93.1682 213.457 93.2396 213.629C94.1667 215.867 95.4312 217.94 96.9396 219.435C98.4437 220.929 100.123 221.792 101.915 221.792C103.706 221.792 105.385 220.929 106.89 219.437C108.398 217.937 109.665 215.867 110.59 213.631C110.661 213.459 110.777 213.309 110.926 213.196C111.075 213.084 111.252 213.014 111.437 212.994C112.558 212.869 113.187 212.096 113.187 211.417C113.187 210.962 112.929 210.498 112.417 210.175C112.24 210.064 112.1 209.901 112.017 209.71C111.933 209.518 111.909 209.306 111.948 209.1C112.146 208.044 112.246 207.042 112.246 206.146C112.246 200.381 108.104 195.771 101.915 195.771H101.917Z" fill="black"/>
<path fill-rule="evenodd" clip-rule="evenodd" d="M101.812 201.444C101.882 201.437 101.953 201.437 102.023 201.444L111.448 202.408C111.775 202.417 112.087 202.494 112.371 202.625C112.552 202.484 112.775 202.407 113.004 202.406C113.234 202.405 113.457 202.48 113.64 202.619C113.822 202.758 113.954 202.953 114.014 203.175C114.074 203.396 114.06 203.631 113.973 203.844L113.733 204.431C114.458 207.413 112.4 210.452 109.281 210.698L108.156 210.788C108.1 210.792 108.045 210.792 107.989 210.788L101.916 210.308L95.8434 210.788C95.7887 210.792 95.7336 210.792 95.6789 210.788L94.5539 210.698C91.4289 210.452 89.3726 207.406 90.1039 204.421L89.8747 203.827C89.793 203.616 89.7825 203.384 89.8447 203.166C89.9069 202.948 90.0384 202.756 90.2193 202.62C90.4002 202.483 90.6206 202.41 90.8471 202.41C91.0737 202.41 91.294 202.484 91.4747 202.621C91.7539 202.492 92.0622 202.417 92.3851 202.408L101.812 201.444ZM101.916 203.527L92.5518 204.485C92.5172 204.489 92.4824 204.491 92.4476 204.492C92.3892 204.493 92.3329 204.514 92.2868 204.55C92.2407 204.586 92.2073 204.635 92.1914 204.692C91.5809 206.567 92.8622 208.475 94.7164 208.621L95.7622 208.704L101.835 208.225C101.89 208.221 101.945 208.221 102 208.225L108.073 208.704L109.118 208.621C110.973 208.475 112.252 206.565 111.641 204.692C111.626 204.636 111.592 204.586 111.547 204.55C111.501 204.514 111.445 204.494 111.387 204.492C111.352 204.491 111.318 204.489 111.283 204.485L101.916 203.527ZM118.583 193.688C118.583 192.859 118.912 192.064 119.498 191.478C120.084 190.892 120.879 190.562 121.708 190.562H124.833C125.662 190.562 126.457 190.892 127.043 191.478C127.629 192.064 127.958 192.859 127.958 193.688V210.875C127.958 212.118 127.464 213.31 126.585 214.19C125.706 215.069 124.514 215.562 123.271 215.562C122.027 215.562 120.835 215.069 119.956 214.19C119.077 213.31 118.583 212.118 118.583 210.875V193.688ZM121.708 192.646C121.432 192.646 121.167 192.756 120.971 192.951C120.776 193.146 120.666 193.411 120.666 193.688V210.875C120.666 211.566 120.941 212.228 121.429 212.716C121.917 213.205 122.58 213.479 123.271 213.479C123.961 213.479 124.624 213.205 125.112 212.716C125.6 212.228 125.875 211.566 125.875 210.875V193.688C125.875 193.411 125.765 193.146 125.57 192.951C125.374 192.756 125.109 192.646 124.833 192.646H121.708Z" fill="black"/>
<path fill-rule="evenodd" clip-rule="evenodd" d="M120.666 214.521C120.666 214.245 120.776 213.98 120.971 213.784C121.167 213.589 121.432 213.479 121.708 213.479H124.833C125.109 213.479 125.374 213.589 125.57 213.784C125.765 213.98 125.875 214.245 125.875 214.521V223.375C125.875 224.066 125.6 224.728 125.112 225.216C124.624 225.705 123.961 225.979 123.27 225.979C122.58 225.979 121.917 225.705 121.429 225.216C120.941 224.728 120.666 224.066 120.666 223.375V214.521ZM122.75 215.563V223.375C122.75 223.513 122.805 223.646 122.902 223.743C123 223.841 123.132 223.896 123.27 223.896C123.409 223.896 123.541 223.841 123.639 223.743C123.736 223.646 123.791 223.513 123.791 223.375V215.563H122.75ZM97.435 214.317C98.8104 213.568 100.351 213.176 101.917 213.176C103.483 213.176 105.024 213.568 106.4 214.317L110.166 216.367C110.409 216.499 110.59 216.722 110.668 216.987C110.746 217.252 110.716 217.537 110.584 217.78C110.452 218.023 110.229 218.204 109.964 218.282C109.699 218.36 109.413 218.33 109.17 218.198L105.404 216.148C104.334 215.566 103.135 215.26 101.917 215.26C100.699 215.26 99.5007 215.566 98.4309 216.148L94.96 218.035C94.8397 218.105 94.7066 218.15 94.5687 218.167C94.4308 218.184 94.2908 218.174 94.157 218.136C94.0232 218.098 93.8983 218.034 93.7896 217.948C93.6809 217.861 93.5907 217.754 93.5243 217.631C93.4578 217.509 93.4164 217.375 93.4026 217.237C93.3888 217.099 93.4028 216.959 93.4438 216.826C93.4848 216.693 93.552 216.57 93.6413 216.464C93.7307 216.357 93.8405 216.27 93.9642 216.206L97.435 214.317Z" fill="black"/>
<path d="M173.618 330V323.059H171.319V322.3H176.841V323.059H174.542V330H173.618ZM179.412 330.132C178.899 330.132 178.437 330.015 178.026 329.78C177.615 329.545 177.289 329.215 177.047 328.79C176.812 328.357 176.695 327.851 176.695 327.272C176.695 326.693 176.816 326.19 177.058 325.765C177.3 325.332 177.626 324.999 178.037 324.764C178.455 324.529 178.921 324.412 179.434 324.412C179.947 324.412 180.409 324.529 180.82 324.764C181.231 324.999 181.553 325.332 181.788 325.765C182.03 326.19 182.151 326.693 182.151 327.272C182.151 327.851 182.03 328.357 181.788 328.79C181.546 329.215 181.216 329.545 180.798 329.78C180.387 330.015 179.925 330.132 179.412 330.132ZM179.412 329.34C179.727 329.34 180.021 329.263 180.292 329.109C180.563 328.955 180.783 328.724 180.952 328.416C181.121 328.108 181.205 327.727 181.205 327.272C181.205 326.817 181.121 326.436 180.952 326.128C180.791 325.82 180.574 325.589 180.303 325.435C180.032 325.281 179.742 325.204 179.434 325.204C179.119 325.204 178.825 325.281 178.554 325.435C178.283 325.589 178.063 325.82 177.894 326.128C177.725 326.436 177.641 326.817 177.641 327.272C177.641 327.727 177.725 328.108 177.894 328.416C178.063 328.724 178.279 328.955 178.543 329.109C178.814 329.263 179.104 329.34 179.412 329.34ZM185.427 330.132C184.781 330.132 184.268 329.938 183.887 329.549C183.505 329.153 183.315 328.548 183.315 327.734V324.544H184.239V327.635C184.239 328.772 184.704 329.34 185.636 329.34C186.112 329.34 186.505 329.171 186.813 328.834C187.128 328.489 187.286 328.002 187.286 327.371V324.544H188.21V330H187.374L187.308 329.021C187.139 329.366 186.886 329.637 186.549 329.835C186.219 330.033 185.845 330.132 185.427 330.132ZM189.731 330V324.544H190.567L190.644 325.589C190.812 325.23 191.069 324.944 191.414 324.731C191.758 324.518 192.184 324.412 192.69 324.412V325.38H192.437C192.114 325.38 191.817 325.439 191.546 325.556C191.274 325.666 191.058 325.857 190.897 326.128C190.735 326.399 190.655 326.773 190.655 327.25V330H189.731ZM193.727 330V324.544H194.563L194.618 325.523C194.794 325.178 195.047 324.907 195.377 324.709C195.707 324.511 196.081 324.412 196.499 324.412C197.144 324.412 197.657 324.61 198.039 325.006C198.427 325.395 198.622 325.996 198.622 326.81V330H197.698V326.909C197.698 325.772 197.228 325.204 196.29 325.204C195.82 325.204 195.428 325.376 195.113 325.721C194.805 326.058 194.651 326.542 194.651 327.173V330H193.727ZM201.837 330.132C201.382 330.132 201.004 330.055 200.704 329.901C200.403 329.747 200.179 329.542 200.033 329.285C199.886 329.028 199.813 328.75 199.813 328.449C199.813 327.892 200.025 327.463 200.451 327.162C200.876 326.861 201.455 326.711 202.189 326.711H203.663V326.645C203.663 326.168 203.538 325.809 203.289 325.567C203.039 325.318 202.706 325.193 202.288 325.193C201.928 325.193 201.617 325.285 201.353 325.468C201.096 325.644 200.935 325.904 200.869 326.249H199.923C199.959 325.853 200.091 325.519 200.319 325.248C200.553 324.977 200.843 324.771 201.188 324.632C201.532 324.485 201.899 324.412 202.288 324.412C203.05 324.412 203.622 324.617 204.004 325.028C204.392 325.431 204.587 325.97 204.587 326.645V330H203.762L203.707 329.021C203.553 329.329 203.325 329.593 203.025 329.813C202.731 330.026 202.335 330.132 201.837 330.132ZM201.98 329.351C202.332 329.351 202.632 329.259 202.882 329.076C203.138 328.893 203.333 328.654 203.465 328.361C203.597 328.068 203.663 327.76 203.663 327.437V327.426H202.266C201.723 327.426 201.338 327.521 201.111 327.712C200.891 327.895 200.781 328.126 200.781 328.405C200.781 328.691 200.883 328.922 201.089 329.098C201.301 329.267 201.598 329.351 201.98 329.351ZM205.973 330V324.544H206.809L206.875 325.336C207.051 325.043 207.286 324.815 207.579 324.654C207.872 324.493 208.202 324.412 208.569 324.412C209.002 324.412 209.372 324.5 209.68 324.676C209.995 324.852 210.237 325.12 210.406 325.479C210.597 325.149 210.857 324.889 211.187 324.698C211.524 324.507 211.887 324.412 212.276 324.412C212.929 324.412 213.449 324.61 213.838 325.006C214.227 325.395 214.421 325.996 214.421 326.81V330H213.508V326.909C213.508 326.344 213.394 325.919 213.167 325.633C212.94 325.347 212.613 325.204 212.188 325.204C211.748 325.204 211.381 325.376 211.088 325.721C210.802 326.058 210.659 326.542 210.659 327.173V330H209.735V326.909C209.735 326.344 209.621 325.919 209.394 325.633C209.167 325.347 208.84 325.204 208.415 325.204C207.982 325.204 207.619 325.376 207.326 325.721C207.04 326.058 206.897 326.542 206.897 327.173V330H205.973ZM218.266 330.132C217.745 330.132 217.283 330.015 216.88 329.78C216.476 329.538 216.157 329.204 215.923 328.779C215.695 328.354 215.582 327.851 215.582 327.272C215.582 326.7 215.695 326.201 215.923 325.776C216.15 325.343 216.465 325.01 216.869 324.775C217.279 324.533 217.752 324.412 218.288 324.412C218.816 324.412 219.27 324.533 219.652 324.775C220.04 325.01 220.337 325.321 220.543 325.71C220.748 326.099 220.851 326.517 220.851 326.964C220.851 327.045 220.847 327.125 220.84 327.206C220.84 327.287 220.84 327.378 220.84 327.481H216.495C216.517 327.899 216.612 328.247 216.781 328.526C216.957 328.797 217.173 329.003 217.43 329.142C217.694 329.281 217.972 329.351 218.266 329.351C218.647 329.351 218.966 329.263 219.223 329.087C219.479 328.911 219.666 328.673 219.784 328.372H220.697C220.55 328.878 220.268 329.3 219.85 329.637C219.439 329.967 218.911 330.132 218.266 330.132ZM218.266 325.193C217.826 325.193 217.433 325.329 217.089 325.6C216.751 325.864 216.557 326.253 216.506 326.766H219.938C219.916 326.275 219.747 325.89 219.432 325.611C219.116 325.332 218.728 325.193 218.266 325.193ZM222.075 330V324.544H222.911L222.966 325.523C223.142 325.178 223.395 324.907 223.725 324.709C224.055 324.511 224.429 324.412 224.847 324.412C225.493 324.412 226.006 324.61 226.387 325.006C226.776 325.395 226.97 325.996 226.97 326.81V330H226.046V326.909C226.046 325.772 225.577 325.204 224.638 325.204C224.169 325.204 223.777 325.376 223.461 325.721C223.153 326.058 222.999 326.542 222.999 327.173V330H222.075ZM230.526 330C230.028 330 229.635 329.879 229.349 329.637C229.063 329.395 228.92 328.959 228.92 328.328V325.325H227.974V324.544H228.92L229.041 323.235H229.844V324.544H231.45V325.325H229.844V328.328C229.844 328.673 229.914 328.907 230.053 329.032C230.193 329.149 230.438 329.208 230.79 329.208H231.362V330H230.526Z" fill="black"/>
<path d="M202.568 276.166C194.359 278.904 189.515 277.372 186.505 276.166C176.463 272.154 175.459 307.291 191.522 310.302C207.584 313.314 219.632 297.252 220.636 288.218C221.638 279.181 218.628 276.17 215.615 274.162C212.605 272.154 208.588 274.162 202.565 276.17L202.568 276.166Z" fill="#9BF6FF"/>
<path fill-rule="evenodd" clip-rule="evenodd" d="M179.448 282.108C178.369 282.806 178.126 283.356 178.126 283.667C178.126 283.979 178.369 284.527 179.448 285.225C180.482 285.892 182.044 286.529 184.069 287.079C188.105 288.183 193.736 288.875 200.001 288.875C206.263 288.875 211.896 288.181 215.932 287.081C217.957 286.529 219.519 285.89 220.553 285.225C221.632 284.527 221.876 283.977 221.876 283.667C221.876 283.354 221.632 282.806 220.553 282.108C219.519 281.442 217.957 280.804 215.932 280.254C211.896 279.148 206.265 278.458 200.001 278.458C193.738 278.458 188.105 279.152 184.069 280.252C182.044 280.804 180.482 281.444 179.448 282.108ZM183.521 278.242C187.782 277.083 193.607 276.375 200.001 276.375C206.394 276.375 212.219 277.081 216.48 278.242C218.601 278.821 220.394 279.529 221.682 280.358C222.921 281.158 223.959 282.252 223.959 283.667C223.959 285.081 222.921 286.175 221.682 286.975C220.394 287.804 218.601 288.513 216.48 289.092C212.219 290.252 206.394 290.958 200.001 290.958C193.607 290.958 187.782 290.252 183.521 289.092C181.401 288.513 179.607 287.804 178.319 286.975C177.08 286.175 176.042 285.081 176.042 283.667C176.042 282.252 177.08 281.158 178.319 280.358C179.607 279.529 181.401 278.821 183.521 278.242Z" fill="black"/>
<path fill-rule="evenodd" clip-rule="evenodd" d="M200.001 284.708C191.865 284.708 184.84 285.877 180.98 287.558C180.854 287.613 180.719 287.642 180.583 287.645C180.446 287.647 180.31 287.623 180.183 287.572C179.926 287.471 179.719 287.272 179.609 287.019C179.499 286.765 179.494 286.479 179.595 286.222C179.696 285.965 179.895 285.758 180.149 285.648C184.39 283.802 191.746 282.625 200.003 282.625C208.255 282.625 215.611 283.802 219.853 285.648C219.978 285.703 220.092 285.782 220.187 285.88C220.281 285.979 220.356 286.095 220.406 286.222C220.456 286.35 220.481 286.486 220.478 286.623C220.475 286.759 220.446 286.894 220.391 287.02C220.337 287.145 220.258 287.259 220.159 287.354C220.061 287.449 219.944 287.523 219.817 287.573C219.689 287.623 219.553 287.648 219.417 287.645C219.28 287.643 219.145 287.613 219.019 287.558C215.163 285.877 208.138 284.708 200.001 284.708ZM181.786 304.721C181.827 304.59 181.893 304.469 181.98 304.364C182.068 304.259 182.175 304.172 182.296 304.108C182.417 304.044 182.55 304.005 182.686 303.993C182.822 303.98 182.96 303.995 183.09 304.035C186.694 305.154 191.853 305.923 197.715 306.083C197.852 306.087 197.987 306.118 198.112 306.173C198.237 306.229 198.349 306.309 198.444 306.408C198.538 306.508 198.611 306.625 198.66 306.752C198.709 306.88 198.732 307.016 198.729 307.153C198.725 307.29 198.694 307.425 198.639 307.55C198.583 307.675 198.503 307.787 198.404 307.881C198.304 307.976 198.188 308.049 198.06 308.098C197.932 308.147 197.796 308.17 197.659 308.167C191.674 308.002 186.313 307.217 182.471 306.025C182.341 305.984 182.219 305.918 182.114 305.831C182.009 305.743 181.922 305.636 181.859 305.515C181.795 305.394 181.756 305.261 181.743 305.125C181.731 304.989 181.745 304.851 181.786 304.721ZM218.215 304.721C218.256 304.852 218.27 304.989 218.258 305.125C218.245 305.262 218.206 305.394 218.142 305.515C218.078 305.637 217.991 305.744 217.886 305.831C217.78 305.919 217.659 305.985 217.528 306.025C213.688 307.217 208.328 308.004 202.342 308.167C202.206 308.17 202.069 308.147 201.942 308.098C201.814 308.049 201.697 307.976 201.597 307.881C201.498 307.787 201.418 307.675 201.363 307.55C201.307 307.425 201.276 307.29 201.273 307.153C201.269 307.016 201.292 306.88 201.341 306.752C201.39 306.625 201.464 306.508 201.558 306.408C201.652 306.309 201.765 306.229 201.89 306.173C202.015 306.118 202.149 306.087 202.286 306.083C208.151 305.923 213.307 305.154 216.911 304.035C217.042 303.995 217.179 303.98 217.316 303.993C217.452 304.006 217.585 304.045 217.706 304.109C217.827 304.173 217.934 304.26 218.022 304.365C218.109 304.47 218.175 304.59 218.215 304.721Z" fill="black"/>
<path fill-rule="evenodd" clip-rule="evenodd" d="M176.831 282.656C177.099 282.589 177.383 282.632 177.619 282.774C177.856 282.916 178.027 283.146 178.094 283.414L184.344 308.414C184.364 308.497 184.375 308.581 184.375 308.666C184.375 309.125 184.619 309.687 185.333 310.32C186.048 310.954 187.142 311.57 188.581 312.112C191.452 313.187 195.49 313.875 200 313.875C204.51 313.875 208.548 313.187 211.419 312.11C212.858 311.57 213.952 310.954 214.667 310.318C215.381 309.685 215.625 309.125 215.625 308.666C215.625 308.583 215.635 308.495 215.656 308.414L221.906 283.414C221.978 283.152 222.15 282.928 222.385 282.791C222.62 282.653 222.899 282.613 223.163 282.679C223.427 282.745 223.655 282.911 223.798 283.143C223.94 283.375 223.987 283.653 223.927 283.918L217.708 308.806C217.66 310.014 216.985 311.05 216.05 311.879C215.077 312.741 213.729 313.47 212.154 314.062C208.994 315.245 204.696 315.958 200.002 315.958C195.308 315.958 191.012 315.245 187.852 314.062C186.275 313.47 184.927 312.741 183.956 311.879C183.019 311.05 182.346 310.014 182.296 308.806L176.073 283.918C176.006 283.65 176.048 283.367 176.191 283.13C176.333 282.893 176.563 282.723 176.831 282.656Z" fill="black"/>
<path fill-rule="evenodd" clip-rule="evenodd" d="M195.833 310.878C195.674 310.245 195.662 309.584 195.797 308.945C195.932 308.305 196.211 307.706 196.613 307.191C197.015 306.676 197.528 306.259 198.115 305.973C198.702 305.686 199.347 305.537 200 305.537C200.653 305.537 201.298 305.686 201.885 305.973C202.471 306.259 202.985 306.676 203.387 307.191C203.789 307.706 204.068 308.305 204.203 308.945C204.338 309.584 204.326 310.245 204.167 310.878L203.094 315.17C203.037 315.395 202.907 315.595 202.724 315.738C202.541 315.88 202.315 315.958 202.083 315.958H197.917C197.684 315.958 197.459 315.88 197.275 315.737C197.092 315.594 196.962 315.393 196.906 315.168L195.833 310.878ZM200 307.624C198.562 307.624 197.506 308.976 197.854 310.372L198.729 313.874H201.271L202.146 310.372C202.227 310.046 202.233 309.706 202.163 309.377C202.093 309.048 201.95 308.74 201.743 308.475C201.536 308.21 201.272 307.996 200.97 307.849C200.668 307.701 200.336 307.624 200 307.624Z" fill="black"/>
<path fill-rule="evenodd" clip-rule="evenodd" d="M200 288.874C200.277 288.874 200.542 288.984 200.737 289.179C200.932 289.375 201.042 289.64 201.042 289.916V306.583C201.042 306.859 200.932 307.124 200.737 307.319C200.542 307.515 200.277 307.624 200 307.624C199.724 307.624 199.459 307.515 199.264 307.319C199.068 307.124 198.959 306.859 198.959 306.583V289.916C198.959 289.64 199.068 289.375 199.264 289.179C199.459 288.984 199.724 288.874 200 288.874ZM187.5 288.874C187.777 288.874 188.042 288.984 188.237 289.179C188.432 289.375 188.542 289.64 188.542 289.916V305.541C188.542 305.817 188.432 306.082 188.237 306.278C188.042 306.473 187.777 306.583 187.5 306.583C187.224 306.583 186.959 306.473 186.764 306.278C186.568 306.082 186.459 305.817 186.459 305.541V289.916C186.459 289.64 186.568 289.375 186.764 289.179C186.959 288.984 187.224 288.874 187.5 288.874ZM212.5 288.874C212.777 288.874 213.042 288.984 213.237 289.179C213.432 289.375 213.542 289.64 213.542 289.916V305.541C213.542 305.817 213.432 306.082 213.237 306.278C213.042 306.473 212.777 306.583 212.5 306.583C212.224 306.583 211.959 306.473 211.764 306.278C211.568 306.082 211.459 305.817 211.459 305.541V289.916C211.459 289.64 211.568 289.375 211.764 289.179C211.959 288.984 212.224 288.874 212.5 288.874ZM196.875 269.083C196.875 268.806 196.985 268.541 197.18 268.346C197.376 268.151 197.641 268.041 197.917 268.041H204.167C204.443 268.041 204.708 268.151 204.904 268.346C205.099 268.541 205.209 268.806 205.209 269.083V273.249C205.209 273.526 205.099 273.791 204.904 273.986C204.708 274.181 204.443 274.291 204.167 274.291H198.959V277.416C198.959 277.692 198.849 277.957 198.654 278.153C198.458 278.348 198.193 278.458 197.917 278.458C197.641 278.458 197.376 278.348 197.18 278.153C196.985 277.957 196.875 277.692 196.875 277.416V269.083ZM198.959 272.208H203.125V270.124H198.959V272.208ZM182.292 269.083C182.292 268.806 182.402 268.541 182.597 268.346C182.792 268.151 183.057 268.041 183.334 268.041H189.584C189.86 268.041 190.125 268.151 190.32 268.346C190.516 268.541 190.625 268.806 190.625 269.083V273.249C190.625 273.526 190.516 273.791 190.32 273.986C190.125 274.181 189.86 274.291 189.584 274.291H184.375V278.458C184.375 278.734 184.266 278.999 184.07 279.194C183.875 279.39 183.61 279.499 183.334 279.499C183.057 279.499 182.792 279.39 182.597 279.194C182.402 278.999 182.292 278.734 182.292 278.458V269.083ZM184.375 272.208H188.542V270.124H184.375V272.208ZM211.459 269.083C211.459 268.806 211.568 268.541 211.764 268.346C211.959 268.151 212.224 268.041 212.5 268.041H218.75C219.027 268.041 219.292 268.151 219.487 268.346C219.682 268.541 219.792 268.806 219.792 269.083V273.249C219.792 273.526 219.682 273.791 219.487 273.986C219.292 274.181 219.027 274.291 218.75 274.291H213.542V277.416C213.542 277.692 213.432 277.957 213.237 278.153C213.042 278.348 212.777 278.458 212.5 278.458C212.224 278.458 211.959 278.348 211.764 278.153C211.568 277.957 211.459 277.692 211.459 277.416V269.083ZM213.542 272.208H217.709V270.124H213.542V272.208Z" fill="black"/>
<path d="M298.814 252V244.3H299.892L302.664 249.668L305.414 244.3H306.503V252H305.579V245.95L303.005 250.9H302.312L299.738 245.961V252H298.814ZM309.887 252.132C309.433 252.132 309.055 252.055 308.754 251.901C308.454 251.747 308.23 251.542 308.083 251.285C307.937 251.028 307.863 250.75 307.863 250.449C307.863 249.892 308.076 249.463 308.501 249.162C308.927 248.861 309.506 248.711 310.239 248.711H311.713V248.645C311.713 248.168 311.589 247.809 311.339 247.567C311.09 247.318 310.756 247.193 310.338 247.193C309.979 247.193 309.667 247.285 309.403 247.468C309.147 247.644 308.985 247.904 308.919 248.249H307.973C308.01 247.853 308.142 247.519 308.369 247.248C308.604 246.977 308.894 246.771 309.238 246.632C309.583 246.485 309.95 246.412 310.338 246.412C311.101 246.412 311.673 246.617 312.054 247.028C312.443 247.431 312.637 247.97 312.637 248.645V252H311.812L311.757 251.021C311.603 251.329 311.376 251.593 311.075 251.813C310.782 252.026 310.386 252.132 309.887 252.132ZM310.03 251.351C310.382 251.351 310.683 251.259 310.932 251.076C311.189 250.893 311.383 250.654 311.515 250.361C311.647 250.068 311.713 249.76 311.713 249.437V249.426H310.316C309.774 249.426 309.389 249.521 309.161 249.712C308.941 249.895 308.831 250.126 308.831 250.405C308.831 250.691 308.934 250.922 309.139 251.098C309.352 251.267 309.649 251.351 310.03 251.351ZM316.029 252C315.531 252 315.138 251.879 314.852 251.637C314.566 251.395 314.423 250.959 314.423 250.328V247.325H313.477V246.544H314.423L314.544 245.235H315.347V246.544H316.953V247.325H315.347V250.328C315.347 250.673 315.417 250.907 315.556 251.032C315.696 251.149 315.941 251.208 316.293 251.208H316.865V252H316.029ZM320.485 252.132C319.964 252.132 319.495 252.015 319.077 251.78C318.666 251.538 318.34 251.204 318.098 250.779C317.863 250.346 317.746 249.844 317.746 249.272C317.746 248.7 317.863 248.201 318.098 247.776C318.34 247.343 318.666 247.01 319.077 246.775C319.495 246.533 319.964 246.412 320.485 246.412C321.13 246.412 321.673 246.581 322.113 246.918C322.56 247.255 322.842 247.706 322.96 248.271H322.014C321.94 247.934 321.761 247.673 321.475 247.49C321.189 247.299 320.855 247.204 320.474 247.204C320.166 247.204 319.876 247.281 319.605 247.435C319.333 247.589 319.113 247.82 318.945 248.128C318.776 248.436 318.692 248.817 318.692 249.272C318.692 249.727 318.776 250.108 318.945 250.416C319.113 250.724 319.333 250.959 319.605 251.12C319.876 251.274 320.166 251.351 320.474 251.351C320.855 251.351 321.189 251.259 321.475 251.076C321.761 250.885 321.94 250.618 322.014 250.273H322.96C322.85 250.823 322.571 251.27 322.124 251.615C321.676 251.96 321.13 252.132 320.485 252.132ZM324.25 252V244.08H325.174V247.479C325.358 247.142 325.618 246.881 325.955 246.698C326.293 246.507 326.659 246.412 327.055 246.412C327.686 246.412 328.192 246.61 328.573 247.006C328.955 247.395 329.145 247.996 329.145 248.81V252H328.232V248.909C328.232 247.772 327.774 247.204 326.857 247.204C326.381 247.204 325.981 247.376 325.658 247.721C325.336 248.058 325.174 248.542 325.174 249.173V252H324.25Z" fill="black"/>
<path d="M298.167 211.433C300.905 219.642 299.373 224.485 298.167 227.496C294.153 237.537 329.29 238.539 332.301 222.477C335.313 206.414 319.251 194.367 310.217 193.362C301.18 192.36 298.169 195.371 296.161 198.383C294.153 201.396 296.159 205.41 298.167 211.433Z" fill="#CAFFBF"/>
<path fill-rule="evenodd" clip-rule="evenodd" d="M325.322 196.848C325.517 196.653 325.782 196.543 326.059 196.543C326.335 196.543 326.6 196.653 326.795 196.848L334.162 204.213C334.259 204.309 334.336 204.424 334.388 204.551C334.441 204.677 334.468 204.813 334.468 204.95C334.468 205.087 334.441 205.223 334.388 205.349C334.336 205.476 334.259 205.591 334.162 205.688L314.433 225.417C314.246 225.603 313.995 225.712 313.73 225.721L309.153 225.879C309.011 225.884 308.869 225.859 308.736 225.806C308.604 225.753 308.483 225.674 308.383 225.573L305.435 222.627C305.334 222.526 305.255 222.406 305.203 222.273C305.15 222.141 305.126 221.999 305.13 221.856L305.289 217.277C305.298 217.014 305.407 216.764 305.593 216.577L325.322 196.848ZM326.06 199.056L307.353 217.763L307.226 221.477L309.533 223.783L313.247 223.654L331.949 204.952L326.058 199.06L326.06 199.056Z" fill="black"/>
<path fill-rule="evenodd" clip-rule="evenodd" d="M309.119 213.057C309.315 212.862 309.58 212.752 309.856 212.752C310.132 212.752 310.397 212.862 310.592 213.057L317.957 220.424C318.152 220.619 318.262 220.884 318.262 221.16C318.262 221.436 318.152 221.701 317.957 221.897L314.276 225.58C314.179 225.677 314.064 225.753 313.937 225.805C313.811 225.858 313.675 225.884 313.538 225.884H309.119C308.982 225.884 308.847 225.858 308.72 225.805C308.594 225.753 308.479 225.677 308.382 225.58L305.438 222.632C305.243 222.437 305.132 222.173 305.132 221.897V217.478C305.132 217.341 305.159 217.205 305.211 217.079C305.264 216.952 305.341 216.837 305.438 216.74L309.121 213.057H309.119ZM309.855 215.265L307.213 217.909V221.465L309.551 223.801H313.107L315.748 221.159L309.855 215.267V215.265Z" fill="black"/>
<path fill-rule="evenodd" clip-rule="evenodd" d="M305.438 221.157C305.633 220.963 305.897 220.853 306.173 220.853C306.449 220.853 306.713 220.963 306.908 221.157L309.854 224.103C310.049 224.299 310.159 224.563 310.159 224.84C310.159 225.116 310.049 225.381 309.854 225.576L303.229 232.205L303.965 232.943C304.064 233.039 304.143 233.154 304.198 233.281C304.253 233.408 304.281 233.545 304.283 233.683C304.284 233.821 304.257 233.959 304.205 234.087C304.153 234.215 304.075 234.331 303.978 234.429C303.88 234.526 303.763 234.604 303.635 234.656C303.507 234.709 303.37 234.735 303.232 234.734C303.094 234.733 302.957 234.704 302.83 234.649C302.703 234.595 302.588 234.515 302.492 234.416L296.6 228.524C296.41 228.328 296.305 228.064 296.308 227.791C296.31 227.518 296.42 227.257 296.613 227.064C296.806 226.871 297.067 226.761 297.34 226.759C297.613 226.756 297.876 226.861 298.073 227.051L298.808 227.787L305.438 221.157ZM300.279 229.262L301.752 230.732L307.646 224.841L306.173 223.368L300.279 229.259V229.262ZM309.119 196.851C308.831 196.553 308.486 196.315 308.104 196.151C307.723 195.987 307.313 195.901 306.898 195.897C306.483 195.894 306.072 195.973 305.688 196.13C305.304 196.287 304.955 196.519 304.661 196.812C304.368 197.106 304.136 197.455 303.979 197.839C303.822 198.223 303.743 198.634 303.746 199.049C303.75 199.464 303.836 199.874 304 200.256C304.163 200.637 304.402 200.982 304.7 201.27C305.291 201.829 306.077 202.135 306.891 202.124C307.705 202.112 308.482 201.784 309.057 201.208C309.632 200.633 309.96 199.855 309.972 199.042C309.983 198.228 309.678 197.442 309.119 196.851ZM303.225 195.376C303.708 194.889 304.282 194.502 304.915 194.237C305.548 193.973 306.226 193.836 306.912 193.834C307.598 193.832 308.278 193.966 308.912 194.228C309.546 194.49 310.122 194.874 310.607 195.359C311.092 195.844 311.476 196.42 311.738 197.054C312 197.688 312.134 198.367 312.133 199.053C312.131 199.739 311.995 200.418 311.73 201.051C311.466 201.683 311.079 202.258 310.592 202.741C309.614 203.711 308.291 204.253 306.914 204.251C305.536 204.248 304.216 203.7 303.242 202.726C302.268 201.752 301.719 200.432 301.716 199.054C301.713 197.677 302.255 196.354 303.225 195.376Z" fill="black"/>
<path d="M190.618 156V149.059H188.319V148.3H193.841V149.059H191.542V156H190.618ZM196.379 156.132C195.858 156.132 195.396 156.015 194.993 155.78C194.59 155.538 194.271 155.204 194.036 154.779C193.809 154.354 193.695 153.851 193.695 153.272C193.695 152.7 193.809 152.201 194.036 151.776C194.263 151.343 194.579 151.01 194.982 150.775C195.393 150.533 195.866 150.412 196.401 150.412C196.929 150.412 197.384 150.533 197.765 150.775C198.154 151.01 198.451 151.321 198.656 151.71C198.861 152.099 198.964 152.517 198.964 152.964C198.964 153.045 198.96 153.125 198.953 153.206C198.953 153.287 198.953 153.378 198.953 153.481H194.608C194.63 153.899 194.725 154.247 194.894 154.526C195.07 154.797 195.286 155.003 195.543 155.142C195.807 155.281 196.086 155.351 196.379 155.351C196.76 155.351 197.079 155.263 197.336 155.087C197.593 154.911 197.78 154.673 197.897 154.372H198.81C198.663 154.878 198.381 155.3 197.963 155.637C197.552 155.967 197.024 156.132 196.379 156.132ZM196.379 151.193C195.939 151.193 195.547 151.329 195.202 151.6C194.865 151.864 194.67 152.253 194.619 152.766H198.051C198.029 152.275 197.86 151.89 197.545 151.611C197.23 151.332 196.841 151.193 196.379 151.193ZM202.004 156.132C201.549 156.132 201.171 156.055 200.871 155.901C200.57 155.747 200.346 155.542 200.2 155.285C200.053 155.028 199.98 154.75 199.98 154.449C199.98 153.892 200.192 153.463 200.618 153.162C201.043 152.861 201.622 152.711 202.356 152.711H203.83V152.645C203.83 152.168 203.705 151.809 203.456 151.567C203.206 151.318 202.873 151.193 202.455 151.193C202.095 151.193 201.784 151.285 201.52 151.468C201.263 151.644 201.102 151.904 201.036 152.249H200.09C200.126 151.853 200.258 151.519 200.486 151.248C200.72 150.977 201.01 150.771 201.355 150.632C201.699 150.485 202.066 150.412 202.455 150.412C203.217 150.412 203.789 150.617 204.171 151.028C204.559 151.431 204.754 151.97 204.754 152.645V156H203.929L203.874 155.021C203.72 155.329 203.492 155.593 203.192 155.813C202.898 156.026 202.502 156.132 202.004 156.132ZM202.147 155.351C202.499 155.351 202.799 155.259 203.049 155.076C203.305 154.893 203.5 154.654 203.632 154.361C203.764 154.068 203.83 153.76 203.83 153.437V153.426H202.433C201.89 153.426 201.505 153.521 201.278 153.712C201.058 153.895 200.948 154.126 200.948 154.405C200.948 154.691 201.05 154.922 201.256 155.098C201.468 155.267 201.765 155.351 202.147 155.351ZM206.14 156V150.544H206.976L207.042 151.336C207.218 151.043 207.453 150.815 207.746 150.654C208.039 150.493 208.369 150.412 208.736 150.412C209.169 150.412 209.539 150.5 209.847 150.676C210.162 150.852 210.404 151.12 210.573 151.479C210.764 151.149 211.024 150.889 211.354 150.698C211.691 150.507 212.054 150.412 212.443 150.412C213.096 150.412 213.616 150.61 214.005 151.006C214.394 151.395 214.588 151.996 214.588 152.81V156H213.675V152.909C213.675 152.344 213.561 151.919 213.334 151.633C213.107 151.347 212.78 151.204 212.355 151.204C211.915 151.204 211.548 151.376 211.255 151.721C210.969 152.058 210.826 152.542 210.826 153.173V156H209.902V152.909C209.902 152.344 209.788 151.919 209.561 151.633C209.334 151.347 209.007 151.204 208.582 151.204C208.149 151.204 207.786 151.376 207.493 151.721C207.207 152.058 207.064 152.542 207.064 153.173V156H206.14Z" fill="black"/>
<path d="M182.48 122.437C179.921 128.41 182.48 134.168 186.746 136.302C199.053 142.454 210.205 136.302 217.384 129.468C224.03 123.145 224.848 104.943 216.317 99.612C207.788 94.2786 192.859 97.9099 192.859 108.141C192.859 117.108 185.68 114.972 182.48 122.437Z" fill="#BDB2FF"/>
<path fill-rule="evenodd" clip-rule="evenodd" d="M178.042 131.542C178.042 131.265 178.152 131 178.347 130.805C178.543 130.61 178.808 130.5 179.084 130.5H224.917C225.193 130.5 225.458 130.61 225.654 130.805C225.849 131 225.959 131.265 225.959 131.542C225.959 131.818 225.849 132.083 225.654 132.278C225.458 132.474 225.193 132.583 224.917 132.583H179.084C178.808 132.583 178.543 132.474 178.347 132.278C178.152 132.083 178.042 131.818 178.042 131.542Z" fill="black"/>
<path fill-rule="evenodd" clip-rule="evenodd" d="M178.042 106.541C178.042 105.712 178.371 104.917 178.957 104.331C179.543 103.745 180.338 103.416 181.167 103.416H187.417C188.246 103.416 189.041 103.745 189.627 104.331C190.213 104.917 190.542 105.712 190.542 106.541V116.958C190.542 117.234 190.432 117.499 190.237 117.694C190.042 117.89 189.777 117.999 189.5 117.999H179.084C178.807 117.999 178.542 117.89 178.347 117.694C178.152 117.499 178.042 117.234 178.042 116.958V106.541ZM181.167 105.499C180.891 105.499 180.626 105.609 180.43 105.804C180.235 106 180.125 106.265 180.125 106.541V115.916H188.459V106.541C188.459 106.265 188.349 106 188.154 105.804C187.958 105.609 187.693 105.499 187.417 105.499H181.167ZM213.459 106.541C213.459 105.712 213.788 104.917 214.374 104.331C214.96 103.745 215.755 103.416 216.584 103.416H222.834C223.662 103.416 224.457 103.745 225.043 104.331C225.629 104.917 225.959 105.712 225.959 106.541V116.958C225.959 117.234 225.849 117.499 225.654 117.694C225.458 117.89 225.193 117.999 224.917 117.999H214.5C214.224 117.999 213.959 117.89 213.764 117.694C213.568 117.499 213.459 117.234 213.459 116.958V106.541ZM216.584 105.499C216.307 105.499 216.042 105.609 215.847 105.804C215.652 106 215.542 106.265 215.542 106.541V115.916H223.875V106.541C223.875 106.265 223.766 106 223.57 105.804C223.375 105.609 223.11 105.499 222.834 105.499H216.584ZM195.75 106.541C195.75 105.712 196.08 104.917 196.666 104.331C197.252 103.745 198.047 103.416 198.875 103.416H205.125C205.954 103.416 206.749 103.745 207.335 104.331C207.921 104.917 208.25 105.712 208.25 106.541V116.958C208.25 117.234 208.141 117.499 207.945 117.694C207.75 117.89 207.485 117.999 207.209 117.999H196.792C196.516 117.999 196.251 117.89 196.055 117.694C195.86 117.499 195.75 117.234 195.75 116.958V106.541ZM198.875 105.499C198.599 105.499 198.334 105.609 198.139 105.804C197.943 106 197.834 106.265 197.834 106.541V115.916H206.167V106.541C206.167 106.265 206.057 106 205.862 105.804C205.667 105.609 205.402 105.499 205.125 105.499H198.875ZM178.042 123.208C178.042 122.931 178.152 122.666 178.347 122.471C178.542 122.276 178.807 122.166 179.084 122.166H189.5C189.777 122.166 190.042 122.276 190.237 122.471C190.432 122.666 190.542 122.931 190.542 123.208C190.542 123.484 190.432 123.749 190.237 123.944C190.042 124.14 189.777 124.249 189.5 124.249H185.334V131.541C185.334 131.817 185.224 132.082 185.029 132.278C184.833 132.473 184.568 132.583 184.292 132.583C184.016 132.583 183.751 132.473 183.555 132.278C183.36 132.082 183.25 131.817 183.25 131.541V124.249H179.084C178.807 124.249 178.542 124.14 178.347 123.944C178.152 123.749 178.042 123.484 178.042 123.208ZM213.459 123.208C213.459 122.931 213.568 122.666 213.764 122.471C213.959 122.276 214.224 122.166 214.5 122.166H224.917C225.193 122.166 225.458 122.276 225.654 122.471C225.849 122.666 225.959 122.931 225.959 123.208C225.959 123.484 225.849 123.749 225.654 123.944C225.458 124.14 225.193 124.249 224.917 124.249H220.75V131.541C220.75 131.817 220.641 132.082 220.445 132.278C220.25 132.473 219.985 132.583 219.709 132.583C219.432 132.583 219.167 132.473 218.972 132.278C218.777 132.082 218.667 131.817 218.667 131.541V124.249H214.5C214.224 124.249 213.959 124.14 213.764 123.944C213.568 123.749 213.459 123.484 213.459 123.208ZM195.75 123.208C195.75 122.931 195.86 122.666 196.055 122.471C196.251 122.276 196.516 122.166 196.792 122.166H207.209C207.485 122.166 207.75 122.276 207.945 122.471C208.141 122.666 208.25 122.931 208.25 123.208C208.25 123.484 208.141 123.749 207.945 123.944C207.75 124.14 207.485 124.249 207.209 124.249H203.042V131.541C203.042 131.817 202.932 132.082 202.737 132.278C202.542 132.473 202.277 132.583 202 132.583C201.724 132.583 201.459 132.473 201.264 132.278C201.068 132.082 200.959 131.817 200.959 131.541V124.249H196.792C196.516 124.249 196.251 124.14 196.055 123.944C195.86 123.749 195.75 123.484 195.75 123.208Z" fill="black"/>
<defs>
<filter id="filter0_f_1667_8879" x="0" y="0" width="425" height="423" filterUnits="userSpaceOnUse" color-interpolation-filters="sRGB">
<feFlood flood-opacity="0" result="BackgroundImageFix"/>
<feBlend mode="normal" in="SourceGraphic" in2="BackgroundImageFix" result="shape"/>
<feGaussianBlur stdDeviation="35" result="effect1_foregroundBlur_1667_8879"/>
</filter>
</defs>
</svg>
