<svg width="425" height="423" viewBox="0 0 425 423" fill="none" xmlns="http://www.w3.org/2000/svg">
<g filter="url(#filter0_f_1667_8934)">
<path d="M340 211.5C340 281.265 283.016 338 212.5 338C141.984 338 85 281.265 85 211.5C85 141.735 141.984 85 212.5 85C283.016 85 340 141.735 340 211.5Z" stroke="#2E8DFF" stroke-opacity="0.49" stroke-width="30"/>
</g>
<g clip-path="url(#clip0_1667_8934)">
<path d="M184.814 330V322.3H187.344C187.945 322.3 188.44 322.399 188.829 322.597C189.218 322.795 189.504 323.063 189.687 323.4C189.878 323.737 189.973 324.119 189.973 324.544C189.973 324.962 189.881 325.34 189.698 325.677C189.515 326.014 189.229 326.286 188.84 326.491C188.451 326.689 187.953 326.788 187.344 326.788H185.738V330H184.814ZM185.738 326.007H187.322C187.938 326.007 188.374 325.879 188.631 325.622C188.895 325.358 189.027 324.999 189.027 324.544C189.027 324.082 188.895 323.723 188.631 323.466C188.374 323.202 187.938 323.07 187.322 323.07H185.738V326.007ZM191.129 330V322.08H192.053V330H191.129ZM195.383 330.132C194.928 330.132 194.55 330.055 194.25 329.901C193.949 329.747 193.725 329.542 193.579 329.285C193.432 329.028 193.359 328.75 193.359 328.449C193.359 327.892 193.571 327.463 193.997 327.162C194.422 326.861 195.001 326.711 195.735 326.711H197.209V326.645C197.209 326.168 197.084 325.809 196.835 325.567C196.585 325.318 196.252 325.193 195.834 325.193C195.474 325.193 195.163 325.285 194.899 325.468C194.642 325.644 194.481 325.904 194.415 326.249H193.469C193.505 325.853 193.637 325.519 193.865 325.248C194.099 324.977 194.389 324.771 194.734 324.632C195.078 324.485 195.445 324.412 195.834 324.412C196.596 324.412 197.168 324.617 197.55 325.028C197.938 325.431 198.133 325.97 198.133 326.645V330H197.308L197.253 329.021C197.099 329.329 196.871 329.593 196.571 329.813C196.277 330.026 195.881 330.132 195.383 330.132ZM195.526 329.351C195.878 329.351 196.178 329.259 196.428 329.076C196.684 328.893 196.879 328.654 197.011 328.361C197.143 328.068 197.209 327.76 197.209 327.437V327.426H195.812C195.269 327.426 194.884 327.521 194.657 327.712C194.437 327.895 194.327 328.126 194.327 328.405C194.327 328.691 194.429 328.922 194.635 329.098C194.847 329.267 195.144 329.351 195.526 329.351ZM199.952 332.42L201.305 329.472H200.986L198.819 324.544H199.82L201.624 328.79L203.538 324.544H204.495L200.92 332.42H199.952ZM207.407 330.132C206.887 330.132 206.425 330.015 206.021 329.78C205.618 329.538 205.299 329.204 205.064 328.779C204.837 328.354 204.723 327.851 204.723 327.272C204.723 326.7 204.837 326.201 205.064 325.776C205.292 325.343 205.607 325.01 206.01 324.775C206.421 324.533 206.894 324.412 207.429 324.412C207.957 324.412 208.412 324.533 208.793 324.775C209.182 325.01 209.479 325.321 209.684 325.71C209.89 326.099 209.992 326.517 209.992 326.964C209.992 327.045 209.989 327.125 209.981 327.206C209.981 327.287 209.981 327.378 209.981 327.481H205.636C205.658 327.899 205.754 328.247 205.922 328.526C206.098 328.797 206.315 329.003 206.571 329.142C206.835 329.281 207.114 329.351 207.407 329.351C207.789 329.351 208.108 329.263 208.364 329.087C208.621 328.911 208.808 328.673 208.925 328.372H209.838C209.692 328.878 209.409 329.3 208.991 329.637C208.581 329.967 208.053 330.132 207.407 330.132ZM207.407 325.193C206.967 325.193 206.575 325.329 206.23 325.6C205.893 325.864 205.699 326.253 205.647 326.766H209.079C209.057 326.275 208.889 325.89 208.573 325.611C208.258 325.332 207.869 325.193 207.407 325.193ZM211.217 330V324.544H212.053L212.13 325.589C212.299 325.23 212.555 324.944 212.9 324.731C213.245 324.518 213.67 324.412 214.176 324.412V325.38H213.923C213.6 325.38 213.303 325.439 213.032 325.556C212.761 325.666 212.544 325.857 212.383 326.128C212.222 326.399 212.141 326.773 212.141 327.25V330H211.217Z" fill="black"/>
<path d="M220.407 279.349C223.716 287.07 224.82 295.895 218.199 306.926C211.376 320.751 203.859 305.822 198.345 306.926C192.83 308.03 186.212 310.236 181.799 302.513C174.059 288.97 184.005 284.863 189.52 276.041C195.037 267.216 217.097 271.626 220.407 279.349Z" fill="#FFADAD"/>
<path fill-rule="evenodd" clip-rule="evenodd" d="M178.313 310.952C179.152 308.804 180.619 306.96 182.523 305.66C184.427 304.36 186.678 303.664 188.983 303.664H208.85C211.156 303.664 213.408 304.359 215.312 305.66C217.216 306.96 218.684 308.804 219.523 310.952L219.611 311.174C219.796 311.648 219.862 312.16 219.805 312.665C219.747 313.17 219.567 313.654 219.281 314.074C218.994 314.494 218.609 314.838 218.159 315.075C217.71 315.313 217.209 315.437 216.7 315.437H181.136C180.627 315.437 180.126 315.313 179.676 315.075C179.227 314.838 178.842 314.494 178.555 314.074C178.268 313.654 178.088 313.17 178.031 312.665C177.973 312.16 178.04 311.648 178.225 311.174L178.313 310.952ZM188.983 305.747C187.098 305.748 185.256 306.317 183.698 307.381C182.141 308.445 180.941 309.953 180.254 311.71L180.165 311.933C180.103 312.091 180.081 312.261 180.1 312.43C180.119 312.598 180.179 312.76 180.275 312.9C180.371 313.04 180.499 313.154 180.649 313.233C180.799 313.312 180.966 313.354 181.136 313.354H216.698C216.868 313.354 217.035 313.312 217.185 313.233C217.335 313.154 217.463 313.04 217.559 312.9C217.654 312.76 217.714 312.598 217.734 312.43C217.753 312.261 217.731 312.091 217.669 311.933L217.581 311.71C216.895 309.953 215.695 308.445 214.137 307.381C212.58 306.317 210.738 305.748 208.852 305.747H188.983Z" fill="black"/>
<path fill-rule="evenodd" clip-rule="evenodd" d="M192.162 304.345C192.235 304.145 192.369 303.972 192.544 303.851C192.719 303.729 192.927 303.664 193.141 303.664H204.693C204.906 303.664 205.113 303.73 205.288 303.852C205.462 303.974 205.595 304.146 205.668 304.346C205.742 304.545 205.752 304.763 205.699 304.969C205.645 305.175 205.53 305.359 205.368 305.497L200.943 309.268C200.378 309.75 199.659 310.014 198.917 310.014C198.174 310.014 197.456 309.75 196.891 309.268L192.464 305.497C192.302 305.359 192.186 305.175 192.132 304.969C192.078 304.763 192.088 304.545 192.162 304.345ZM195.97 305.747L198.241 307.681C198.429 307.841 198.668 307.929 198.916 307.929C199.163 307.929 199.402 307.841 199.591 307.681L201.862 305.747H195.97Z" fill="black"/>
<path fill-rule="evenodd" clip-rule="evenodd" d="M198.917 308.146C199.193 308.146 199.458 308.256 199.653 308.451C199.849 308.646 199.958 308.911 199.958 309.188V314.396C199.958 314.672 199.849 314.937 199.653 315.132C199.458 315.328 199.193 315.438 198.917 315.438C198.64 315.438 198.375 315.328 198.18 315.132C197.985 314.937 197.875 314.672 197.875 314.396V309.188C197.875 308.911 197.985 308.646 198.18 308.451C198.375 308.256 198.64 308.146 198.917 308.146ZM186.5 284.146C186.5 277.302 191.506 271.688 198.917 271.688C206.325 271.688 211.329 277.302 211.329 284.146C211.329 285 211.252 285.913 211.104 286.852C211.804 287.494 212.271 288.39 212.271 289.415C212.271 291.192 210.925 292.525 209.292 292.95C208.312 295.173 206.987 297.296 205.358 298.915C203.6 300.66 201.423 301.875 198.915 301.875C196.406 301.875 194.227 300.66 192.471 298.915C190.842 297.296 189.519 295.173 188.537 292.948C186.908 292.523 185.565 291.19 185.565 289.417C185.565 288.392 186.029 287.5 186.725 286.854C186.58 285.959 186.505 285.053 186.5 284.146ZM198.917 273.771C192.727 273.771 188.583 278.381 188.583 284.146C188.583 285.042 188.683 286.044 188.883 287.104C188.921 287.309 188.897 287.521 188.813 287.712C188.73 287.902 188.591 288.064 188.415 288.175C187.904 288.498 187.648 288.965 187.648 289.417C187.648 290.096 188.275 290.867 189.394 290.994C189.579 291.014 189.755 291.084 189.903 291.196C190.052 291.308 190.168 291.457 190.24 291.629C191.167 293.867 192.431 295.94 193.94 297.435C195.444 298.929 197.123 299.792 198.915 299.792C200.706 299.792 202.385 298.929 203.89 297.437C205.398 295.937 206.665 293.867 207.59 291.631C207.661 291.459 207.777 291.309 207.926 291.196C208.075 291.084 208.252 291.014 208.437 290.994C209.558 290.869 210.187 290.096 210.187 289.417C210.187 288.962 209.929 288.498 209.417 288.175C209.24 288.064 209.1 287.901 209.017 287.71C208.933 287.518 208.909 287.306 208.948 287.1C209.146 286.044 209.246 285.042 209.246 284.146C209.246 278.381 205.104 273.771 198.915 273.771H198.917Z" fill="black"/>
<path fill-rule="evenodd" clip-rule="evenodd" d="M198.812 279.444C198.882 279.437 198.953 279.437 199.023 279.444L208.448 280.408C208.775 280.417 209.087 280.494 209.371 280.625C209.552 280.484 209.775 280.407 210.004 280.406C210.234 280.405 210.457 280.48 210.64 280.619C210.822 280.758 210.954 280.953 211.014 281.175C211.074 281.396 211.06 281.631 210.973 281.844L210.733 282.431C211.458 285.413 209.4 288.452 206.281 288.698L205.156 288.788C205.1 288.792 205.045 288.792 204.989 288.788L198.916 288.308L192.843 288.788C192.789 288.792 192.734 288.792 192.679 288.788L191.554 288.698C188.429 288.452 186.373 285.406 187.104 282.421L186.875 281.827C186.793 281.616 186.783 281.384 186.845 281.166C186.907 280.948 187.038 280.756 187.219 280.62C187.4 280.483 187.621 280.41 187.847 280.41C188.074 280.41 188.294 280.484 188.475 280.621C188.754 280.492 189.062 280.417 189.385 280.408L198.812 279.444ZM198.916 281.527L189.552 282.485C189.517 282.489 189.482 282.491 189.448 282.492C189.389 282.493 189.333 282.514 189.287 282.55C189.241 282.586 189.207 282.635 189.191 282.692C188.581 284.567 189.862 286.475 191.716 286.621L192.762 286.704L198.835 286.225C198.89 286.221 198.945 286.221 199 286.225L205.073 286.704L206.118 286.621C207.973 286.475 209.252 284.565 208.641 282.692C208.626 282.636 208.592 282.586 208.547 282.55C208.501 282.514 208.445 282.494 208.387 282.492C208.352 282.491 208.318 282.489 208.283 282.485L198.916 281.527ZM215.583 271.688C215.583 270.859 215.912 270.064 216.498 269.478C217.084 268.892 217.879 268.562 218.708 268.562H221.833C222.662 268.562 223.457 268.892 224.043 269.478C224.629 270.064 224.958 270.859 224.958 271.688V288.875C224.958 290.118 224.464 291.31 223.585 292.19C222.706 293.069 221.514 293.562 220.271 293.562C219.027 293.562 217.835 293.069 216.956 292.19C216.077 291.31 215.583 290.118 215.583 288.875V271.688ZM218.708 270.646C218.432 270.646 218.167 270.756 217.971 270.951C217.776 271.146 217.666 271.411 217.666 271.688V288.875C217.666 289.566 217.941 290.228 218.429 290.716C218.917 291.205 219.58 291.479 220.271 291.479C220.961 291.479 221.624 291.205 222.112 290.716C222.6 290.228 222.875 289.566 222.875 288.875V271.688C222.875 271.411 222.765 271.146 222.57 270.951C222.374 270.756 222.109 270.646 221.833 270.646H218.708Z" fill="black"/>
<path fill-rule="evenodd" clip-rule="evenodd" d="M217.666 292.521C217.666 292.245 217.776 291.98 217.971 291.784C218.167 291.589 218.432 291.479 218.708 291.479H221.833C222.109 291.479 222.374 291.589 222.57 291.784C222.765 291.98 222.875 292.245 222.875 292.521V301.375C222.875 302.066 222.6 302.728 222.112 303.216C221.624 303.705 220.961 303.979 220.27 303.979C219.58 303.979 218.917 303.705 218.429 303.216C217.941 302.728 217.666 302.066 217.666 301.375V292.521ZM219.75 293.563V301.375C219.75 301.513 219.805 301.646 219.902 301.743C220 301.841 220.132 301.896 220.27 301.896C220.409 301.896 220.541 301.841 220.639 301.743C220.736 301.646 220.791 301.513 220.791 301.375V293.563H219.75ZM194.435 292.317C195.81 291.568 197.351 291.176 198.917 291.176C200.483 291.176 202.024 291.568 203.4 292.317L207.166 294.367C207.409 294.499 207.59 294.722 207.668 294.987C207.746 295.252 207.716 295.537 207.584 295.78C207.452 296.023 207.229 296.204 206.964 296.282C206.699 296.36 206.413 296.33 206.17 296.198L202.404 294.148C201.334 293.566 200.135 293.26 198.917 293.26C197.699 293.26 196.501 293.566 195.431 294.148L191.96 296.035C191.84 296.105 191.707 296.15 191.569 296.167C191.431 296.184 191.291 296.174 191.157 296.136C191.023 296.098 190.898 296.034 190.79 295.948C190.681 295.861 190.591 295.754 190.524 295.631C190.458 295.509 190.416 295.375 190.403 295.237C190.389 295.099 190.403 294.959 190.444 294.826C190.485 294.693 190.552 294.57 190.641 294.464C190.731 294.357 190.84 294.27 190.964 294.206L194.435 292.317Z" fill="black"/>
<path d="M284.618 252V245.059H282.319V244.3H287.841V245.059H285.542V252H284.618ZM290.412 252.132C289.899 252.132 289.437 252.015 289.026 251.78C288.615 251.545 288.289 251.215 288.047 250.79C287.812 250.357 287.695 249.851 287.695 249.272C287.695 248.693 287.816 248.19 288.058 247.765C288.3 247.332 288.626 246.999 289.037 246.764C289.455 246.529 289.921 246.412 290.434 246.412C290.947 246.412 291.409 246.529 291.82 246.764C292.231 246.999 292.553 247.332 292.788 247.765C293.03 248.19 293.151 248.693 293.151 249.272C293.151 249.851 293.03 250.357 292.788 250.79C292.546 251.215 292.216 251.545 291.798 251.78C291.387 252.015 290.925 252.132 290.412 252.132ZM290.412 251.34C290.727 251.34 291.021 251.263 291.292 251.109C291.563 250.955 291.783 250.724 291.952 250.416C292.121 250.108 292.205 249.727 292.205 249.272C292.205 248.817 292.121 248.436 291.952 248.128C291.791 247.82 291.574 247.589 291.303 247.435C291.032 247.281 290.742 247.204 290.434 247.204C290.119 247.204 289.825 247.281 289.554 247.435C289.283 247.589 289.063 247.82 288.894 248.128C288.725 248.436 288.641 248.817 288.641 249.272C288.641 249.727 288.725 250.108 288.894 250.416C289.063 250.724 289.279 250.955 289.543 251.109C289.814 251.263 290.104 251.34 290.412 251.34ZM296.427 252.132C295.781 252.132 295.268 251.938 294.887 251.549C294.505 251.153 294.315 250.548 294.315 249.734V246.544H295.239V249.635C295.239 250.772 295.704 251.34 296.636 251.34C297.112 251.34 297.505 251.171 297.813 250.834C298.128 250.489 298.286 250.002 298.286 249.371V246.544H299.21V252H298.374L298.308 251.021C298.139 251.366 297.886 251.637 297.549 251.835C297.219 252.033 296.845 252.132 296.427 252.132ZM300.731 252V246.544H301.567L301.644 247.589C301.812 247.23 302.069 246.944 302.414 246.731C302.758 246.518 303.184 246.412 303.69 246.412V247.38H303.437C303.114 247.38 302.817 247.439 302.546 247.556C302.274 247.666 302.058 247.857 301.897 248.128C301.735 248.399 301.655 248.773 301.655 249.25V252H300.731ZM304.727 252V246.544H305.563L305.618 247.523C305.794 247.178 306.047 246.907 306.377 246.709C306.707 246.511 307.081 246.412 307.499 246.412C308.144 246.412 308.657 246.61 309.039 247.006C309.427 247.395 309.622 247.996 309.622 248.81V252H308.698V248.909C308.698 247.772 308.228 247.204 307.29 247.204C306.82 247.204 306.428 247.376 306.113 247.721C305.805 248.058 305.651 248.542 305.651 249.173V252H304.727ZM312.837 252.132C312.382 252.132 312.004 252.055 311.704 251.901C311.403 251.747 311.179 251.542 311.033 251.285C310.886 251.028 310.813 250.75 310.813 250.449C310.813 249.892 311.025 249.463 311.451 249.162C311.876 248.861 312.455 248.711 313.189 248.711H314.663V248.645C314.663 248.168 314.538 247.809 314.289 247.567C314.039 247.318 313.706 247.193 313.288 247.193C312.928 247.193 312.617 247.285 312.353 247.468C312.096 247.644 311.935 247.904 311.869 248.249H310.923C310.959 247.853 311.091 247.519 311.319 247.248C311.553 246.977 311.843 246.771 312.188 246.632C312.532 246.485 312.899 246.412 313.288 246.412C314.05 246.412 314.622 246.617 315.004 247.028C315.392 247.431 315.587 247.97 315.587 248.645V252H314.762L314.707 251.021C314.553 251.329 314.325 251.593 314.025 251.813C313.731 252.026 313.335 252.132 312.837 252.132ZM312.98 251.351C313.332 251.351 313.632 251.259 313.882 251.076C314.138 250.893 314.333 250.654 314.465 250.361C314.597 250.068 314.663 249.76 314.663 249.437V249.426H313.266C312.723 249.426 312.338 249.521 312.111 249.712C311.891 249.895 311.781 250.126 311.781 250.405C311.781 250.691 311.883 250.922 312.089 251.098C312.301 251.267 312.598 251.351 312.98 251.351ZM316.973 252V246.544H317.809L317.875 247.336C318.051 247.043 318.286 246.815 318.579 246.654C318.872 246.493 319.202 246.412 319.569 246.412C320.002 246.412 320.372 246.5 320.68 246.676C320.995 246.852 321.237 247.12 321.406 247.479C321.597 247.149 321.857 246.889 322.187 246.698C322.524 246.507 322.887 246.412 323.276 246.412C323.929 246.412 324.449 246.61 324.838 247.006C325.227 247.395 325.421 247.996 325.421 248.81V252H324.508V248.909C324.508 248.344 324.394 247.919 324.167 247.633C323.94 247.347 323.613 247.204 323.188 247.204C322.748 247.204 322.381 247.376 322.088 247.721C321.802 248.058 321.659 248.542 321.659 249.173V252H320.735V248.909C320.735 248.344 320.621 247.919 320.394 247.633C320.167 247.347 319.84 247.204 319.415 247.204C318.982 247.204 318.619 247.376 318.326 247.721C318.04 248.058 317.897 248.542 317.897 249.173V252H316.973ZM329.266 252.132C328.745 252.132 328.283 252.015 327.88 251.78C327.476 251.538 327.157 251.204 326.923 250.779C326.695 250.354 326.582 249.851 326.582 249.272C326.582 248.7 326.695 248.201 326.923 247.776C327.15 247.343 327.465 247.01 327.869 246.775C328.279 246.533 328.752 246.412 329.288 246.412C329.816 246.412 330.27 246.533 330.652 246.775C331.04 247.01 331.337 247.321 331.543 247.71C331.748 248.099 331.851 248.517 331.851 248.964C331.851 249.045 331.847 249.125 331.84 249.206C331.84 249.287 331.84 249.378 331.84 249.481H327.495C327.517 249.899 327.612 250.247 327.781 250.526C327.957 250.797 328.173 251.003 328.43 251.142C328.694 251.281 328.972 251.351 329.266 251.351C329.647 251.351 329.966 251.263 330.223 251.087C330.479 250.911 330.666 250.673 330.784 250.372H331.697C331.55 250.878 331.268 251.3 330.85 251.637C330.439 251.967 329.911 252.132 329.266 252.132ZM329.266 247.193C328.826 247.193 328.433 247.329 328.089 247.6C327.751 247.864 327.557 248.253 327.506 248.766H330.938C330.916 248.275 330.747 247.89 330.432 247.611C330.116 247.332 329.728 247.193 329.266 247.193ZM333.075 252V246.544H333.911L333.966 247.523C334.142 247.178 334.395 246.907 334.725 246.709C335.055 246.511 335.429 246.412 335.847 246.412C336.493 246.412 337.006 246.61 337.387 247.006C337.776 247.395 337.97 247.996 337.97 248.81V252H337.046V248.909C337.046 247.772 336.577 247.204 335.638 247.204C335.169 247.204 334.777 247.376 334.461 247.721C334.153 248.058 333.999 248.542 333.999 249.173V252H333.075ZM341.526 252C341.028 252 340.635 251.879 340.349 251.637C340.063 251.395 339.92 250.959 339.92 250.328V247.325H338.974V246.544H339.92L340.041 245.235H340.844V246.544H342.45V247.325H340.844V250.328C340.844 250.673 340.914 250.907 341.053 251.032C341.193 251.149 341.438 251.208 341.79 251.208H342.362V252H341.526Z" fill="black"/>
<path d="M313.568 198.166C305.359 200.904 300.515 199.372 297.505 198.166C287.463 194.154 286.459 229.291 302.522 232.302C318.584 235.314 330.632 219.252 331.636 210.218C332.638 201.181 329.628 198.17 326.615 196.162C323.605 194.154 319.588 196.162 313.565 198.17L313.568 198.166Z" fill="#9BF6FF"/>
<path fill-rule="evenodd" clip-rule="evenodd" d="M290.448 204.108C289.369 204.806 289.126 205.356 289.126 205.667C289.126 205.979 289.369 206.527 290.448 207.225C291.482 207.892 293.044 208.529 295.069 209.079C299.105 210.183 304.736 210.875 311.001 210.875C317.263 210.875 322.896 210.181 326.932 209.081C328.957 208.529 330.519 207.89 331.553 207.225C332.632 206.527 332.876 205.977 332.876 205.667C332.876 205.354 332.632 204.806 331.553 204.108C330.519 203.442 328.957 202.804 326.932 202.254C322.896 201.148 317.265 200.458 311.001 200.458C304.738 200.458 299.105 201.152 295.069 202.252C293.044 202.804 291.482 203.444 290.448 204.108ZM294.521 200.242C298.782 199.083 304.607 198.375 311.001 198.375C317.394 198.375 323.219 199.081 327.48 200.242C329.601 200.821 331.394 201.529 332.682 202.358C333.921 203.158 334.959 204.252 334.959 205.667C334.959 207.081 333.921 208.175 332.682 208.975C331.394 209.804 329.601 210.513 327.48 211.092C323.219 212.252 317.394 212.958 311.001 212.958C304.607 212.958 298.782 212.252 294.521 211.092C292.401 210.513 290.607 209.804 289.319 208.975C288.08 208.175 287.042 207.081 287.042 205.667C287.042 204.252 288.08 203.158 289.319 202.358C290.607 201.529 292.401 200.821 294.521 200.242Z" fill="black"/>
<path fill-rule="evenodd" clip-rule="evenodd" d="M311.001 206.708C302.865 206.708 295.84 207.877 291.98 209.558C291.854 209.613 291.719 209.642 291.583 209.645C291.446 209.647 291.31 209.623 291.183 209.572C290.926 209.471 290.719 209.272 290.609 209.019C290.499 208.765 290.494 208.479 290.595 208.222C290.696 207.965 290.895 207.758 291.149 207.648C295.39 205.802 302.746 204.625 311.003 204.625C319.255 204.625 326.611 205.802 330.853 207.648C330.978 207.703 331.092 207.782 331.187 207.88C331.281 207.979 331.356 208.095 331.406 208.222C331.456 208.35 331.481 208.486 331.478 208.623C331.475 208.759 331.446 208.894 331.391 209.02C331.337 209.145 331.258 209.259 331.159 209.354C331.061 209.449 330.944 209.523 330.817 209.573C330.689 209.623 330.553 209.648 330.417 209.645C330.28 209.643 330.145 209.613 330.019 209.558C326.163 207.877 319.138 206.708 311.001 206.708ZM292.786 226.721C292.827 226.59 292.893 226.469 292.98 226.364C293.068 226.259 293.175 226.172 293.296 226.108C293.417 226.044 293.55 226.005 293.686 225.993C293.822 225.98 293.96 225.995 294.09 226.035C297.694 227.154 302.853 227.923 308.715 228.083C308.852 228.087 308.987 228.118 309.112 228.173C309.237 228.229 309.349 228.309 309.444 228.408C309.538 228.508 309.611 228.625 309.66 228.752C309.709 228.88 309.732 229.016 309.729 229.153C309.725 229.29 309.694 229.425 309.639 229.55C309.583 229.675 309.503 229.787 309.404 229.881C309.304 229.976 309.188 230.049 309.06 230.098C308.932 230.147 308.796 230.17 308.659 230.167C302.674 230.002 297.313 229.217 293.471 228.025C293.341 227.984 293.219 227.918 293.114 227.831C293.009 227.743 292.922 227.636 292.859 227.515C292.795 227.394 292.756 227.261 292.743 227.125C292.731 226.989 292.745 226.851 292.786 226.721ZM329.215 226.721C329.256 226.852 329.27 226.989 329.258 227.125C329.245 227.262 329.206 227.394 329.142 227.515C329.078 227.637 328.991 227.744 328.886 227.831C328.78 227.919 328.659 227.985 328.528 228.025C324.688 229.217 319.328 230.004 313.342 230.167C313.206 230.17 313.069 230.147 312.942 230.098C312.814 230.049 312.697 229.976 312.597 229.881C312.498 229.787 312.418 229.675 312.363 229.55C312.307 229.425 312.276 229.29 312.273 229.153C312.269 229.016 312.292 228.88 312.341 228.752C312.39 228.625 312.464 228.508 312.558 228.408C312.652 228.309 312.765 228.229 312.89 228.173C313.015 228.118 313.149 228.087 313.286 228.083C319.151 227.923 324.307 227.154 327.911 226.035C328.042 225.995 328.179 225.98 328.316 225.993C328.452 226.006 328.585 226.045 328.706 226.109C328.827 226.173 328.934 226.26 329.022 226.365C329.109 226.47 329.175 226.59 329.215 226.721Z" fill="black"/>
<path fill-rule="evenodd" clip-rule="evenodd" d="M287.831 204.656C288.099 204.589 288.383 204.632 288.619 204.774C288.856 204.916 289.027 205.146 289.094 205.414L295.344 230.414C295.364 230.497 295.375 230.581 295.375 230.666C295.375 231.125 295.619 231.687 296.333 232.32C297.048 232.954 298.142 233.57 299.581 234.112C302.452 235.187 306.49 235.875 311 235.875C315.51 235.875 319.548 235.187 322.419 234.11C323.858 233.57 324.952 232.954 325.667 232.318C326.381 231.685 326.625 231.125 326.625 230.666C326.625 230.583 326.635 230.495 326.656 230.414L332.906 205.414C332.978 205.152 333.15 204.928 333.385 204.791C333.62 204.653 333.899 204.613 334.163 204.679C334.427 204.745 334.655 204.911 334.798 205.143C334.94 205.375 334.987 205.653 334.927 205.918L328.708 230.806C328.66 232.014 327.985 233.05 327.05 233.879C326.077 234.741 324.729 235.47 323.154 236.062C319.994 237.245 315.696 237.958 311.002 237.958C306.308 237.958 302.012 237.245 298.852 236.062C297.275 235.47 295.927 234.741 294.956 233.879C294.019 233.05 293.346 232.014 293.296 230.806L287.073 205.918C287.006 205.65 287.048 205.367 287.191 205.13C287.333 204.893 287.563 204.723 287.831 204.656Z" fill="black"/>
<path fill-rule="evenodd" clip-rule="evenodd" d="M306.833 232.878C306.674 232.245 306.662 231.584 306.797 230.945C306.932 230.305 307.211 229.706 307.613 229.191C308.015 228.676 308.528 228.259 309.115 227.973C309.702 227.686 310.347 227.537 311 227.537C311.653 227.537 312.298 227.686 312.885 227.973C313.471 228.259 313.985 228.676 314.387 229.191C314.789 229.706 315.068 230.305 315.203 230.945C315.338 231.584 315.326 232.245 315.167 232.878L314.094 237.17C314.037 237.395 313.907 237.595 313.724 237.738C313.541 237.88 313.315 237.958 313.083 237.958H308.917C308.684 237.958 308.459 237.88 308.275 237.737C308.092 237.594 307.962 237.393 307.906 237.168L306.833 232.878ZM311 229.624C309.562 229.624 308.506 230.976 308.854 232.372L309.729 235.874H312.271L313.146 232.372C313.227 232.046 313.233 231.706 313.163 231.377C313.093 231.048 312.95 230.74 312.743 230.475C312.536 230.21 312.272 229.996 311.97 229.849C311.668 229.701 311.336 229.624 311 229.624Z" fill="black"/>
<path fill-rule="evenodd" clip-rule="evenodd" d="M311 210.874C311.277 210.874 311.542 210.984 311.737 211.179C311.932 211.375 312.042 211.64 312.042 211.916V228.583C312.042 228.859 311.932 229.124 311.737 229.319C311.542 229.515 311.277 229.624 311 229.624C310.724 229.624 310.459 229.515 310.264 229.319C310.068 229.124 309.959 228.859 309.959 228.583V211.916C309.959 211.64 310.068 211.375 310.264 211.179C310.459 210.984 310.724 210.874 311 210.874ZM298.5 210.874C298.777 210.874 299.042 210.984 299.237 211.179C299.432 211.375 299.542 211.64 299.542 211.916V227.541C299.542 227.817 299.432 228.082 299.237 228.278C299.042 228.473 298.777 228.583 298.5 228.583C298.224 228.583 297.959 228.473 297.764 228.278C297.568 228.082 297.459 227.817 297.459 227.541V211.916C297.459 211.64 297.568 211.375 297.764 211.179C297.959 210.984 298.224 210.874 298.5 210.874ZM323.5 210.874C323.777 210.874 324.042 210.984 324.237 211.179C324.432 211.375 324.542 211.64 324.542 211.916V227.541C324.542 227.817 324.432 228.082 324.237 228.278C324.042 228.473 323.777 228.583 323.5 228.583C323.224 228.583 322.959 228.473 322.764 228.278C322.568 228.082 322.459 227.817 322.459 227.541V211.916C322.459 211.64 322.568 211.375 322.764 211.179C322.959 210.984 323.224 210.874 323.5 210.874ZM307.875 191.083C307.875 190.806 307.985 190.541 308.18 190.346C308.376 190.151 308.641 190.041 308.917 190.041H315.167C315.443 190.041 315.708 190.151 315.904 190.346C316.099 190.541 316.209 190.806 316.209 191.083V195.249C316.209 195.526 316.099 195.791 315.904 195.986C315.708 196.181 315.443 196.291 315.167 196.291H309.959V199.416C309.959 199.692 309.849 199.957 309.654 200.153C309.458 200.348 309.193 200.458 308.917 200.458C308.641 200.458 308.376 200.348 308.18 200.153C307.985 199.957 307.875 199.692 307.875 199.416V191.083ZM309.959 194.208H314.125V192.124H309.959V194.208ZM293.292 191.083C293.292 190.806 293.402 190.541 293.597 190.346C293.792 190.151 294.057 190.041 294.334 190.041H300.584C300.86 190.041 301.125 190.151 301.32 190.346C301.516 190.541 301.625 190.806 301.625 191.083V195.249C301.625 195.526 301.516 195.791 301.32 195.986C301.125 196.181 300.86 196.291 300.584 196.291H295.375V200.458C295.375 200.734 295.266 200.999 295.07 201.194C294.875 201.39 294.61 201.499 294.334 201.499C294.057 201.499 293.792 201.39 293.597 201.194C293.402 200.999 293.292 200.734 293.292 200.458V191.083ZM295.375 194.208H299.542V192.124H295.375V194.208ZM322.459 191.083C322.459 190.806 322.568 190.541 322.764 190.346C322.959 190.151 323.224 190.041 323.5 190.041H329.75C330.027 190.041 330.292 190.151 330.487 190.346C330.682 190.541 330.792 190.806 330.792 191.083V195.249C330.792 195.526 330.682 195.791 330.487 195.986C330.292 196.181 330.027 196.291 329.75 196.291H324.542V199.416C324.542 199.692 324.432 199.957 324.237 200.153C324.042 200.348 323.777 200.458 323.5 200.458C323.224 200.458 322.959 200.348 322.764 200.153C322.568 199.957 322.459 199.692 322.459 199.416V191.083ZM324.542 194.208H328.709V192.124H324.542V194.208Z" fill="black"/>
<path d="M187.814 155V147.3H188.892L191.664 152.668L194.414 147.3H195.503V155H194.579V148.95L192.005 153.9H191.312L188.738 148.961V155H187.814ZM198.887 155.132C198.433 155.132 198.055 155.055 197.754 154.901C197.454 154.747 197.23 154.542 197.083 154.285C196.937 154.028 196.863 153.75 196.863 153.449C196.863 152.892 197.076 152.463 197.501 152.162C197.927 151.861 198.506 151.711 199.239 151.711H200.713V151.645C200.713 151.168 200.589 150.809 200.339 150.567C200.09 150.318 199.756 150.193 199.338 150.193C198.979 150.193 198.667 150.285 198.403 150.468C198.147 150.644 197.985 150.904 197.919 151.249H196.973C197.01 150.853 197.142 150.519 197.369 150.248C197.604 149.977 197.894 149.771 198.238 149.632C198.583 149.485 198.95 149.412 199.338 149.412C200.101 149.412 200.673 149.617 201.054 150.028C201.443 150.431 201.637 150.97 201.637 151.645V155H200.812L200.757 154.021C200.603 154.329 200.376 154.593 200.075 154.813C199.782 155.026 199.386 155.132 198.887 155.132ZM199.03 154.351C199.382 154.351 199.683 154.259 199.932 154.076C200.189 153.893 200.383 153.654 200.515 153.361C200.647 153.068 200.713 152.76 200.713 152.437V152.426H199.316C198.774 152.426 198.389 152.521 198.161 152.712C197.941 152.895 197.831 153.126 197.831 153.405C197.831 153.691 197.934 153.922 198.139 154.098C198.352 154.267 198.649 154.351 199.03 154.351ZM205.029 155C204.531 155 204.138 154.879 203.852 154.637C203.566 154.395 203.423 153.959 203.423 153.328V150.325H202.477V149.544H203.423L203.544 148.235H204.347V149.544H205.953V150.325H204.347V153.328C204.347 153.673 204.417 153.907 204.556 154.032C204.696 154.149 204.941 154.208 205.293 154.208H205.865V155H205.029ZM209.485 155.132C208.964 155.132 208.495 155.015 208.077 154.78C207.666 154.538 207.34 154.204 207.098 153.779C206.863 153.346 206.746 152.844 206.746 152.272C206.746 151.7 206.863 151.201 207.098 150.776C207.34 150.343 207.666 150.01 208.077 149.775C208.495 149.533 208.964 149.412 209.485 149.412C210.13 149.412 210.673 149.581 211.113 149.918C211.56 150.255 211.842 150.706 211.96 151.271H211.014C210.94 150.934 210.761 150.673 210.475 150.49C210.189 150.299 209.855 150.204 209.474 150.204C209.166 150.204 208.876 150.281 208.605 150.435C208.333 150.589 208.113 150.82 207.945 151.128C207.776 151.436 207.692 151.817 207.692 152.272C207.692 152.727 207.776 153.108 207.945 153.416C208.113 153.724 208.333 153.959 208.605 154.12C208.876 154.274 209.166 154.351 209.474 154.351C209.855 154.351 210.189 154.259 210.475 154.076C210.761 153.885 210.94 153.618 211.014 153.273H211.96C211.85 153.823 211.571 154.27 211.124 154.615C210.676 154.96 210.13 155.132 209.485 155.132ZM213.25 155V147.08H214.174V150.479C214.358 150.142 214.618 149.881 214.955 149.698C215.293 149.507 215.659 149.412 216.055 149.412C216.686 149.412 217.192 149.61 217.573 150.006C217.955 150.395 218.145 150.996 218.145 151.81V155H217.232V151.909C217.232 150.772 216.774 150.204 215.857 150.204C215.381 150.204 214.981 150.376 214.658 150.721C214.336 151.058 214.174 151.542 214.174 152.173V155H213.25Z" fill="black"/>
<path d="M187.167 114.433C189.905 122.642 188.373 127.485 187.167 130.496C183.153 140.537 218.29 141.539 221.301 125.477C224.313 109.414 208.251 97.3665 199.217 96.3624C190.18 95.3603 187.169 98.3707 185.161 101.383C183.153 104.396 185.159 108.41 187.167 114.433Z" fill="#CAFFBF"/>
<path fill-rule="evenodd" clip-rule="evenodd" d="M214.322 99.848C214.517 99.6527 214.782 99.543 215.059 99.543C215.335 99.543 215.6 99.6527 215.795 99.848L223.162 107.213C223.259 107.309 223.336 107.424 223.388 107.551C223.441 107.677 223.468 107.813 223.468 107.95C223.468 108.087 223.441 108.223 223.388 108.349C223.336 108.476 223.259 108.591 223.162 108.688L203.433 128.417C203.246 128.603 202.995 128.712 202.73 128.721L198.153 128.879C198.011 128.884 197.869 128.859 197.736 128.806C197.604 128.753 197.483 128.674 197.383 128.573L194.435 125.627C194.334 125.526 194.255 125.406 194.203 125.273C194.15 125.141 194.126 124.999 194.13 124.856L194.289 120.277C194.298 120.014 194.407 119.764 194.593 119.577L214.322 99.848ZM215.06 102.056L196.353 120.763L196.226 124.477L198.533 126.783L202.247 126.654L220.949 107.952L215.058 102.06L215.06 102.056Z" fill="black"/>
<path fill-rule="evenodd" clip-rule="evenodd" d="M198.119 116.057C198.315 115.862 198.58 115.752 198.856 115.752C199.132 115.752 199.397 115.862 199.592 116.057L206.957 123.424C207.152 123.619 207.262 123.884 207.262 124.16C207.262 124.436 207.152 124.701 206.957 124.897L203.276 128.58C203.179 128.677 203.064 128.753 202.937 128.805C202.811 128.858 202.675 128.884 202.538 128.884H198.119C197.982 128.884 197.847 128.858 197.72 128.805C197.594 128.753 197.479 128.677 197.382 128.58L194.438 125.632C194.243 125.437 194.132 125.173 194.132 124.897V120.478C194.132 120.341 194.159 120.205 194.211 120.079C194.264 119.952 194.341 119.837 194.438 119.74L198.121 116.057H198.119ZM198.855 118.265L196.213 120.909V124.465L198.551 126.801H202.107L204.748 124.159L198.855 118.267V118.265Z" fill="black"/>
<path fill-rule="evenodd" clip-rule="evenodd" d="M194.438 124.157C194.633 123.963 194.897 123.853 195.173 123.853C195.449 123.853 195.713 123.963 195.908 124.157L198.854 127.103C199.049 127.299 199.159 127.563 199.159 127.84C199.159 128.116 199.049 128.381 198.854 128.576L192.229 135.205L192.965 135.943C193.064 136.039 193.143 136.154 193.198 136.281C193.253 136.408 193.281 136.545 193.283 136.683C193.284 136.821 193.257 136.959 193.205 137.087C193.153 137.215 193.075 137.331 192.978 137.429C192.88 137.526 192.763 137.604 192.635 137.656C192.507 137.709 192.37 137.735 192.232 137.734C192.094 137.733 191.957 137.704 191.83 137.649C191.703 137.595 191.588 137.515 191.492 137.416L185.6 131.524C185.41 131.328 185.305 131.064 185.308 130.791C185.31 130.518 185.42 130.257 185.613 130.064C185.806 129.871 186.067 129.761 186.34 129.759C186.613 129.756 186.876 129.861 187.073 130.051L187.808 130.787L194.438 124.157ZM189.279 132.262L190.752 133.732L196.646 127.841L195.173 126.368L189.279 132.259V132.262ZM198.119 99.8511C197.831 99.5527 197.486 99.3146 197.104 99.1508C196.723 98.9871 196.313 98.9008 195.898 98.8972C195.483 98.8936 195.072 98.9727 194.688 99.1298C194.304 99.287 193.955 99.519 193.661 99.8124C193.368 100.106 193.136 100.455 192.979 100.839C192.822 101.223 192.743 101.634 192.746 102.049C192.75 102.464 192.836 102.874 193 103.256C193.163 103.637 193.402 103.982 193.7 104.27C194.291 104.829 195.077 105.135 195.891 105.124C196.705 105.112 197.482 104.784 198.057 104.208C198.632 103.633 198.96 102.855 198.972 102.042C198.983 101.228 198.678 100.442 198.119 99.8511ZM192.225 98.3761C192.708 97.889 193.282 97.5019 193.915 97.2373C194.548 96.9727 195.226 96.8356 195.912 96.834C196.598 96.8324 197.278 96.9663 197.912 97.228C198.546 97.4897 199.122 97.874 199.607 98.3589C200.092 98.8439 200.476 99.4198 200.738 100.054C201 100.688 201.134 101.367 201.133 102.053C201.131 102.739 200.995 103.418 200.73 104.051C200.466 104.683 200.079 105.258 199.592 105.741C198.614 106.711 197.291 107.253 195.914 107.251C194.536 107.248 193.216 106.7 192.242 105.726C191.268 104.752 190.719 103.432 190.716 102.054C190.713 100.677 191.255 99.3545 192.225 98.3761Z" fill="black"/>
<path d="M95.618 252V245.059H93.319V244.3H98.841V245.059H96.542V252H95.618ZM101.379 252.132C100.858 252.132 100.396 252.015 99.993 251.78C99.5897 251.538 99.2707 251.204 99.036 250.779C98.8087 250.354 98.695 249.851 98.695 249.272C98.695 248.7 98.8087 248.201 99.036 247.776C99.2633 247.343 99.5787 247.01 99.982 246.775C100.393 246.533 100.866 246.412 101.401 246.412C101.929 246.412 102.384 246.533 102.765 246.775C103.154 247.01 103.451 247.321 103.656 247.71C103.861 248.099 103.964 248.517 103.964 248.964C103.964 249.045 103.96 249.125 103.953 249.206C103.953 249.287 103.953 249.378 103.953 249.481H99.608C99.63 249.899 99.7253 250.247 99.894 250.526C100.07 250.797 100.286 251.003 100.543 251.142C100.807 251.281 101.086 251.351 101.379 251.351C101.76 251.351 102.079 251.263 102.336 251.087C102.593 250.911 102.78 250.673 102.897 250.372H103.81C103.663 250.878 103.381 251.3 102.963 251.637C102.552 251.967 102.024 252.132 101.379 252.132ZM101.379 247.193C100.939 247.193 100.547 247.329 100.202 247.6C99.8647 247.864 99.6703 248.253 99.619 248.766H103.051C103.029 248.275 102.86 247.89 102.545 247.611C102.23 247.332 101.841 247.193 101.379 247.193ZM107.004 252.132C106.549 252.132 106.171 252.055 105.871 251.901C105.57 251.747 105.346 251.542 105.2 251.285C105.053 251.028 104.98 250.75 104.98 250.449C104.98 249.892 105.192 249.463 105.618 249.162C106.043 248.861 106.622 248.711 107.356 248.711H108.83V248.645C108.83 248.168 108.705 247.809 108.456 247.567C108.206 247.318 107.873 247.193 107.455 247.193C107.095 247.193 106.784 247.285 106.52 247.468C106.263 247.644 106.102 247.904 106.036 248.249H105.09C105.126 247.853 105.258 247.519 105.486 247.248C105.72 246.977 106.01 246.771 106.355 246.632C106.699 246.485 107.066 246.412 107.455 246.412C108.217 246.412 108.789 246.617 109.171 247.028C109.559 247.431 109.754 247.97 109.754 248.645V252H108.929L108.874 251.021C108.72 251.329 108.492 251.593 108.192 251.813C107.898 252.026 107.502 252.132 107.004 252.132ZM107.147 251.351C107.499 251.351 107.799 251.259 108.049 251.076C108.305 250.893 108.5 250.654 108.632 250.361C108.764 250.068 108.83 249.76 108.83 249.437V249.426H107.433C106.89 249.426 106.505 249.521 106.278 249.712C106.058 249.895 105.948 250.126 105.948 250.405C105.948 250.691 106.05 250.922 106.256 251.098C106.468 251.267 106.765 251.351 107.147 251.351ZM111.14 252V246.544H111.976L112.042 247.336C112.218 247.043 112.453 246.815 112.746 246.654C113.039 246.493 113.369 246.412 113.736 246.412C114.169 246.412 114.539 246.5 114.847 246.676C115.162 246.852 115.404 247.12 115.573 247.479C115.764 247.149 116.024 246.889 116.354 246.698C116.691 246.507 117.054 246.412 117.443 246.412C118.096 246.412 118.616 246.61 119.005 247.006C119.394 247.395 119.588 247.996 119.588 248.81V252H118.675V248.909C118.675 248.344 118.561 247.919 118.334 247.633C118.107 247.347 117.78 247.204 117.355 247.204C116.915 247.204 116.548 247.376 116.255 247.721C115.969 248.058 115.826 248.542 115.826 249.173V252H114.902V248.909C114.902 248.344 114.788 247.919 114.561 247.633C114.334 247.347 114.007 247.204 113.582 247.204C113.149 247.204 112.786 247.376 112.493 247.721C112.207 248.058 112.064 248.542 112.064 249.173V252H111.14Z" fill="black"/>
<path d="M87.4796 218.437C84.9213 224.41 87.4796 230.168 91.7463 232.302C104.053 238.454 115.205 232.302 122.384 225.468C129.03 219.145 129.848 200.943 121.317 195.612C112.788 190.279 97.8588 193.91 97.8588 204.141C97.8588 213.108 90.6796 210.972 87.4796 218.437Z" fill="#BDB2FF"/>
<path fill-rule="evenodd" clip-rule="evenodd" d="M83.0422 227.542C83.0422 227.265 83.1519 227 83.3473 226.805C83.5426 226.61 83.8076 226.5 84.0838 226.5H129.917C130.193 226.5 130.458 226.61 130.654 226.805C130.849 227 130.959 227.265 130.959 227.542C130.959 227.818 130.849 228.083 130.654 228.278C130.458 228.474 130.193 228.583 129.917 228.583H84.0838C83.8076 228.583 83.5426 228.474 83.3473 228.278C83.1519 228.083 83.0422 227.818 83.0422 227.542Z" fill="black"/>
<path fill-rule="evenodd" clip-rule="evenodd" d="M83.042 202.541C83.042 201.712 83.3712 200.917 83.9573 200.331C84.5433 199.745 85.3382 199.416 86.167 199.416H92.417C93.2458 199.416 94.0407 199.745 94.6267 200.331C95.2128 200.917 95.542 201.712 95.542 202.541V212.958C95.542 213.234 95.4322 213.499 95.2369 213.694C95.0415 213.89 94.7766 213.999 94.5003 213.999H84.0837C83.8074 213.999 83.5424 213.89 83.3471 213.694C83.1517 213.499 83.042 213.234 83.042 212.958V202.541ZM86.167 201.499C85.8907 201.499 85.6258 201.609 85.4304 201.804C85.2351 202 85.1253 202.265 85.1253 202.541V211.916H93.4587V202.541C93.4587 202.265 93.3489 202 93.1536 201.804C92.9582 201.609 92.6933 201.499 92.417 201.499H86.167ZM118.459 202.541C118.459 201.712 118.788 200.917 119.374 200.331C119.96 199.745 120.755 199.416 121.584 199.416H127.834C128.662 199.416 129.457 199.745 130.043 200.331C130.629 200.917 130.959 201.712 130.959 202.541V212.958C130.959 213.234 130.849 213.499 130.654 213.694C130.458 213.89 130.193 213.999 129.917 213.999H119.5C119.224 213.999 118.959 213.89 118.764 213.694C118.568 213.499 118.459 213.234 118.459 212.958V202.541ZM121.584 201.499C121.307 201.499 121.042 201.609 120.847 201.804C120.652 202 120.542 202.265 120.542 202.541V211.916H128.875V202.541C128.875 202.265 128.766 202 128.57 201.804C128.375 201.609 128.11 201.499 127.834 201.499H121.584ZM100.75 202.541C100.75 201.712 101.08 200.917 101.666 200.331C102.252 199.745 103.047 199.416 103.875 199.416H110.125C110.954 199.416 111.749 199.745 112.335 200.331C112.921 200.917 113.25 201.712 113.25 202.541V212.958C113.25 213.234 113.141 213.499 112.945 213.694C112.75 213.89 112.485 213.999 112.209 213.999H101.792C101.516 213.999 101.251 213.89 101.055 213.694C100.86 213.499 100.75 213.234 100.75 212.958V202.541ZM103.875 201.499C103.599 201.499 103.334 201.609 103.139 201.804C102.943 202 102.834 202.265 102.834 202.541V211.916H111.167V202.541C111.167 202.265 111.057 202 110.862 201.804C110.667 201.609 110.402 201.499 110.125 201.499H103.875ZM83.042 219.208C83.042 218.931 83.1517 218.666 83.3471 218.471C83.5424 218.276 83.8074 218.166 84.0837 218.166H94.5003C94.7766 218.166 95.0415 218.276 95.2369 218.471C95.4322 218.666 95.542 218.931 95.542 219.208C95.542 219.484 95.4322 219.749 95.2369 219.944C95.0415 220.14 94.7766 220.249 94.5003 220.249H90.3337V227.541C90.3337 227.817 90.2239 228.082 90.0286 228.278C89.8332 228.473 89.5683 228.583 89.292 228.583C89.0157 228.583 88.7508 228.473 88.5554 228.278C88.3601 228.082 88.2503 227.817 88.2503 227.541V220.249H84.0837C83.8074 220.249 83.5424 220.14 83.3471 219.944C83.1517 219.749 83.042 219.484 83.042 219.208ZM118.459 219.208C118.459 218.931 118.568 218.666 118.764 218.471C118.959 218.276 119.224 218.166 119.5 218.166H129.917C130.193 218.166 130.458 218.276 130.654 218.471C130.849 218.666 130.959 218.931 130.959 219.208C130.959 219.484 130.849 219.749 130.654 219.944C130.458 220.14 130.193 220.249 129.917 220.249H125.75V227.541C125.75 227.817 125.641 228.082 125.445 228.278C125.25 228.473 124.985 228.583 124.709 228.583C124.432 228.583 124.167 228.473 123.972 228.278C123.777 228.082 123.667 227.817 123.667 227.541V220.249H119.5C119.224 220.249 118.959 220.14 118.764 219.944C118.568 219.749 118.459 219.484 118.459 219.208ZM100.75 219.208C100.75 218.931 100.86 218.666 101.055 218.471C101.251 218.276 101.516 218.166 101.792 218.166H112.209C112.485 218.166 112.75 218.276 112.945 218.471C113.141 218.666 113.25 218.931 113.25 219.208C113.25 219.484 113.141 219.749 112.945 219.944C112.75 220.14 112.485 220.249 112.209 220.249H108.042V227.541C108.042 227.817 107.932 228.082 107.737 228.278C107.542 228.473 107.277 228.583 107 228.583C106.724 228.583 106.459 228.473 106.264 228.278C106.068 228.082 105.959 227.817 105.959 227.541V220.249H101.792C101.516 220.249 101.251 220.14 101.055 219.944C100.86 219.749 100.75 219.484 100.75 219.208Z" fill="black"/>
</g>
<defs>
<filter id="filter0_f_1667_8934" x="0" y="0" width="425" height="423" filterUnits="userSpaceOnUse" color-interpolation-filters="sRGB">
<feFlood flood-opacity="0" result="BackgroundImageFix"/>
<feBlend mode="normal" in="SourceGraphic" in2="BackgroundImageFix" result="shape"/>
<feGaussianBlur stdDeviation="35" result="effect1_foregroundBlur_1667_8934"/>
</filter>
<clipPath id="clip0_1667_8934">
<rect x="62" y="89" width="298" height="244" rx="8" fill="white"/>
</clipPath>
</defs>
</svg>
