<svg width="425" height="423" viewBox="0 0 425 423" fill="none" xmlns="http://www.w3.org/2000/svg">
<g filter="url(#filter0_f_1667_8989)">
<path d="M340 211.5C340 281.265 283.016 338 212.5 338C141.984 338 85 281.265 85 211.5C85 141.735 141.984 85 212.5 85C283.016 85 340 141.735 340 211.5Z" stroke="#2E8DFF" stroke-opacity="0.49" stroke-width="30"/>
</g>
<g clip-path="url(#clip0_1667_8989)">
<path d="M294.814 252V244.3H297.344C297.945 244.3 298.44 244.399 298.829 244.597C299.218 244.795 299.504 245.063 299.687 245.4C299.878 245.737 299.973 246.119 299.973 246.544C299.973 246.962 299.881 247.34 299.698 247.677C299.515 248.014 299.229 248.286 298.84 248.491C298.451 248.689 297.953 248.788 297.344 248.788H295.738V252H294.814ZM295.738 248.007H297.322C297.938 248.007 298.374 247.879 298.631 247.622C298.895 247.358 299.027 246.999 299.027 246.544C299.027 246.082 298.895 245.723 298.631 245.466C298.374 245.202 297.938 245.07 297.322 245.07H295.738V248.007ZM301.129 252V244.08H302.053V252H301.129ZM305.383 252.132C304.928 252.132 304.55 252.055 304.25 251.901C303.949 251.747 303.725 251.542 303.579 251.285C303.432 251.028 303.359 250.75 303.359 250.449C303.359 249.892 303.571 249.463 303.997 249.162C304.422 248.861 305.001 248.711 305.735 248.711H307.209V248.645C307.209 248.168 307.084 247.809 306.835 247.567C306.585 247.318 306.252 247.193 305.834 247.193C305.474 247.193 305.163 247.285 304.899 247.468C304.642 247.644 304.481 247.904 304.415 248.249H303.469C303.505 247.853 303.637 247.519 303.865 247.248C304.099 246.977 304.389 246.771 304.734 246.632C305.078 246.485 305.445 246.412 305.834 246.412C306.596 246.412 307.168 246.617 307.55 247.028C307.938 247.431 308.133 247.97 308.133 248.645V252H307.308L307.253 251.021C307.099 251.329 306.871 251.593 306.571 251.813C306.277 252.026 305.881 252.132 305.383 252.132ZM305.526 251.351C305.878 251.351 306.178 251.259 306.428 251.076C306.684 250.893 306.879 250.654 307.011 250.361C307.143 250.068 307.209 249.76 307.209 249.437V249.426H305.812C305.269 249.426 304.884 249.521 304.657 249.712C304.437 249.895 304.327 250.126 304.327 250.405C304.327 250.691 304.429 250.922 304.635 251.098C304.847 251.267 305.144 251.351 305.526 251.351ZM309.952 254.42L311.305 251.472H310.986L308.819 246.544H309.82L311.624 250.79L313.538 246.544H314.495L310.92 254.42H309.952ZM317.407 252.132C316.887 252.132 316.425 252.015 316.021 251.78C315.618 251.538 315.299 251.204 315.064 250.779C314.837 250.354 314.723 249.851 314.723 249.272C314.723 248.7 314.837 248.201 315.064 247.776C315.292 247.343 315.607 247.01 316.01 246.775C316.421 246.533 316.894 246.412 317.429 246.412C317.957 246.412 318.412 246.533 318.793 246.775C319.182 247.01 319.479 247.321 319.684 247.71C319.89 248.099 319.992 248.517 319.992 248.964C319.992 249.045 319.989 249.125 319.981 249.206C319.981 249.287 319.981 249.378 319.981 249.481H315.636C315.658 249.899 315.754 250.247 315.922 250.526C316.098 250.797 316.315 251.003 316.571 251.142C316.835 251.281 317.114 251.351 317.407 251.351C317.789 251.351 318.108 251.263 318.364 251.087C318.621 250.911 318.808 250.673 318.925 250.372H319.838C319.692 250.878 319.409 251.3 318.991 251.637C318.581 251.967 318.053 252.132 317.407 252.132ZM317.407 247.193C316.967 247.193 316.575 247.329 316.23 247.6C315.893 247.864 315.699 248.253 315.647 248.766H319.079C319.057 248.275 318.889 247.89 318.573 247.611C318.258 247.332 317.869 247.193 317.407 247.193ZM321.217 252V246.544H322.053L322.13 247.589C322.299 247.23 322.555 246.944 322.9 246.731C323.245 246.518 323.67 246.412 324.176 246.412V247.38H323.923C323.6 247.38 323.303 247.439 323.032 247.556C322.761 247.666 322.544 247.857 322.383 248.128C322.222 248.399 322.141 248.773 322.141 249.25V252H321.217Z" fill="black"/>
<path d="M330.407 201.349C333.716 209.07 334.82 217.895 328.199 228.926C321.376 242.751 313.859 227.822 308.345 228.926C302.83 230.03 296.212 232.236 291.799 224.513C284.059 210.97 294.005 206.863 299.52 198.041C305.037 189.216 327.097 193.626 330.407 201.349Z" fill="#FFADAD"/>
<path fill-rule="evenodd" clip-rule="evenodd" d="M288.313 232.952C289.152 230.804 290.619 228.96 292.523 227.66C294.427 226.36 296.678 225.664 298.983 225.664H318.85C321.156 225.664 323.408 226.359 325.312 227.66C327.216 228.96 328.684 230.804 329.523 232.952L329.611 233.174C329.796 233.648 329.862 234.16 329.805 234.665C329.747 235.17 329.567 235.654 329.281 236.074C328.994 236.494 328.609 236.838 328.159 237.075C327.71 237.313 327.209 237.437 326.7 237.437H291.136C290.627 237.437 290.126 237.313 289.676 237.075C289.227 236.838 288.842 236.494 288.555 236.074C288.268 235.654 288.088 235.17 288.031 234.665C287.973 234.16 288.04 233.648 288.225 233.174L288.313 232.952ZM298.983 227.747C297.098 227.748 295.256 228.317 293.698 229.381C292.141 230.445 290.941 231.953 290.254 233.71L290.165 233.933C290.103 234.091 290.081 234.261 290.1 234.43C290.119 234.598 290.179 234.76 290.275 234.9C290.371 235.04 290.499 235.154 290.649 235.233C290.799 235.312 290.966 235.354 291.136 235.354H326.698C326.868 235.354 327.035 235.312 327.185 235.233C327.335 235.154 327.463 235.04 327.559 234.9C327.654 234.76 327.714 234.598 327.734 234.43C327.753 234.261 327.731 234.091 327.669 233.933L327.581 233.71C326.895 231.953 325.695 230.445 324.137 229.381C322.58 228.317 320.738 227.748 318.852 227.747H298.983Z" fill="black"/>
<path fill-rule="evenodd" clip-rule="evenodd" d="M302.162 226.345C302.235 226.145 302.369 225.972 302.544 225.851C302.719 225.729 302.927 225.664 303.141 225.664H314.693C314.906 225.664 315.113 225.73 315.288 225.852C315.462 225.974 315.595 226.146 315.668 226.346C315.742 226.545 315.752 226.763 315.699 226.969C315.645 227.175 315.53 227.359 315.368 227.497L310.943 231.268C310.378 231.75 309.659 232.014 308.917 232.014C308.174 232.014 307.456 231.75 306.891 231.268L302.464 227.497C302.302 227.359 302.186 227.175 302.132 226.969C302.078 226.763 302.088 226.545 302.162 226.345ZM305.97 227.747L308.241 229.681C308.429 229.841 308.668 229.929 308.916 229.929C309.163 229.929 309.402 229.841 309.591 229.681L311.862 227.747H305.97Z" fill="black"/>
<path fill-rule="evenodd" clip-rule="evenodd" d="M308.917 230.146C309.193 230.146 309.458 230.256 309.653 230.451C309.849 230.646 309.958 230.911 309.958 231.188V236.396C309.958 236.672 309.849 236.937 309.653 237.132C309.458 237.328 309.193 237.438 308.917 237.438C308.64 237.438 308.375 237.328 308.18 237.132C307.985 236.937 307.875 236.672 307.875 236.396V231.188C307.875 230.911 307.985 230.646 308.18 230.451C308.375 230.256 308.64 230.146 308.917 230.146ZM296.5 206.146C296.5 199.302 301.506 193.688 308.917 193.688C316.325 193.688 321.329 199.302 321.329 206.146C321.329 207 321.252 207.913 321.104 208.852C321.804 209.494 322.271 210.39 322.271 211.415C322.271 213.192 320.925 214.525 319.292 214.95C318.312 217.173 316.987 219.296 315.358 220.915C313.6 222.66 311.423 223.875 308.915 223.875C306.406 223.875 304.227 222.66 302.471 220.915C300.842 219.296 299.519 217.173 298.537 214.948C296.908 214.523 295.565 213.19 295.565 211.417C295.565 210.392 296.029 209.5 296.725 208.854C296.58 207.959 296.505 207.053 296.5 206.146ZM308.917 195.771C302.727 195.771 298.583 200.381 298.583 206.146C298.583 207.042 298.683 208.044 298.883 209.104C298.921 209.309 298.897 209.521 298.813 209.712C298.73 209.902 298.591 210.064 298.415 210.175C297.904 210.498 297.648 210.965 297.648 211.417C297.648 212.096 298.275 212.867 299.394 212.994C299.579 213.014 299.755 213.084 299.903 213.196C300.052 213.308 300.168 213.457 300.24 213.629C301.167 215.867 302.431 217.94 303.94 219.435C305.444 220.929 307.123 221.792 308.915 221.792C310.706 221.792 312.385 220.929 313.89 219.437C315.398 217.937 316.665 215.867 317.59 213.631C317.661 213.459 317.777 213.309 317.926 213.196C318.075 213.084 318.252 213.014 318.437 212.994C319.558 212.869 320.187 212.096 320.187 211.417C320.187 210.962 319.929 210.498 319.417 210.175C319.24 210.064 319.1 209.901 319.017 209.71C318.933 209.518 318.909 209.306 318.948 209.1C319.146 208.044 319.246 207.042 319.246 206.146C319.246 200.381 315.104 195.771 308.915 195.771H308.917Z" fill="black"/>
<path fill-rule="evenodd" clip-rule="evenodd" d="M308.812 201.444C308.882 201.437 308.953 201.437 309.023 201.444L318.448 202.408C318.775 202.417 319.087 202.494 319.371 202.625C319.552 202.484 319.775 202.407 320.004 202.406C320.234 202.405 320.457 202.48 320.64 202.619C320.822 202.758 320.954 202.953 321.014 203.175C321.074 203.396 321.06 203.631 320.973 203.844L320.733 204.431C321.458 207.413 319.4 210.452 316.281 210.698L315.156 210.788C315.1 210.792 315.045 210.792 314.989 210.788L308.916 210.308L302.843 210.788C302.789 210.792 302.734 210.792 302.679 210.788L301.554 210.698C298.429 210.452 296.373 207.406 297.104 204.421L296.875 203.827C296.793 203.616 296.783 203.384 296.845 203.166C296.907 202.948 297.038 202.756 297.219 202.62C297.4 202.483 297.621 202.41 297.847 202.41C298.074 202.41 298.294 202.484 298.475 202.621C298.754 202.492 299.062 202.417 299.385 202.408L308.812 201.444ZM308.916 203.527L299.552 204.485C299.517 204.489 299.482 204.491 299.448 204.492C299.389 204.493 299.333 204.514 299.287 204.55C299.241 204.586 299.207 204.635 299.191 204.692C298.581 206.567 299.862 208.475 301.716 208.621L302.762 208.704L308.835 208.225C308.89 208.221 308.945 208.221 309 208.225L315.073 208.704L316.118 208.621C317.973 208.475 319.252 206.565 318.641 204.692C318.626 204.636 318.592 204.586 318.547 204.55C318.501 204.514 318.445 204.494 318.387 204.492C318.352 204.491 318.318 204.489 318.283 204.485L308.916 203.527ZM325.583 193.688C325.583 192.859 325.912 192.064 326.498 191.478C327.084 190.892 327.879 190.562 328.708 190.562H331.833C332.662 190.562 333.457 190.892 334.043 191.478C334.629 192.064 334.958 192.859 334.958 193.688V210.875C334.958 212.118 334.464 213.31 333.585 214.19C332.706 215.069 331.514 215.562 330.271 215.562C329.027 215.562 327.835 215.069 326.956 214.19C326.077 213.31 325.583 212.118 325.583 210.875V193.688ZM328.708 192.646C328.432 192.646 328.167 192.756 327.971 192.951C327.776 193.146 327.666 193.411 327.666 193.688V210.875C327.666 211.566 327.941 212.228 328.429 212.716C328.917 213.205 329.58 213.479 330.271 213.479C330.961 213.479 331.624 213.205 332.112 212.716C332.6 212.228 332.875 211.566 332.875 210.875V193.688C332.875 193.411 332.765 193.146 332.57 192.951C332.374 192.756 332.109 192.646 331.833 192.646H328.708Z" fill="black"/>
<path fill-rule="evenodd" clip-rule="evenodd" d="M327.666 214.521C327.666 214.245 327.776 213.98 327.971 213.784C328.167 213.589 328.432 213.479 328.708 213.479H331.833C332.109 213.479 332.374 213.589 332.57 213.784C332.765 213.98 332.875 214.245 332.875 214.521V223.375C332.875 224.066 332.6 224.728 332.112 225.216C331.624 225.705 330.961 225.979 330.27 225.979C329.58 225.979 328.917 225.705 328.429 225.216C327.941 224.728 327.666 224.066 327.666 223.375V214.521ZM329.75 215.563V223.375C329.75 223.513 329.805 223.646 329.902 223.743C330 223.841 330.132 223.896 330.27 223.896C330.409 223.896 330.541 223.841 330.639 223.743C330.736 223.646 330.791 223.513 330.791 223.375V215.563H329.75ZM304.435 214.317C305.81 213.568 307.351 213.176 308.917 213.176C310.483 213.176 312.024 213.568 313.4 214.317L317.166 216.367C317.409 216.499 317.59 216.722 317.668 216.987C317.746 217.252 317.716 217.537 317.584 217.78C317.452 218.023 317.229 218.204 316.964 218.282C316.699 218.36 316.413 218.33 316.17 218.198L312.404 216.148C311.334 215.566 310.135 215.26 308.917 215.26C307.699 215.26 306.501 215.566 305.431 216.148L301.96 218.035C301.84 218.105 301.707 218.15 301.569 218.167C301.431 218.184 301.291 218.174 301.157 218.136C301.023 218.098 300.898 218.034 300.79 217.948C300.681 217.861 300.591 217.754 300.524 217.631C300.458 217.509 300.416 217.375 300.403 217.237C300.389 217.099 300.403 216.959 300.444 216.826C300.485 216.693 300.552 216.57 300.641 216.464C300.731 216.357 300.84 216.27 300.964 216.206L304.435 214.317Z" fill="black"/>
<path d="M174.618 155V148.059H172.319V147.3H177.841V148.059H175.542V155H174.618ZM180.412 155.132C179.899 155.132 179.437 155.015 179.026 154.78C178.615 154.545 178.289 154.215 178.047 153.79C177.812 153.357 177.695 152.851 177.695 152.272C177.695 151.693 177.816 151.19 178.058 150.765C178.3 150.332 178.626 149.999 179.037 149.764C179.455 149.529 179.921 149.412 180.434 149.412C180.947 149.412 181.409 149.529 181.82 149.764C182.231 149.999 182.553 150.332 182.788 150.765C183.03 151.19 183.151 151.693 183.151 152.272C183.151 152.851 183.03 153.357 182.788 153.79C182.546 154.215 182.216 154.545 181.798 154.78C181.387 155.015 180.925 155.132 180.412 155.132ZM180.412 154.34C180.727 154.34 181.021 154.263 181.292 154.109C181.563 153.955 181.783 153.724 181.952 153.416C182.121 153.108 182.205 152.727 182.205 152.272C182.205 151.817 182.121 151.436 181.952 151.128C181.791 150.82 181.574 150.589 181.303 150.435C181.032 150.281 180.742 150.204 180.434 150.204C180.119 150.204 179.825 150.281 179.554 150.435C179.283 150.589 179.063 150.82 178.894 151.128C178.725 151.436 178.641 151.817 178.641 152.272C178.641 152.727 178.725 153.108 178.894 153.416C179.063 153.724 179.279 153.955 179.543 154.109C179.814 154.263 180.104 154.34 180.412 154.34ZM186.427 155.132C185.781 155.132 185.268 154.938 184.887 154.549C184.505 154.153 184.315 153.548 184.315 152.734V149.544H185.239V152.635C185.239 153.772 185.704 154.34 186.636 154.34C187.112 154.34 187.505 154.171 187.813 153.834C188.128 153.489 188.286 153.002 188.286 152.371V149.544H189.21V155H188.374L188.308 154.021C188.139 154.366 187.886 154.637 187.549 154.835C187.219 155.033 186.845 155.132 186.427 155.132ZM190.731 155V149.544H191.567L191.644 150.589C191.812 150.23 192.069 149.944 192.414 149.731C192.758 149.518 193.184 149.412 193.69 149.412V150.38H193.437C193.114 150.38 192.817 150.439 192.546 150.556C192.274 150.666 192.058 150.857 191.897 151.128C191.735 151.399 191.655 151.773 191.655 152.25V155H190.731ZM194.727 155V149.544H195.563L195.618 150.523C195.794 150.178 196.047 149.907 196.377 149.709C196.707 149.511 197.081 149.412 197.499 149.412C198.144 149.412 198.657 149.61 199.039 150.006C199.427 150.395 199.622 150.996 199.622 151.81V155H198.698V151.909C198.698 150.772 198.228 150.204 197.29 150.204C196.82 150.204 196.428 150.376 196.113 150.721C195.805 151.058 195.651 151.542 195.651 152.173V155H194.727ZM202.837 155.132C202.382 155.132 202.004 155.055 201.704 154.901C201.403 154.747 201.179 154.542 201.033 154.285C200.886 154.028 200.813 153.75 200.813 153.449C200.813 152.892 201.025 152.463 201.451 152.162C201.876 151.861 202.455 151.711 203.189 151.711H204.663V151.645C204.663 151.168 204.538 150.809 204.289 150.567C204.039 150.318 203.706 150.193 203.288 150.193C202.928 150.193 202.617 150.285 202.353 150.468C202.096 150.644 201.935 150.904 201.869 151.249H200.923C200.959 150.853 201.091 150.519 201.319 150.248C201.553 149.977 201.843 149.771 202.188 149.632C202.532 149.485 202.899 149.412 203.288 149.412C204.05 149.412 204.622 149.617 205.004 150.028C205.392 150.431 205.587 150.97 205.587 151.645V155H204.762L204.707 154.021C204.553 154.329 204.325 154.593 204.025 154.813C203.731 155.026 203.335 155.132 202.837 155.132ZM202.98 154.351C203.332 154.351 203.632 154.259 203.882 154.076C204.138 153.893 204.333 153.654 204.465 153.361C204.597 153.068 204.663 152.76 204.663 152.437V152.426H203.266C202.723 152.426 202.338 152.521 202.111 152.712C201.891 152.895 201.781 153.126 201.781 153.405C201.781 153.691 201.883 153.922 202.089 154.098C202.301 154.267 202.598 154.351 202.98 154.351ZM206.973 155V149.544H207.809L207.875 150.336C208.051 150.043 208.286 149.815 208.579 149.654C208.872 149.493 209.202 149.412 209.569 149.412C210.002 149.412 210.372 149.5 210.68 149.676C210.995 149.852 211.237 150.12 211.406 150.479C211.597 150.149 211.857 149.889 212.187 149.698C212.524 149.507 212.887 149.412 213.276 149.412C213.929 149.412 214.449 149.61 214.838 150.006C215.227 150.395 215.421 150.996 215.421 151.81V155H214.508V151.909C214.508 151.344 214.394 150.919 214.167 150.633C213.94 150.347 213.613 150.204 213.188 150.204C212.748 150.204 212.381 150.376 212.088 150.721C211.802 151.058 211.659 151.542 211.659 152.173V155H210.735V151.909C210.735 151.344 210.621 150.919 210.394 150.633C210.167 150.347 209.84 150.204 209.415 150.204C208.982 150.204 208.619 150.376 208.326 150.721C208.04 151.058 207.897 151.542 207.897 152.173V155H206.973ZM219.266 155.132C218.745 155.132 218.283 155.015 217.88 154.78C217.476 154.538 217.157 154.204 216.923 153.779C216.695 153.354 216.582 152.851 216.582 152.272C216.582 151.7 216.695 151.201 216.923 150.776C217.15 150.343 217.465 150.01 217.869 149.775C218.279 149.533 218.752 149.412 219.288 149.412C219.816 149.412 220.27 149.533 220.652 149.775C221.04 150.01 221.337 150.321 221.543 150.71C221.748 151.099 221.851 151.517 221.851 151.964C221.851 152.045 221.847 152.125 221.84 152.206C221.84 152.287 221.84 152.378 221.84 152.481H217.495C217.517 152.899 217.612 153.247 217.781 153.526C217.957 153.797 218.173 154.003 218.43 154.142C218.694 154.281 218.972 154.351 219.266 154.351C219.647 154.351 219.966 154.263 220.223 154.087C220.479 153.911 220.666 153.673 220.784 153.372H221.697C221.55 153.878 221.268 154.3 220.85 154.637C220.439 154.967 219.911 155.132 219.266 155.132ZM219.266 150.193C218.826 150.193 218.433 150.329 218.089 150.6C217.751 150.864 217.557 151.253 217.506 151.766H220.938C220.916 151.275 220.747 150.89 220.432 150.611C220.116 150.332 219.728 150.193 219.266 150.193ZM223.075 155V149.544H223.911L223.966 150.523C224.142 150.178 224.395 149.907 224.725 149.709C225.055 149.511 225.429 149.412 225.847 149.412C226.493 149.412 227.006 149.61 227.387 150.006C227.776 150.395 227.97 150.996 227.97 151.81V155H227.046V151.909C227.046 150.772 226.577 150.204 225.638 150.204C225.169 150.204 224.777 150.376 224.461 150.721C224.153 151.058 223.999 151.542 223.999 152.173V155H223.075ZM231.526 155C231.028 155 230.635 154.879 230.349 154.637C230.063 154.395 229.92 153.959 229.92 153.328V150.325H228.974V149.544H229.92L230.041 148.235H230.844V149.544H232.45V150.325H230.844V153.328C230.844 153.673 230.914 153.907 231.053 154.032C231.193 154.149 231.438 154.208 231.79 154.208H232.362V155H231.526Z" fill="black"/>
<path d="M203.568 101.166C195.359 103.904 190.515 102.372 187.505 101.166C177.463 97.1536 176.459 132.291 192.522 135.302C208.584 138.314 220.632 122.252 221.636 113.218C222.638 104.181 219.628 101.17 216.615 99.162C213.605 97.1536 209.588 99.162 203.565 101.17L203.568 101.166Z" fill="#9BF6FF"/>
<path fill-rule="evenodd" clip-rule="evenodd" d="M180.448 107.108C179.369 107.806 179.126 108.356 179.126 108.667C179.126 108.979 179.369 109.527 180.448 110.225C181.482 110.892 183.044 111.529 185.069 112.079C189.105 113.183 194.736 113.875 201.001 113.875C207.263 113.875 212.896 113.181 216.932 112.081C218.957 111.529 220.519 110.89 221.553 110.225C222.632 109.527 222.876 108.977 222.876 108.667C222.876 108.354 222.632 107.806 221.553 107.108C220.519 106.442 218.957 105.804 216.932 105.254C212.896 104.148 207.265 103.458 201.001 103.458C194.738 103.458 189.105 104.152 185.069 105.252C183.044 105.804 181.482 106.444 180.448 107.108ZM184.521 103.242C188.782 102.083 194.607 101.375 201.001 101.375C207.394 101.375 213.219 102.081 217.48 103.242C219.601 103.821 221.394 104.529 222.682 105.358C223.921 106.158 224.959 107.252 224.959 108.667C224.959 110.081 223.921 111.175 222.682 111.975C221.394 112.804 219.601 113.513 217.48 114.092C213.219 115.252 207.394 115.958 201.001 115.958C194.607 115.958 188.782 115.252 184.521 114.092C182.401 113.513 180.607 112.804 179.319 111.975C178.08 111.175 177.042 110.081 177.042 108.667C177.042 107.252 178.08 106.158 179.319 105.358C180.607 104.529 182.401 103.821 184.521 103.242Z" fill="black"/>
<path fill-rule="evenodd" clip-rule="evenodd" d="M201.001 109.708C192.865 109.708 185.84 110.877 181.98 112.558C181.854 112.613 181.719 112.642 181.583 112.645C181.446 112.647 181.31 112.623 181.183 112.572C180.926 112.471 180.719 112.272 180.609 112.019C180.499 111.765 180.494 111.479 180.595 111.222C180.696 110.965 180.895 110.758 181.149 110.648C185.39 108.802 192.746 107.625 201.003 107.625C209.255 107.625 216.611 108.802 220.853 110.648C220.978 110.703 221.092 110.782 221.187 110.88C221.281 110.979 221.356 111.095 221.406 111.222C221.456 111.35 221.481 111.486 221.478 111.623C221.475 111.759 221.446 111.894 221.391 112.02C221.337 112.145 221.258 112.259 221.159 112.354C221.061 112.449 220.944 112.523 220.817 112.573C220.689 112.623 220.553 112.648 220.417 112.645C220.28 112.643 220.145 112.613 220.019 112.558C216.163 110.877 209.138 109.708 201.001 109.708ZM182.786 129.721C182.827 129.59 182.893 129.469 182.98 129.364C183.068 129.259 183.175 129.172 183.296 129.108C183.417 129.044 183.55 129.005 183.686 128.993C183.822 128.98 183.96 128.995 184.09 129.035C187.694 130.154 192.853 130.923 198.715 131.083C198.852 131.087 198.987 131.118 199.112 131.173C199.237 131.229 199.349 131.309 199.444 131.408C199.538 131.508 199.611 131.625 199.66 131.752C199.709 131.88 199.732 132.016 199.729 132.153C199.725 132.29 199.694 132.425 199.639 132.55C199.583 132.675 199.503 132.787 199.404 132.881C199.304 132.976 199.188 133.049 199.06 133.098C198.932 133.147 198.796 133.17 198.659 133.167C192.674 133.002 187.313 132.217 183.471 131.025C183.341 130.984 183.219 130.918 183.114 130.831C183.009 130.743 182.922 130.636 182.859 130.515C182.795 130.394 182.756 130.261 182.743 130.125C182.731 129.989 182.745 129.851 182.786 129.721ZM219.215 129.721C219.256 129.852 219.27 129.989 219.258 130.125C219.245 130.262 219.206 130.394 219.142 130.515C219.078 130.637 218.991 130.744 218.886 130.831C218.78 130.919 218.659 130.985 218.528 131.025C214.688 132.217 209.328 133.004 203.342 133.167C203.206 133.17 203.069 133.147 202.942 133.098C202.814 133.049 202.697 132.976 202.597 132.881C202.498 132.787 202.418 132.675 202.363 132.55C202.307 132.425 202.276 132.29 202.273 132.153C202.269 132.016 202.292 131.88 202.341 131.752C202.39 131.625 202.464 131.508 202.558 131.408C202.652 131.309 202.765 131.229 202.89 131.173C203.015 131.118 203.149 131.087 203.286 131.083C209.151 130.923 214.307 130.154 217.911 129.035C218.042 128.995 218.179 128.98 218.316 128.993C218.452 129.006 218.585 129.045 218.706 129.109C218.827 129.173 218.934 129.26 219.022 129.365C219.109 129.47 219.175 129.59 219.215 129.721Z" fill="black"/>
<path fill-rule="evenodd" clip-rule="evenodd" d="M177.831 107.656C178.099 107.589 178.383 107.632 178.619 107.774C178.856 107.916 179.027 108.146 179.094 108.414L185.344 133.414C185.364 133.497 185.375 133.581 185.375 133.666C185.375 134.125 185.619 134.687 186.333 135.32C187.048 135.954 188.142 136.57 189.581 137.112C192.452 138.187 196.49 138.875 201 138.875C205.51 138.875 209.548 138.187 212.419 137.11C213.858 136.57 214.952 135.954 215.667 135.318C216.381 134.685 216.625 134.125 216.625 133.666C216.625 133.583 216.635 133.495 216.656 133.414L222.906 108.414C222.978 108.152 223.15 107.928 223.385 107.791C223.62 107.653 223.899 107.613 224.163 107.679C224.427 107.745 224.655 107.911 224.798 108.143C224.94 108.375 224.987 108.653 224.927 108.918L218.708 133.806C218.66 135.014 217.985 136.05 217.05 136.879C216.077 137.741 214.729 138.47 213.154 139.062C209.994 140.245 205.696 140.958 201.002 140.958C196.308 140.958 192.012 140.245 188.852 139.062C187.275 138.47 185.927 137.741 184.956 136.879C184.019 136.05 183.346 135.014 183.296 133.806L177.073 108.918C177.006 108.65 177.048 108.367 177.191 108.13C177.333 107.893 177.563 107.723 177.831 107.656Z" fill="black"/>
<path fill-rule="evenodd" clip-rule="evenodd" d="M196.833 135.878C196.674 135.245 196.662 134.584 196.797 133.945C196.932 133.305 197.211 132.706 197.613 132.191C198.015 131.676 198.528 131.259 199.115 130.973C199.702 130.686 200.347 130.537 201 130.537C201.653 130.537 202.298 130.686 202.885 130.973C203.471 131.259 203.985 131.676 204.387 132.191C204.789 132.706 205.068 133.305 205.203 133.945C205.338 134.584 205.326 135.245 205.167 135.878L204.094 140.17C204.037 140.395 203.907 140.595 203.724 140.738C203.541 140.88 203.315 140.958 203.083 140.958H198.917C198.684 140.958 198.459 140.88 198.275 140.737C198.092 140.594 197.962 140.393 197.906 140.168L196.833 135.878ZM201 132.624C199.562 132.624 198.506 133.976 198.854 135.372L199.729 138.874H202.271L203.146 135.372C203.227 135.046 203.233 134.706 203.163 134.377C203.093 134.048 202.95 133.74 202.743 133.475C202.536 133.21 202.272 132.996 201.97 132.849C201.668 132.701 201.336 132.624 201 132.624Z" fill="black"/>
<path fill-rule="evenodd" clip-rule="evenodd" d="M201 113.874C201.277 113.874 201.542 113.984 201.737 114.179C201.932 114.375 202.042 114.64 202.042 114.916V131.583C202.042 131.859 201.932 132.124 201.737 132.319C201.542 132.515 201.277 132.624 201 132.624C200.724 132.624 200.459 132.515 200.264 132.319C200.068 132.124 199.959 131.859 199.959 131.583V114.916C199.959 114.64 200.068 114.375 200.264 114.179C200.459 113.984 200.724 113.874 201 113.874ZM188.5 113.874C188.777 113.874 189.042 113.984 189.237 114.179C189.432 114.375 189.542 114.64 189.542 114.916V130.541C189.542 130.817 189.432 131.082 189.237 131.278C189.042 131.473 188.777 131.583 188.5 131.583C188.224 131.583 187.959 131.473 187.764 131.278C187.568 131.082 187.459 130.817 187.459 130.541V114.916C187.459 114.64 187.568 114.375 187.764 114.179C187.959 113.984 188.224 113.874 188.5 113.874ZM213.5 113.874C213.777 113.874 214.042 113.984 214.237 114.179C214.432 114.375 214.542 114.64 214.542 114.916V130.541C214.542 130.817 214.432 131.082 214.237 131.278C214.042 131.473 213.777 131.583 213.5 131.583C213.224 131.583 212.959 131.473 212.764 131.278C212.568 131.082 212.459 130.817 212.459 130.541V114.916C212.459 114.64 212.568 114.375 212.764 114.179C212.959 113.984 213.224 113.874 213.5 113.874ZM197.875 94.0827C197.875 93.8064 197.985 93.5415 198.18 93.3461C198.376 93.1508 198.641 93.041 198.917 93.041H205.167C205.443 93.041 205.708 93.1508 205.904 93.3461C206.099 93.5415 206.209 93.8064 206.209 94.0827V98.2493C206.209 98.5256 206.099 98.7906 205.904 98.9859C205.708 99.1813 205.443 99.291 205.167 99.291H199.959V102.416C199.959 102.692 199.849 102.957 199.654 103.153C199.458 103.348 199.193 103.458 198.917 103.458C198.641 103.458 198.376 103.348 198.18 103.153C197.985 102.957 197.875 102.692 197.875 102.416V94.0827ZM199.959 97.2077H204.125V95.1243H199.959V97.2077ZM183.292 94.0827C183.292 93.8064 183.402 93.5415 183.597 93.3461C183.792 93.1508 184.057 93.041 184.334 93.041H190.584C190.86 93.041 191.125 93.1508 191.32 93.3461C191.516 93.5415 191.625 93.8064 191.625 94.0827V98.2493C191.625 98.5256 191.516 98.7906 191.32 98.9859C191.125 99.1813 190.86 99.291 190.584 99.291H185.375V103.458C185.375 103.734 185.266 103.999 185.07 104.194C184.875 104.39 184.61 104.499 184.334 104.499C184.057 104.499 183.792 104.39 183.597 104.194C183.402 103.999 183.292 103.734 183.292 103.458V94.0827ZM185.375 97.2077H189.542V95.1243H185.375V97.2077ZM212.459 94.0827C212.459 93.8064 212.568 93.5415 212.764 93.3461C212.959 93.1508 213.224 93.041 213.5 93.041H219.75C220.027 93.041 220.292 93.1508 220.487 93.3461C220.682 93.5415 220.792 93.8064 220.792 94.0827V98.2493C220.792 98.5256 220.682 98.7906 220.487 98.9859C220.292 99.1813 220.027 99.291 219.75 99.291H214.542V102.416C214.542 102.692 214.432 102.957 214.237 103.153C214.042 103.348 213.777 103.458 213.5 103.458C213.224 103.458 212.959 103.348 212.764 103.153C212.568 102.957 212.459 102.692 212.459 102.416V94.0827ZM214.542 97.2077H218.709V95.1243H214.542V97.2077Z" fill="black"/>
<path d="M91.814 252V244.3H92.892L95.664 249.668L98.414 244.3H99.503V252H98.579V245.95L96.005 250.9H95.312L92.738 245.961V252H91.814ZM102.887 252.132C102.433 252.132 102.055 252.055 101.754 251.901C101.454 251.747 101.23 251.542 101.083 251.285C100.937 251.028 100.863 250.75 100.863 250.449C100.863 249.892 101.076 249.463 101.501 249.162C101.927 248.861 102.506 248.711 103.239 248.711H104.713V248.645C104.713 248.168 104.589 247.809 104.339 247.567C104.09 247.318 103.756 247.193 103.338 247.193C102.979 247.193 102.667 247.285 102.403 247.468C102.147 247.644 101.985 247.904 101.919 248.249H100.973C101.01 247.853 101.142 247.519 101.369 247.248C101.604 246.977 101.894 246.771 102.238 246.632C102.583 246.485 102.95 246.412 103.338 246.412C104.101 246.412 104.673 246.617 105.054 247.028C105.443 247.431 105.637 247.97 105.637 248.645V252H104.812L104.757 251.021C104.603 251.329 104.376 251.593 104.075 251.813C103.782 252.026 103.386 252.132 102.887 252.132ZM103.03 251.351C103.382 251.351 103.683 251.259 103.932 251.076C104.189 250.893 104.383 250.654 104.515 250.361C104.647 250.068 104.713 249.76 104.713 249.437V249.426H103.316C102.774 249.426 102.389 249.521 102.161 249.712C101.941 249.895 101.831 250.126 101.831 250.405C101.831 250.691 101.934 250.922 102.139 251.098C102.352 251.267 102.649 251.351 103.03 251.351ZM109.029 252C108.531 252 108.138 251.879 107.852 251.637C107.566 251.395 107.423 250.959 107.423 250.328V247.325H106.477V246.544H107.423L107.544 245.235H108.347V246.544H109.953V247.325H108.347V250.328C108.347 250.673 108.417 250.907 108.556 251.032C108.696 251.149 108.941 251.208 109.293 251.208H109.865V252H109.029ZM113.485 252.132C112.964 252.132 112.495 252.015 112.077 251.78C111.666 251.538 111.34 251.204 111.098 250.779C110.863 250.346 110.746 249.844 110.746 249.272C110.746 248.7 110.863 248.201 111.098 247.776C111.34 247.343 111.666 247.01 112.077 246.775C112.495 246.533 112.964 246.412 113.485 246.412C114.13 246.412 114.673 246.581 115.113 246.918C115.56 247.255 115.842 247.706 115.96 248.271H115.014C114.94 247.934 114.761 247.673 114.475 247.49C114.189 247.299 113.855 247.204 113.474 247.204C113.166 247.204 112.876 247.281 112.605 247.435C112.333 247.589 112.113 247.82 111.945 248.128C111.776 248.436 111.692 248.817 111.692 249.272C111.692 249.727 111.776 250.108 111.945 250.416C112.113 250.724 112.333 250.959 112.605 251.12C112.876 251.274 113.166 251.351 113.474 251.351C113.855 251.351 114.189 251.259 114.475 251.076C114.761 250.885 114.94 250.618 115.014 250.273H115.96C115.85 250.823 115.571 251.27 115.124 251.615C114.676 251.96 114.13 252.132 113.485 252.132ZM117.25 252V244.08H118.174V247.479C118.358 247.142 118.618 246.881 118.955 246.698C119.293 246.507 119.659 246.412 120.055 246.412C120.686 246.412 121.192 246.61 121.573 247.006C121.955 247.395 122.145 247.996 122.145 248.81V252H121.232V248.909C121.232 247.772 120.774 247.204 119.857 247.204C119.381 247.204 118.981 247.376 118.658 247.721C118.336 248.058 118.174 248.542 118.174 249.173V252H117.25Z" fill="black"/>
<path d="M91.1672 211.433C93.9047 219.642 92.3735 224.485 91.1672 227.496C87.1526 237.537 122.29 238.539 125.301 222.477C128.313 206.414 112.251 194.367 103.217 193.362C94.1797 192.36 91.1693 195.371 89.161 198.383C87.1526 201.396 89.1589 205.41 91.1672 211.433Z" fill="#CAFFBF"/>
<path fill-rule="evenodd" clip-rule="evenodd" d="M118.322 196.848C118.517 196.653 118.782 196.543 119.059 196.543C119.335 196.543 119.6 196.653 119.795 196.848L127.162 204.213C127.259 204.309 127.336 204.424 127.388 204.551C127.441 204.677 127.468 204.813 127.468 204.95C127.468 205.087 127.441 205.223 127.388 205.349C127.336 205.476 127.259 205.591 127.162 205.688L107.433 225.417C107.246 225.603 106.995 225.712 106.73 225.721L102.153 225.879C102.011 225.884 101.869 225.859 101.736 225.806C101.604 225.753 101.483 225.674 101.383 225.573L98.4346 222.627C98.3339 222.526 98.2549 222.406 98.2026 222.273C98.1503 222.141 98.1257 221.999 98.1305 221.856L98.2888 217.277C98.298 217.014 98.4067 216.764 98.593 216.577L118.322 196.848ZM119.06 199.056L100.353 217.763L100.226 221.477L102.533 223.783L106.247 223.654L124.949 204.952L119.058 199.06L119.06 199.056Z" fill="black"/>
<path fill-rule="evenodd" clip-rule="evenodd" d="M102.119 213.057C102.315 212.862 102.58 212.752 102.856 212.752C103.132 212.752 103.397 212.862 103.592 213.057L110.957 220.424C111.152 220.619 111.262 220.884 111.262 221.16C111.262 221.436 111.152 221.701 110.957 221.897L107.276 225.58C107.179 225.677 107.064 225.753 106.937 225.805C106.811 225.858 106.675 225.884 106.538 225.884H102.119C101.982 225.884 101.847 225.858 101.72 225.805C101.594 225.753 101.479 225.677 101.382 225.58L98.4381 222.632C98.2426 222.437 98.1324 222.173 98.1318 221.897V217.478C98.1319 217.341 98.1589 217.205 98.2115 217.079C98.264 216.952 98.341 216.837 98.4381 216.74L102.121 213.057H102.119ZM102.855 215.265L100.213 217.909V221.465L102.551 223.801H106.107L108.749 221.159L102.855 215.267V215.265Z" fill="black"/>
<path fill-rule="evenodd" clip-rule="evenodd" d="M98.4375 221.157C98.6328 220.963 98.8972 220.853 99.1729 220.853C99.4486 220.853 99.7131 220.963 99.9084 221.157L102.854 224.103C103.049 224.299 103.159 224.563 103.159 224.84C103.159 225.116 103.049 225.381 102.854 225.576L96.2292 232.205L96.9646 232.943C97.0641 233.039 97.1435 233.154 97.198 233.281C97.2526 233.408 97.2814 233.545 97.2826 233.683C97.2838 233.821 97.2574 233.959 97.205 234.087C97.1527 234.215 97.0753 234.331 96.9775 234.429C96.8797 234.526 96.7634 234.604 96.6354 234.656C96.5074 234.709 96.3702 234.735 96.2319 234.734C96.0936 234.733 95.9569 234.704 95.8298 234.649C95.7027 234.595 95.5878 234.515 95.4917 234.416L89.6 228.524C89.4103 228.328 89.3053 228.064 89.3077 227.791C89.31 227.518 89.4196 227.257 89.6127 227.064C89.8058 226.871 90.0671 226.761 90.3402 226.759C90.6134 226.756 90.8765 226.861 91.0729 227.051L91.8084 227.787L98.4375 221.157ZM93.2792 229.262L94.7521 230.732L100.646 224.841L99.1729 223.368L93.2792 229.259V229.262ZM102.119 196.851C101.831 196.553 101.486 196.315 101.104 196.151C100.723 195.987 100.313 195.901 99.8982 195.897C99.4832 195.894 99.0717 195.973 98.6877 196.13C98.3036 196.287 97.9547 196.519 97.6613 196.812C97.3679 197.106 97.1358 197.455 96.9787 197.839C96.8216 198.223 96.7425 198.634 96.7461 199.049C96.7497 199.464 96.8359 199.874 96.9997 200.256C97.1635 200.637 97.4016 200.982 97.7 201.27C98.2913 201.829 99.0774 202.135 99.8911 202.124C100.705 202.112 101.482 201.784 102.057 201.208C102.632 200.633 102.96 199.855 102.972 199.042C102.983 198.228 102.678 197.442 102.119 196.851ZM96.225 195.376C96.7078 194.889 97.2821 194.502 97.9149 194.237C98.5476 193.973 99.2265 193.836 99.9123 193.834C100.598 193.832 101.278 193.966 101.912 194.228C102.546 194.49 103.122 194.874 103.607 195.359C104.092 195.844 104.476 196.42 104.738 197.054C105 197.688 105.134 198.367 105.133 199.053C105.131 199.739 104.995 200.418 104.73 201.051C104.466 201.683 104.079 202.258 103.592 202.741C102.614 203.711 101.291 204.253 99.9138 204.251C98.5364 204.248 97.2162 203.7 96.2421 202.726C95.2681 201.752 94.7194 200.432 94.7162 199.054C94.7129 197.677 95.2555 196.354 96.225 195.376Z" fill="black"/>
<path d="M191.618 330V323.059H189.319V322.3H194.841V323.059H192.542V330H191.618ZM197.379 330.132C196.858 330.132 196.396 330.015 195.993 329.78C195.59 329.538 195.271 329.204 195.036 328.779C194.809 328.354 194.695 327.851 194.695 327.272C194.695 326.7 194.809 326.201 195.036 325.776C195.263 325.343 195.579 325.01 195.982 324.775C196.393 324.533 196.866 324.412 197.401 324.412C197.929 324.412 198.384 324.533 198.765 324.775C199.154 325.01 199.451 325.321 199.656 325.71C199.861 326.099 199.964 326.517 199.964 326.964C199.964 327.045 199.96 327.125 199.953 327.206C199.953 327.287 199.953 327.378 199.953 327.481H195.608C195.63 327.899 195.725 328.247 195.894 328.526C196.07 328.797 196.286 329.003 196.543 329.142C196.807 329.281 197.086 329.351 197.379 329.351C197.76 329.351 198.079 329.263 198.336 329.087C198.593 328.911 198.78 328.673 198.897 328.372H199.81C199.663 328.878 199.381 329.3 198.963 329.637C198.552 329.967 198.024 330.132 197.379 330.132ZM197.379 325.193C196.939 325.193 196.547 325.329 196.202 325.6C195.865 325.864 195.67 326.253 195.619 326.766H199.051C199.029 326.275 198.86 325.89 198.545 325.611C198.23 325.332 197.841 325.193 197.379 325.193ZM203.004 330.132C202.549 330.132 202.171 330.055 201.871 329.901C201.57 329.747 201.346 329.542 201.2 329.285C201.053 329.028 200.98 328.75 200.98 328.449C200.98 327.892 201.192 327.463 201.618 327.162C202.043 326.861 202.622 326.711 203.356 326.711H204.83V326.645C204.83 326.168 204.705 325.809 204.456 325.567C204.206 325.318 203.873 325.193 203.455 325.193C203.095 325.193 202.784 325.285 202.52 325.468C202.263 325.644 202.102 325.904 202.036 326.249H201.09C201.126 325.853 201.258 325.519 201.486 325.248C201.72 324.977 202.01 324.771 202.355 324.632C202.699 324.485 203.066 324.412 203.455 324.412C204.217 324.412 204.789 324.617 205.171 325.028C205.559 325.431 205.754 325.97 205.754 326.645V330H204.929L204.874 329.021C204.72 329.329 204.492 329.593 204.192 329.813C203.898 330.026 203.502 330.132 203.004 330.132ZM203.147 329.351C203.499 329.351 203.799 329.259 204.049 329.076C204.305 328.893 204.5 328.654 204.632 328.361C204.764 328.068 204.83 327.76 204.83 327.437V327.426H203.433C202.89 327.426 202.505 327.521 202.278 327.712C202.058 327.895 201.948 328.126 201.948 328.405C201.948 328.691 202.05 328.922 202.256 329.098C202.468 329.267 202.765 329.351 203.147 329.351ZM207.14 330V324.544H207.976L208.042 325.336C208.218 325.043 208.453 324.815 208.746 324.654C209.039 324.493 209.369 324.412 209.736 324.412C210.169 324.412 210.539 324.5 210.847 324.676C211.162 324.852 211.404 325.12 211.573 325.479C211.764 325.149 212.024 324.889 212.354 324.698C212.691 324.507 213.054 324.412 213.443 324.412C214.096 324.412 214.616 324.61 215.005 325.006C215.394 325.395 215.588 325.996 215.588 326.81V330H214.675V326.909C214.675 326.344 214.561 325.919 214.334 325.633C214.107 325.347 213.78 325.204 213.355 325.204C212.915 325.204 212.548 325.376 212.255 325.721C211.969 326.058 211.826 326.542 211.826 327.173V330H210.902V326.909C210.902 326.344 210.788 325.919 210.561 325.633C210.334 325.347 210.007 325.204 209.582 325.204C209.149 325.204 208.786 325.376 208.493 325.721C208.207 326.058 208.064 326.542 208.064 327.173V330H207.14Z" fill="black"/>
<path d="M183.48 296.437C180.921 302.41 183.48 308.168 187.746 310.302C200.053 316.454 211.205 310.302 218.384 303.468C225.03 297.145 225.848 278.943 217.317 273.612C208.788 268.279 193.859 271.91 193.859 282.141C193.859 291.108 186.68 288.972 183.48 296.437Z" fill="#BDB2FF"/>
<path fill-rule="evenodd" clip-rule="evenodd" d="M179.042 305.542C179.042 305.265 179.152 305 179.347 304.805C179.543 304.61 179.808 304.5 180.084 304.5H225.917C226.194 304.5 226.458 304.61 226.654 304.805C226.849 305 226.959 305.265 226.959 305.542C226.959 305.818 226.849 306.083 226.654 306.278C226.458 306.474 226.194 306.583 225.917 306.583H180.084C179.808 306.583 179.543 306.474 179.347 306.278C179.152 306.083 179.042 305.818 179.042 305.542Z" fill="black"/>
<path fill-rule="evenodd" clip-rule="evenodd" d="M179.042 280.541C179.042 279.712 179.371 278.917 179.957 278.331C180.543 277.745 181.338 277.416 182.167 277.416H188.417C189.246 277.416 190.041 277.745 190.627 278.331C191.213 278.917 191.542 279.712 191.542 280.541V290.958C191.542 291.234 191.432 291.499 191.237 291.694C191.042 291.89 190.777 291.999 190.5 291.999H180.084C179.807 291.999 179.542 291.89 179.347 291.694C179.152 291.499 179.042 291.234 179.042 290.958V280.541ZM182.167 279.499C181.891 279.499 181.626 279.609 181.43 279.804C181.235 280 181.125 280.265 181.125 280.541V289.916H189.459V280.541C189.459 280.265 189.349 280 189.154 279.804C188.958 279.609 188.693 279.499 188.417 279.499H182.167ZM214.459 280.541C214.459 279.712 214.788 278.917 215.374 278.331C215.96 277.745 216.755 277.416 217.584 277.416H223.834C224.662 277.416 225.457 277.745 226.043 278.331C226.629 278.917 226.959 279.712 226.959 280.541V290.958C226.959 291.234 226.849 291.499 226.654 291.694C226.458 291.89 226.193 291.999 225.917 291.999H215.5C215.224 291.999 214.959 291.89 214.764 291.694C214.568 291.499 214.459 291.234 214.459 290.958V280.541ZM217.584 279.499C217.307 279.499 217.042 279.609 216.847 279.804C216.652 280 216.542 280.265 216.542 280.541V289.916H224.875V280.541C224.875 280.265 224.766 280 224.57 279.804C224.375 279.609 224.11 279.499 223.834 279.499H217.584ZM196.75 280.541C196.75 279.712 197.08 278.917 197.666 278.331C198.252 277.745 199.047 277.416 199.875 277.416H206.125C206.954 277.416 207.749 277.745 208.335 278.331C208.921 278.917 209.25 279.712 209.25 280.541V290.958C209.25 291.234 209.141 291.499 208.945 291.694C208.75 291.89 208.485 291.999 208.209 291.999H197.792C197.516 291.999 197.251 291.89 197.055 291.694C196.86 291.499 196.75 291.234 196.75 290.958V280.541ZM199.875 279.499C199.599 279.499 199.334 279.609 199.139 279.804C198.943 280 198.834 280.265 198.834 280.541V289.916H207.167V280.541C207.167 280.265 207.057 280 206.862 279.804C206.667 279.609 206.402 279.499 206.125 279.499H199.875ZM179.042 297.208C179.042 296.931 179.152 296.666 179.347 296.471C179.542 296.276 179.807 296.166 180.084 296.166H190.5C190.777 296.166 191.042 296.276 191.237 296.471C191.432 296.666 191.542 296.931 191.542 297.208C191.542 297.484 191.432 297.749 191.237 297.944C191.042 298.14 190.777 298.249 190.5 298.249H186.334V305.541C186.334 305.817 186.224 306.082 186.029 306.278C185.833 306.473 185.568 306.583 185.292 306.583C185.016 306.583 184.751 306.473 184.555 306.278C184.36 306.082 184.25 305.817 184.25 305.541V298.249H180.084C179.807 298.249 179.542 298.14 179.347 297.944C179.152 297.749 179.042 297.484 179.042 297.208ZM214.459 297.208C214.459 296.931 214.568 296.666 214.764 296.471C214.959 296.276 215.224 296.166 215.5 296.166H225.917C226.193 296.166 226.458 296.276 226.654 296.471C226.849 296.666 226.959 296.931 226.959 297.208C226.959 297.484 226.849 297.749 226.654 297.944C226.458 298.14 226.193 298.249 225.917 298.249H221.75V305.541C221.75 305.817 221.641 306.082 221.445 306.278C221.25 306.473 220.985 306.583 220.709 306.583C220.432 306.583 220.167 306.473 219.972 306.278C219.777 306.082 219.667 305.817 219.667 305.541V298.249H215.5C215.224 298.249 214.959 298.14 214.764 297.944C214.568 297.749 214.459 297.484 214.459 297.208ZM196.75 297.208C196.75 296.931 196.86 296.666 197.055 296.471C197.251 296.276 197.516 296.166 197.792 296.166H208.209C208.485 296.166 208.75 296.276 208.945 296.471C209.141 296.666 209.25 296.931 209.25 297.208C209.25 297.484 209.141 297.749 208.945 297.944C208.75 298.14 208.485 298.249 208.209 298.249H204.042V305.541C204.042 305.817 203.932 306.082 203.737 306.278C203.542 306.473 203.277 306.583 203 306.583C202.724 306.583 202.459 306.473 202.264 306.278C202.068 306.082 201.959 305.817 201.959 305.541V298.249H197.792C197.516 298.249 197.251 298.14 197.055 297.944C196.86 297.749 196.75 297.484 196.75 297.208Z" fill="black"/>
</g>
<defs>
<filter id="filter0_f_1667_8989" x="0" y="0" width="425" height="423" filterUnits="userSpaceOnUse" color-interpolation-filters="sRGB">
<feFlood flood-opacity="0" result="BackgroundImageFix"/>
<feBlend mode="normal" in="SourceGraphic" in2="BackgroundImageFix" result="shape"/>
<feGaussianBlur stdDeviation="35" result="effect1_foregroundBlur_1667_8989"/>
</filter>
<clipPath id="clip0_1667_8989">
<rect x="62" y="89" width="298" height="244" rx="8" fill="white"/>
</clipPath>
</defs>
</svg>
