<svg width="17" height="16" viewBox="0 0 17 16" fill="none" xmlns="http://www.w3.org/2000/svg">
<path d="M8.49935 1.33203C7.08486 1.33203 5.72831 1.89393 4.72811 2.89413C3.72792 3.89432 3.16602 5.25088 3.16602 6.66536C3.16602 10.2654 7.86602 14.332 8.06602 14.5054C8.18677 14.6087 8.34045 14.6654 8.49935 14.6654C8.65825 14.6654 8.81193 14.6087 8.93268 14.5054C9.16602 14.332 13.8327 10.2654 13.8327 6.66536C13.8327 5.25088 13.2708 3.89432 12.2706 2.89413C11.2704 1.89393 9.91384 1.33203 8.49935 1.33203ZM8.49935 13.0987C7.07935 11.7654 4.49935 8.89203 4.49935 6.66536C4.49935 5.6045 4.92078 4.58708 5.67092 3.83694C6.42107 3.08679 7.43848 2.66536 8.49935 2.66536C9.56021 2.66536 10.5776 3.08679 11.3278 3.83694C12.0779 4.58708 12.4993 5.6045 12.4993 6.66536C12.4993 8.89203 9.91935 11.772 8.49935 13.0987ZM8.49935 3.9987C7.97193 3.9987 7.45636 4.1551 7.01783 4.44811C6.5793 4.74113 6.2375 5.15761 6.03567 5.64488C5.83384 6.13214 5.78103 6.66832 5.88392 7.18561C5.98681 7.70289 6.24079 8.17804 6.61373 8.55098C6.98667 8.92392 7.46183 9.1779 7.97911 9.28079C8.49639 9.38369 9.03257 9.33088 9.51984 9.12904C10.0071 8.92721 10.4236 8.58542 10.7166 8.14688C11.0096 7.70835 11.166 7.19278 11.166 6.66536C11.166 5.95812 10.8851 5.27984 10.385 4.77975C9.88487 4.27965 9.20659 3.9987 8.49935 3.9987ZM8.49935 7.9987C8.23564 7.9987 7.97785 7.9205 7.75859 7.77399C7.53932 7.62748 7.36843 7.41924 7.26751 7.17561C7.16659 6.93197 7.14019 6.66389 7.19163 6.40524C7.24308 6.1466 7.37007 5.90903 7.55654 5.72256C7.74301 5.53609 7.98059 5.4091 8.23923 5.35765C8.49787 5.3062 8.76596 5.33261 9.00959 5.43353C9.25323 5.53444 9.46147 5.70534 9.60797 5.9246C9.75448 6.14387 9.83268 6.40166 9.83268 6.66536C9.83268 7.01899 9.69221 7.35813 9.44216 7.60817C9.19211 7.85822 8.85297 7.9987 8.49935 7.9987Z" fill="#BDBABD"/>
</svg>
