<svg width="16" height="16" viewBox="0 0 16 16" fill="none" xmlns="http://www.w3.org/2000/svg">
<path d="M7.99935 1.33203C6.58486 1.33203 5.22831 1.89393 4.22811 2.89413C3.22792 3.89432 2.66602 5.25088 2.66602 6.66536C2.66602 10.2654 7.36602 14.332 7.56602 14.5054C7.68677 14.6087 7.84045 14.6654 7.99935 14.6654C8.15825 14.6654 8.31193 14.6087 8.43268 14.5054C8.66602 14.332 13.3327 10.2654 13.3327 6.66536C13.3327 5.25088 12.7708 3.89432 11.7706 2.89413C10.7704 1.89393 9.41384 1.33203 7.99935 1.33203ZM7.99935 13.0987C6.57935 11.7654 3.99935 8.89203 3.99935 6.66536C3.99935 5.6045 4.42078 4.58708 5.17092 3.83694C5.92107 3.08679 6.93848 2.66536 7.99935 2.66536C9.06021 2.66536 10.0776 3.08679 10.8278 3.83694C11.5779 4.58708 11.9993 5.6045 11.9993 6.66536C11.9993 8.89203 9.41935 11.772 7.99935 13.0987ZM7.99935 3.9987C7.47193 3.9987 6.95636 4.1551 6.51783 4.44811C6.0793 4.74113 5.7375 5.15761 5.53567 5.64488C5.33384 6.13214 5.28103 6.66832 5.38392 7.18561C5.48681 7.70289 5.74079 8.17804 6.11373 8.55098C6.48667 8.92392 6.96183 9.1779 7.47911 9.28079C7.99639 9.38369 8.53257 9.33088 9.01984 9.12904C9.50711 8.92721 9.92358 8.58542 10.2166 8.14688C10.5096 7.70835 10.666 7.19278 10.666 6.66536C10.666 5.95812 10.3851 5.27984 9.88497 4.77975C9.38487 4.27965 8.70659 3.9987 7.99935 3.9987ZM7.99935 7.9987C7.73564 7.9987 7.47785 7.9205 7.25859 7.77399C7.03932 7.62748 6.86843 7.41924 6.76751 7.17561C6.66659 6.93197 6.64019 6.66389 6.69163 6.40524C6.74308 6.1466 6.87007 5.90903 7.05654 5.72256C7.24301 5.53609 7.48059 5.4091 7.73923 5.35765C7.99787 5.3062 8.26596 5.33261 8.50959 5.43353C8.75323 5.53444 8.96147 5.70534 9.10797 5.9246C9.25448 6.14387 9.33268 6.40166 9.33268 6.66536C9.33268 7.01899 9.19221 7.35813 8.94216 7.60817C8.69211 7.85822 8.35297 7.9987 7.99935 7.9987Z" fill="#BDBABD"/>
</svg>
