<svg width="76" height="76" viewBox="0 0 76 76" fill="none" xmlns="http://www.w3.org/2000/svg">
<path d="M63.3333 43.0665V37.9999C63.3333 36.6561 62.7995 35.3674 61.8493 34.4172C60.8991 33.467 59.6104 32.9332 58.2667 32.9332H7.59999C6.25623 32.9332 4.9675 33.467 4.01732 34.4172C3.06713 35.3674 2.53333 36.6561 2.53333 37.9999V68.3999C2.53333 69.7436 3.06713 71.0324 4.01732 71.9825C4.9675 72.9327 6.25623 73.4665 7.59999 73.4665H58.2667C59.6104 73.4665 60.8991 72.9327 61.8493 71.9825C62.7995 71.0324 63.3333 69.7436 63.3333 68.3999V63.3332M63.3333 43.0665H43.0667C40.3791 43.0665 37.8017 44.1341 35.9013 46.0345C34.0009 47.9349 32.9333 50.5123 32.9333 53.1999C32.9333 55.8874 34.0009 58.4648 35.9013 60.3652C37.8017 62.2656 40.3791 63.3332 43.0667 63.3332H63.3333M63.3333 43.0665C66.0208 43.0665 68.5983 44.1341 70.4987 46.0345C72.399 47.9349 73.4667 50.5123 73.4667 53.1999C73.4667 55.8874 72.399 58.4648 70.4987 60.3652C68.5983 62.2656 66.0208 63.3332 63.3333 63.3332M17.7333 32.9332V17.7332C17.7333 13.7019 19.3347 9.83573 22.1853 6.98518C25.0359 4.13463 28.902 2.5332 32.9333 2.5332C36.9646 2.5332 40.8308 4.13463 43.6813 6.98518C46.5319 9.83573 48.1333 13.7019 48.1333 17.7332V32.9332M60.8 53.1999H65.8667M50.6667 53.1999H55.7333M40.5333 53.1999H45.6" stroke="black" stroke-width="5"/>
</svg>
