<svg width="50" height="50" viewBox="0 0 50 50" fill="none" xmlns="http://www.w3.org/2000/svg">
<path d="M9.16723 22.4332C11.9047 30.6415 10.3735 35.4853 9.16723 38.4957C5.15265 48.5374 40.2901 49.5394 43.3006 33.4769C46.3131 17.4144 30.2506 5.36652 21.2172 4.36236C12.1797 3.36027 9.16931 6.37069 7.16098 9.38319C5.15265 12.3957 7.1589 16.4103 9.16723 22.4332Z" fill="#CAFFBF"/>
<path fill-rule="evenodd" clip-rule="evenodd" d="M36.3221 7.84795C36.5175 7.65267 36.7824 7.54297 37.0586 7.54297C37.3348 7.54297 37.5997 7.65267 37.795 7.84795L45.1617 15.2125C45.2587 15.3093 45.3357 15.4242 45.3882 15.5508C45.4407 15.6774 45.4677 15.813 45.4677 15.95C45.4677 16.0871 45.4407 16.2227 45.3882 16.3493C45.3357 16.4758 45.2587 16.5908 45.1617 16.6875L25.4325 36.4167C25.2456 36.6035 24.9946 36.7122 24.7305 36.7209L20.1534 36.8792C20.0108 36.8837 19.8688 36.8588 19.7362 36.8061C19.6036 36.7534 19.4832 36.6741 19.3825 36.573L16.4346 33.6271C16.3339 33.5263 16.2549 33.4058 16.2026 33.2733C16.1503 33.1407 16.1257 32.9987 16.1305 32.8563L16.2888 28.2771C16.298 28.0137 16.4067 27.7636 16.593 27.5771L36.3221 7.84795ZM37.0596 10.0563L18.3534 28.7625L18.2263 32.4771L20.5325 34.7834L24.2471 34.6542L42.9492 15.9521L37.0575 10.0605L37.0596 10.0563Z" fill="black"/>
<path fill-rule="evenodd" clip-rule="evenodd" d="M20.1193 24.0569C20.3146 23.8617 20.5795 23.752 20.8557 23.752C21.1319 23.752 21.3968 23.8617 21.5922 24.0569L28.9568 31.4236C29.152 31.6189 29.2617 31.8839 29.2617 32.1601C29.2617 32.4363 29.152 32.7012 28.9568 32.8965L25.2755 36.5799C25.1786 36.6765 25.0636 36.7531 24.937 36.8053C24.8105 36.8575 24.6749 36.8843 24.538 36.884H20.1193C19.9824 36.8843 19.8468 36.8575 19.7202 36.8053C19.5937 36.7531 19.4787 36.6765 19.3818 36.5799L16.438 33.6319C16.2425 33.4371 16.1324 33.1726 16.1318 32.8965V28.4778C16.1318 28.3407 16.1589 28.2051 16.2114 28.0785C16.264 27.952 16.341 27.837 16.438 27.7403L20.1213 24.0569H20.1193ZM20.8547 26.2653L18.213 28.909V32.4653L20.5505 34.8007H24.1068L26.7484 32.159L20.8547 26.2674V26.2653Z" fill="black"/>
<path fill-rule="evenodd" clip-rule="evenodd" d="M16.4375 32.1574C16.6328 31.9628 16.8972 31.8535 17.1729 31.8535C17.4486 31.8535 17.7131 31.9628 17.9083 32.1574L20.8542 35.1032C21.0495 35.2986 21.1592 35.5635 21.1592 35.8397C21.1592 36.1159 21.0495 36.3808 20.8542 36.5762L14.2292 43.2053L14.9646 43.9428C15.0641 44.0389 15.1434 44.1539 15.198 44.2809C15.2526 44.408 15.2814 44.5447 15.2826 44.683C15.2838 44.8213 15.2574 44.9585 15.205 45.0865C15.1527 45.2145 15.0753 45.3308 14.9775 45.4286C14.8797 45.5265 14.7634 45.6038 14.6354 45.6562C14.5074 45.7086 14.3702 45.7349 14.2319 45.7337C14.0936 45.7325 13.9569 45.7038 13.8298 45.6492C13.7027 45.5946 13.5878 45.5152 13.4917 45.4157L7.60001 39.5241C7.41026 39.3276 7.30527 39.0645 7.30764 38.7914C7.31001 38.5182 7.41957 38.257 7.6127 38.0638C7.80583 37.8707 8.0671 37.7612 8.34022 37.7588C8.61334 37.7564 8.87647 37.8614 9.07293 38.0512L9.80834 38.7866L16.4375 32.1574ZM11.2792 40.2616L12.7521 41.7324L18.6458 35.8407L17.1729 34.3678L11.2792 40.2595V40.2616ZM20.1188 7.85115C19.8305 7.55268 19.4857 7.31461 19.1044 7.15083C18.7231 6.98705 18.3131 6.90085 17.8981 6.89724C17.4832 6.89364 17.0717 6.9727 16.6877 7.12983C16.3036 7.28696 15.9547 7.519 15.6613 7.81242C15.3679 8.10583 15.1358 8.45474 14.9787 8.83879C14.8216 9.22284 14.7425 9.63434 14.7461 10.0493C14.7497 10.4642 14.8359 10.8743 14.9997 11.2555C15.1635 11.6368 15.4015 11.9816 15.7 12.2699C16.2913 12.8289 17.0774 13.1353 17.8911 13.1238C18.7047 13.1123 19.4818 12.7838 20.0571 12.2083C20.6324 11.6327 20.9605 10.8555 20.9716 10.0418C20.9827 9.22813 20.6781 8.44221 20.1188 7.85115ZM14.225 6.37615C14.7078 5.88897 15.2821 5.50194 15.9149 5.2373C16.5476 4.97265 17.2264 4.8356 17.9123 4.834C18.5982 4.8324 19.2777 4.96629 19.9117 5.22799C20.5457 5.48968 21.1217 5.87402 21.6068 6.35895C22.0919 6.84388 22.4764 7.41983 22.7382 8.05376C23.0001 8.68769 23.1342 9.3671 23.1328 10.053C23.1314 10.7389 22.9945 11.4177 22.73 12.0506C22.4656 12.6834 22.0787 13.2578 21.5917 13.7407C20.6136 14.7106 19.2912 15.2535 17.9138 15.2506C16.5364 15.2478 15.2162 14.6995 14.2421 13.7257C13.268 12.7519 12.7194 11.4318 12.7161 10.0545C12.7129 8.67707 13.2555 7.3545 14.225 6.37615Z" fill="black"/>
</svg>
