<svg width="60" height="60" viewBox="0 0 60 60" fill="none" xmlns="http://www.w3.org/2000/svg">
<path d="M37.9009 22.0743C37.7036 21.6 37.4161 21.1685 37.0545 20.8036C34.1252 17.8743 27.0024 20.2486 21.1438 26.1072C15.2852 31.9657 12.9109 39.0886 15.8402 42.0179C16.2024 42.38 16.6288 42.6629 17.1109 42.8643L46.2581 55.2007C48.7695 56.2636 51.3002 53.7329 50.2374 51.2215L37.9009 22.0743Z" fill="#FFE577"/>
<path d="M37.3929 15.7187C37.755 16.0808 38.0357 16.5072 38.2393 16.9894C39.6793 20.3922 37.2215 26.4972 32.0893 31.6294C26.9572 36.7615 20.8522 39.2194 17.4493 37.7794C16.975 37.582 16.5435 37.2946 16.1786 36.933C13.2493 34.0037 15.6236 26.8808 21.4822 21.0222C27.3407 15.1637 34.4636 12.7915 37.3929 15.7187Z" fill="#DEFF8F"/>
<path d="M51.4284 23.5722C49.0241 23.5722 47.1427 22.16 47.1427 20.3579C47.1427 18.5557 49.0241 17.1436 51.4284 17.1436C52.7355 17.1436 53.5712 16.5093 53.5712 16.0722C53.5712 15.635 52.7355 15.0007 51.4284 15.0007C49.0241 15.0007 47.1427 13.5886 47.1427 11.7864C47.1427 9.9843 49.0241 8.57215 51.4284 8.57215C52.7355 8.57215 53.5712 7.93787 53.5712 7.50072C53.5712 7.06358 52.7355 6.4293 51.4284 6.4293C51.1442 6.4293 50.8717 6.31641 50.6708 6.11548C50.4698 5.91455 50.3569 5.64203 50.3569 5.35787C50.3569 5.07371 50.4698 4.80118 50.6708 4.60025C50.8717 4.39932 51.1442 4.28644 51.4284 4.28644C53.8327 4.28644 55.7141 5.69858 55.7141 7.50072C55.7141 9.30287 53.8327 10.715 51.4284 10.715C50.1212 10.715 49.2855 11.3493 49.2855 11.7864C49.2855 12.2236 50.1212 12.8579 51.4284 12.8579C53.8327 12.8579 55.7141 14.27 55.7141 16.0722C55.7141 17.8743 53.8327 19.2864 51.4284 19.2864C50.1212 19.2864 49.2855 19.9207 49.2855 20.3579C49.2855 20.795 50.1212 21.4293 51.4284 21.4293C51.7125 21.4293 51.9851 21.5422 52.186 21.7431C52.3869 21.944 52.4998 22.2166 52.4998 22.5007C52.4998 22.7849 52.3869 23.0574 52.186 23.2583C51.9851 23.4593 51.7125 23.5722 51.4284 23.5722ZM20.3569 55.715C18.5548 55.715 17.1427 53.8314 17.1427 51.4293C17.1427 50.1393 16.4977 49.2864 16.0712 49.2864C15.6448 49.2864 14.9998 50.1393 14.9998 51.4293C14.9998 53.8314 13.5877 55.715 11.7855 55.715C9.98337 55.715 8.57123 53.8314 8.57123 51.4293C8.57123 50.1393 7.92623 49.2864 7.4998 49.2864C7.07337 49.2864 6.42837 50.1393 6.42837 51.4293C6.42837 51.7135 6.31549 51.986 6.11455 52.1869C5.91362 52.3878 5.6411 52.5007 5.35694 52.5007C5.07278 52.5007 4.80026 52.3878 4.59933 52.1869C4.39839 51.986 4.28551 51.7135 4.28551 51.4293C4.28551 49.0272 5.69765 47.1436 7.4998 47.1436C9.30194 47.1436 10.7141 49.0272 10.7141 51.4293C10.7141 52.7193 11.3591 53.5722 11.7855 53.5722C12.2119 53.5722 12.8569 52.7193 12.8569 51.4293C12.8569 49.0272 14.2691 47.1436 16.0712 47.1436C17.8734 47.1436 19.2855 49.0272 19.2855 51.4293C19.2855 52.7193 19.9305 53.5722 20.3569 53.5722C20.7834 53.5722 21.4284 52.7193 21.4284 51.4293C21.4284 51.1451 21.5413 50.8726 21.7422 50.6717C21.9431 50.4707 22.2156 50.3579 22.4998 50.3579C22.784 50.3579 23.0565 50.4707 23.2574 50.6717C23.4583 50.8726 23.5712 51.1451 23.5712 51.4293C23.5712 53.8314 22.1591 55.715 20.3569 55.715ZM14.9162 20.9836C14.1362 20.9836 13.4377 20.7157 12.9319 20.2122C11.6591 18.9372 11.9912 16.6079 13.6905 14.9086C14.6162 13.9829 14.7577 12.9457 14.4491 12.635C14.3098 12.4957 14.0227 12.4572 13.6777 12.5236C13.1762 12.6243 12.6277 12.9414 12.1755 13.3936C10.4762 15.095 8.1448 15.425 6.87194 14.1522C6.21408 13.4943 5.96123 12.5086 6.17337 11.4457C6.35765 10.5243 6.87623 9.60287 7.63051 8.84858C8.55623 7.92287 8.69765 6.88358 8.38908 6.57287C8.08694 6.26858 7.02837 6.42287 6.11551 7.33144C5.91344 7.52661 5.64279 7.6346 5.36187 7.63216C5.08094 7.62972 4.81221 7.51704 4.61356 7.31839C4.41491 7.11974 4.30223 6.85101 4.29979 6.57008C4.29735 6.28916 4.40534 6.01851 4.60051 5.81644C6.30194 4.11501 8.62908 3.78715 9.90408 5.05787C11.1791 6.33287 10.8448 8.6643 9.14551 10.3636C8.69337 10.8157 8.37623 11.3643 8.27337 11.8657C8.20694 12.2086 8.24765 12.4957 8.38694 12.635C8.52623 12.7743 8.81122 12.815 9.15623 12.7486C9.65765 12.6479 10.2062 12.3307 10.6605 11.8786C11.4148 11.1222 12.3384 10.6057 13.2577 10.4214C14.3162 10.2007 15.3062 10.4643 15.9619 11.12C17.2369 12.395 16.9027 14.7243 15.2034 16.4236C14.2819 17.3493 14.1405 18.3864 14.4491 18.6972C14.5884 18.8386 14.8755 18.8772 15.2184 18.8107C15.7198 18.71 16.2684 18.3929 16.7205 17.9407C16.9226 17.7456 17.1932 17.6376 17.4742 17.64C17.7551 17.6424 18.0238 17.7551 18.2225 17.9538C18.4211 18.1524 18.5338 18.4212 18.5362 18.7021C18.5387 18.983 18.4307 19.2537 18.2355 19.4557C17.4812 20.2122 16.5577 20.7286 15.6384 20.9129C15.4004 20.9593 15.1586 20.983 14.9162 20.9836ZM5.35694 36.4293C5.15552 36.4291 4.95825 36.3721 4.78773 36.2649C4.61722 36.1577 4.48038 36.0046 4.39291 35.8232C4.30544 35.6417 4.27088 35.4393 4.2932 35.2392C4.31551 35.039 4.3938 34.8491 4.51908 34.6914C12.3362 24.8943 27.6127 30.8922 28.2555 31.1514C28.3913 31.2 28.516 31.2755 28.6219 31.3733C28.7279 31.4712 28.813 31.5895 28.8721 31.721C28.9313 31.8526 28.9632 31.9947 28.9661 32.139C28.969 32.2832 28.9427 32.4265 28.8889 32.5603C28.835 32.6941 28.7547 32.8157 28.6528 32.9177C28.5508 33.0198 28.4293 33.1001 28.2955 33.1541C28.1617 33.208 28.0184 33.2344 27.8742 33.2316C27.73 33.2288 27.5878 33.1969 27.4562 33.1379C27.3127 33.08 13.0155 27.4829 6.19265 36.0264C6.09287 36.1524 5.96582 36.2541 5.82107 36.3239C5.67632 36.3936 5.51763 36.4297 5.35694 36.4293ZM34.2855 24.6436C34.0759 24.6439 33.8709 24.5825 33.696 24.467C33.521 24.3516 33.384 24.1871 33.3019 23.9943C33.1541 23.6514 29.7384 15.5343 32.6055 9.59858C33.8719 6.97358 36.1455 5.1993 39.3619 4.32287C39.4977 4.28586 39.6395 4.27596 39.7791 4.29374C39.9187 4.31151 40.0534 4.3566 40.1756 4.42645C40.2977 4.49629 40.405 4.58951 40.4911 4.70079C40.5773 4.81207 40.6407 4.93923 40.6777 5.07501C40.7147 5.21079 40.7246 5.35252 40.7068 5.49213C40.689 5.63173 40.6439 5.76647 40.5741 5.88864C40.5042 6.01082 40.411 6.11804 40.2997 6.20419C40.1884 6.29033 40.0613 6.35372 39.9255 6.39072C37.3348 7.09787 35.5198 8.48858 34.5341 10.5307C32.0869 15.5964 35.2391 23.075 35.2712 23.15C35.3411 23.3131 35.3694 23.4909 35.3536 23.6676C35.3378 23.8443 35.2784 24.0143 35.1807 24.1623C35.083 24.3104 34.95 24.4319 34.7938 24.5159C34.6376 24.5999 34.4629 24.6437 34.2855 24.6436ZM8.57123 45.0007C8.28696 45.0008 8.01424 44.8883 7.81265 44.6879L4.59837 41.4736C4.39751 41.2727 4.28467 41.0002 4.28467 40.7161C4.28467 40.432 4.39751 40.1595 4.59837 39.9586L7.81265 36.7443C8.01358 36.5434 8.28605 36.4306 8.57015 36.4306C8.85426 36.4306 9.12673 36.5434 9.32765 36.7443L12.5419 39.9586C12.7428 40.1595 12.8556 40.432 12.8556 40.7161C12.8556 41.0002 12.7428 41.2727 12.5419 41.4736L9.32765 44.6879C9.22837 44.7872 9.11044 44.866 8.98063 44.9197C8.85082 44.9734 8.7117 45.0009 8.57123 45.0007ZM6.87194 40.715L8.57123 42.4143L10.2705 40.715L8.57123 39.0157L6.87194 40.715ZM23.5712 12.8579C23.287 12.8579 23.0142 12.7454 22.8127 12.545L19.5984 9.33072C19.3975 9.1298 19.2847 8.85733 19.2847 8.57322C19.2847 8.28912 19.3975 8.01665 19.5984 7.81572L22.8127 4.60144C23.0136 4.40058 23.2861 4.28774 23.5702 4.28774C23.8543 4.28774 24.1267 4.40058 24.3277 4.60144L27.5419 7.81572C27.7428 8.01665 27.8556 8.28912 27.8556 8.57322C27.8556 8.85733 27.7428 9.1298 27.5419 9.33072L24.3277 12.545C24.2284 12.6444 24.1104 12.7232 23.9806 12.7769C23.8508 12.8305 23.7117 12.8581 23.5712 12.8579ZM21.8719 8.57215L23.5712 10.2714L25.2705 8.57215L23.5712 6.87287L21.8719 8.57215Z" fill="black"/>
<path d="M20.8052 40.8638C19.9054 40.8775 19.0121 40.7107 18.178 40.3731C17.5779 40.1204 17.0317 39.7552 16.5687 39.2974C13.1702 35.8945 15.4973 28.2424 21.8723 21.8695C24.8187 18.9209 28.183 16.7181 31.3437 15.6638C34.7552 14.5324 37.5773 14.8495 39.2959 16.5659C39.7523 17.0224 40.1145 17.5645 40.3737 18.1795C42.0259 22.0817 39.4009 28.5831 33.9923 33.9917C29.668 38.3181 24.6409 40.8617 20.8052 40.8638ZM35.0445 17.1467C34.1509 17.1467 33.1309 17.3288 32.0209 17.6995C29.1709 18.6488 26.1045 20.6695 23.3873 23.3867C17.4945 29.2774 15.8873 35.5859 18.0837 37.7824C18.3409 38.0374 18.6559 38.2474 19.018 38.4017C22.0437 39.6831 27.8252 37.1331 32.4795 32.4767C37.1337 27.8224 39.6795 22.0345 38.4002 19.0152C38.2568 18.6681 38.0472 18.3522 37.783 18.0852C37.1573 17.4617 36.2123 17.1467 35.0445 17.1467Z" fill="black"/>
<path d="M54.6426 55.7134C54.4322 55.7138 54.2263 55.652 54.0509 55.5357C53.8756 55.4194 53.7385 55.2539 53.6569 55.0599L38.3998 19.0149C38.2889 18.7531 38.2866 18.4581 38.3933 18.1947C38.5 17.9313 38.707 17.721 38.9687 17.6102C39.2304 17.4994 39.5254 17.4971 39.7888 17.6038C40.0523 17.7105 40.2625 17.9174 40.3733 18.1791L55.6305 54.2241C55.6995 54.3872 55.7271 54.5647 55.7107 54.741C55.6944 54.9173 55.6346 55.0867 55.5368 55.2342C55.4389 55.3818 55.306 55.5027 55.15 55.5864C54.994 55.67 54.8196 55.7136 54.6426 55.7134Z" fill="black"/>
<path d="M54.6429 55.715C54.4995 55.7144 54.3576 55.686 54.225 55.6314L18.1779 40.3764C17.9159 40.2659 17.7085 40.0558 17.6014 39.7924C17.4943 39.529 17.4962 39.2338 17.6068 38.9718C17.7173 38.7098 17.9274 38.5025 18.1908 38.3954C18.4543 38.2883 18.7494 38.2902 19.0114 38.4007L55.0586 53.6557C55.2826 53.7549 55.4661 53.9275 55.5787 54.1451C55.6913 54.3627 55.7263 54.6122 55.6778 54.8523C55.6293 55.0925 55.5003 55.3089 55.3121 55.4658C55.1239 55.6226 54.8878 55.7106 54.6429 55.715Z" fill="black"/>
</svg>
