<svg width="17" height="16" viewBox="0 0 17 16" fill="none" xmlns="http://www.w3.org/2000/svg">
<g clip-path="url(#clip0_1967_5080)">
<path d="M7.80038 6.60014C9.73342 6.60014 11.3005 5.3465 11.3005 3.80007C11.3005 2.25363 9.73342 1 7.80038 1C5.86733 1 4.30029 2.25363 4.30029 3.80007C4.30029 5.3465 5.86733 6.60014 7.80038 6.60014Z" stroke="#BDBABD" stroke-width="2"/>
<path d="M15.4986 12.5116C15.5003 12.4095 15.5003 12.3056 15.5003 12.2005C15.5003 10.6542 12.366 9.40039 8.50017 9.40039C4.63433 9.40039 1.5 10.6542 1.5 12.2005C1.5 13.7467 1.5 15.0005 8.50017 15.0005C10.4523 15.0005 11.8603 14.9028 12.8753 14.7286" stroke="#BDBABD" stroke-width="2" stroke-linecap="round"/>
</g>
<defs>
<clipPath id="clip0_1967_5080">
<rect width="16" height="16" fill="white" transform="translate(0.5)"/>
</clipPath>
</defs>
</svg>
