<svg width="60" height="60" viewBox="0 0 60 60" fill="none" xmlns="http://www.w3.org/2000/svg">
<path d="M11 26.9206C14.285 36.7706 12.4475 42.5831 11 46.1956C6.18249 58.2456 48.3475 59.4481 51.96 40.1731C55.575 20.8981 36.3 6.44061 25.46 5.23561C14.615 4.03311 11.0025 7.64561 8.59249 11.2606C6.18249 14.8756 8.58999 19.6931 11 26.9206Z" fill="#DEFE8F"/>
<path d="M19.0879 14.1347C19.0972 14.0176 19.195 13.9273 19.3125 13.9273L40.173 13.9275C40.2916 13.9275 40.39 14.0195 40.3979 14.1379L42.5312 46.1389C42.5399 46.2689 42.4367 46.3792 42.3064 46.3792L16.7522 46.3792C16.6207 46.3792 16.5171 46.267 16.5276 46.1359L19.0879 14.1347Z" stroke="black" stroke-width="1.35216"/>
<rect x="11.7188" y="18.209" width="35.1562" height="1.80288" rx="0.901442" fill="black"/>
<path d="M11.7188 39.8448C11.7188 39.3469 12.1223 38.9434 12.6202 38.9434H24.3389V40.7462H12.6202C12.1223 40.7462 11.7188 40.3427 11.7188 39.8448Z" fill="black"/>
<path d="M34.2546 38.9434H45.9734C46.4712 38.9434 46.8748 39.3469 46.8748 39.8448C46.8748 40.3427 46.4712 40.7462 45.9734 40.7462H34.2546V38.9434Z" fill="black"/>
<mask id="path-6-inside-1_2051_7366" fill="white">
<path d="M24.3389 35.337C24.3389 34.8391 24.7425 34.4355 25.2403 34.4355H33.3533C33.8511 34.4355 34.2547 34.8391 34.2547 35.337V47.0557H24.3389V35.337Z"/>
</mask>
<path d="M24.3389 35.337C24.3389 34.8391 24.7425 34.4355 25.2403 34.4355H33.3533C33.8511 34.4355 34.2547 34.8391 34.2547 35.337V47.0557H24.3389V35.337Z" stroke="black" stroke-width="2.70433" mask="url(#path-6-inside-1_2051_7366)"/>
<line x1="29.522" y1="35.4063" x2="29.522" y2="46.0849" stroke="black" stroke-width="1.35216"/>
<mask id="path-8-inside-2_2051_7366" fill="white">
<path d="M24.3391 5.58894C24.3391 5.09109 24.7427 4.6875 25.2406 4.6875H33.3535C33.8514 4.6875 34.255 5.09109 34.255 5.58894V14.6034H24.3391V5.58894Z"/>
</mask>
<path d="M24.3391 5.58894C24.3391 5.09109 24.7427 4.6875 25.2406 4.6875H33.3535C33.8514 4.6875 34.255 5.09109 34.255 5.58894V14.6034H24.3391V5.58894Z" stroke="black" stroke-width="2.70433" mask="url(#path-8-inside-2_2051_7366)"/>
<line x1="29.5225" y1="5.45117" x2="29.5225" y2="13.8415" stroke="black" stroke-width="1.35216"/>
</svg>
