<svg width="50" height="50" viewBox="0 0 50 50" fill="none" xmlns="http://www.w3.org/2000/svg">
<path d="M44.4074 12.3489C47.7157 20.0697 48.8199 28.8947 42.1991 39.926C35.3761 53.751 27.8595 38.8218 22.3449 39.926C16.8303 41.0302 10.2115 43.2364 5.79905 35.5135C-1.94054 21.9697 8.0053 17.8635 13.5199 9.04057C19.0365 0.215571 41.097 4.62599 44.4074 12.3489Z" fill="#FFADAD"/>
<path fill-rule="evenodd" clip-rule="evenodd" d="M2.31262 43.9516C3.15176 41.8044 4.61905 39.9603 6.52278 38.6601C8.42651 37.36 10.6781 36.6644 12.9835 36.6641H32.8501C35.1558 36.6639 37.4079 37.3594 39.312 38.6595C41.2162 39.9597 42.6838 41.8041 43.523 43.9516L43.6105 44.1745C43.7957 44.6482 43.8624 45.1599 43.8049 45.6652C43.7474 46.1705 43.5675 46.6541 43.2807 47.0741C42.9939 47.4941 42.609 47.8378 42.1593 48.0753C41.7096 48.3128 41.2087 48.4369 40.7001 48.437H5.13554C4.62697 48.4369 4.12609 48.3128 3.67639 48.0753C3.22668 47.8378 2.84173 47.4941 2.55496 47.0741C2.26818 46.6541 2.08825 46.1705 2.03077 45.6652C1.97329 45.1599 2.04 44.6482 2.22512 44.1745L2.31262 43.9516ZM12.9835 38.7474C11.0975 38.7479 9.25563 39.3173 7.69834 40.381C6.14104 41.4447 4.94076 42.9534 4.25429 44.7099L4.1647 44.9328C4.10298 45.0908 4.08074 45.2614 4.09994 45.4299C4.11913 45.5984 4.17917 45.7596 4.27485 45.8996C4.37052 46.0397 4.49893 46.1542 4.64892 46.2333C4.79891 46.3124 4.96596 46.3537 5.13554 46.3536H40.698C40.8676 46.3537 41.0347 46.3124 41.1847 46.2333C41.3347 46.1542 41.4631 46.0397 41.5587 45.8996C41.6544 45.7596 41.7144 45.5984 41.7336 45.4299C41.7528 45.2614 41.7306 45.0908 41.6689 44.9328L41.5814 44.7099C40.8949 42.9534 39.6946 41.4447 38.1373 40.381C36.58 39.3173 34.7381 38.7479 32.8522 38.7474H12.9835Z" fill="black"/>
<path fill-rule="evenodd" clip-rule="evenodd" d="M16.1616 37.3453C16.2354 37.1452 16.3689 36.9725 16.544 36.8507C16.7191 36.7288 16.9274 36.6637 17.1407 36.6641H28.6928C28.9056 36.6645 29.1131 36.73 29.2875 36.8519C29.4619 36.9738 29.5948 37.1462 29.6683 37.3458C29.7419 37.5455 29.7525 37.7629 29.6987 37.9688C29.645 38.1746 29.5295 38.3591 29.3678 38.4974L24.9428 42.2682C24.3775 42.7496 23.6593 43.014 22.9168 43.014C22.1743 43.014 21.456 42.7496 20.8907 42.2682L16.4637 38.4974C16.3016 38.3593 16.1857 38.1748 16.1317 37.9688C16.0777 37.7628 16.0881 37.5452 16.1616 37.3453ZM19.9699 38.7474L22.2407 40.6807C22.4291 40.841 22.6684 40.929 22.9157 40.929C23.1631 40.929 23.4024 40.841 23.5907 40.6807L25.8616 38.7474H19.9699Z" fill="black"/>
<path fill-rule="evenodd" clip-rule="evenodd" d="M22.9167 41.1458C23.1929 41.1458 23.4579 41.2556 23.6532 41.4509C23.8486 41.6463 23.9583 41.9112 23.9583 42.1875V47.3958C23.9583 47.6721 23.8486 47.937 23.6532 48.1324C23.4579 48.3278 23.1929 48.4375 22.9167 48.4375C22.6404 48.4375 22.3754 48.3278 22.1801 48.1324C21.9847 47.937 21.875 47.6721 21.875 47.3958V42.1875C21.875 41.9112 21.9847 41.6463 22.1801 41.4509C22.3754 41.2556 22.6404 41.1458 22.9167 41.1458ZM10.5 17.1458C10.5 10.3021 15.5062 4.6875 22.9167 4.6875C30.325 4.6875 35.3292 10.3021 35.3292 17.1458C35.3292 18 35.2521 18.9125 35.1042 19.8521C35.8042 20.4937 36.2708 21.3896 36.2708 22.4146C36.2708 24.1917 34.925 25.525 33.2917 25.95C32.3125 28.1729 30.9875 30.2958 29.3583 31.9146C27.6 33.6604 25.4229 34.875 22.9146 34.875C20.4062 34.875 18.2271 33.6604 16.4708 31.9146C14.8417 30.2958 13.5187 28.1729 12.5375 25.9479C10.9083 25.5229 9.56458 24.1896 9.56458 22.4167C9.56458 21.3917 10.0292 20.5 10.725 19.8542C10.5803 18.9585 10.5051 18.0531 10.5 17.1458ZM22.9167 6.77083C16.7271 6.77083 12.5833 11.3812 12.5833 17.1458C12.5833 18.0417 12.6833 19.0437 12.8833 20.1042C12.9213 20.3091 12.8969 20.5206 12.8133 20.7115C12.7298 20.9024 12.5909 21.0639 12.4146 21.175C11.9042 21.4979 11.6479 21.9646 11.6479 22.4167C11.6479 23.0958 12.275 23.8667 13.3937 23.9937C13.5786 24.0145 13.7546 24.0843 13.9033 24.1961C14.0521 24.3078 14.1682 24.4574 14.2396 24.6292C15.1667 26.8667 16.4312 28.9396 17.9396 30.4354C19.4437 31.9292 21.1229 32.7917 22.9146 32.7917C24.7062 32.7917 26.3854 31.9292 27.8896 30.4375C29.3979 28.9375 30.6646 26.8667 31.5896 24.6312C31.6608 24.4588 31.7771 24.3086 31.9263 24.1965C32.0755 24.0843 32.252 24.0143 32.4375 23.9937C33.5583 23.8687 34.1875 23.0958 34.1875 22.4167C34.1875 21.9625 33.9292 21.4979 33.4167 21.175C33.2396 21.0636 33.1002 20.9015 33.0166 20.7097C32.933 20.518 32.9091 20.3055 32.9479 20.1C33.1458 19.0437 33.2458 18.0417 33.2458 17.1458C33.2458 11.3812 29.1042 6.77083 22.9146 6.77083H22.9167Z" fill="black"/>
<path fill-rule="evenodd" clip-rule="evenodd" d="M22.8122 12.4437C22.8822 12.4366 22.9527 12.4366 23.0226 12.4437L32.4476 13.4083C32.7747 13.4167 33.0872 13.4937 33.3705 13.625C33.5519 13.4843 33.7746 13.4075 34.0041 13.4064C34.2336 13.4053 34.4571 13.48 34.6397 13.619C34.8224 13.7579 34.954 13.9533 35.0142 14.1748C35.0744 14.3963 35.0598 14.6314 34.9726 14.8437L34.733 15.4312C35.458 18.4125 33.3997 21.4521 30.2809 21.6979L29.1559 21.7875C29.1005 21.7918 29.0448 21.7918 28.9893 21.7875L22.9164 21.3083L16.8434 21.7875C16.7887 21.7917 16.7336 21.7917 16.6789 21.7875L15.5539 21.6979C12.4289 21.4521 10.3726 18.4062 11.1039 15.4208L10.8747 14.8271C10.793 14.6158 10.7825 14.3836 10.8447 14.1657C10.9069 13.9479 11.0384 13.7563 11.2193 13.6199C11.4002 13.4835 11.6206 13.4098 11.8471 13.41C12.0737 13.4102 12.294 13.4842 12.4747 13.6208C12.7539 13.4917 13.0622 13.4167 13.3851 13.4083L22.8122 12.4437ZM22.9164 14.5271L13.5518 15.4854C13.5172 15.4892 13.4824 15.4913 13.4476 15.4917C13.3892 15.4934 13.3329 15.5138 13.2868 15.5498C13.2407 15.5857 13.2073 15.6354 13.1914 15.6917C12.5809 17.5667 13.8622 19.475 15.7164 19.6208L16.7622 19.7042L22.8351 19.225C22.8899 19.2207 22.9449 19.2207 22.9997 19.225L29.0726 19.7042L30.1184 19.6208C31.9726 19.475 33.2518 17.5646 32.6414 15.6917C32.6256 15.6358 32.5925 15.5863 32.5468 15.5504C32.5011 15.5144 32.4453 15.4939 32.3872 15.4917C32.3524 15.4913 32.3176 15.4892 32.283 15.4854L22.9164 14.5271ZM39.583 4.6875C39.583 3.8587 39.9123 3.06384 40.4983 2.47779C41.0844 1.89174 41.8792 1.5625 42.708 1.5625H45.833C46.6618 1.5625 47.4567 1.89174 48.0427 2.47779C48.6288 3.06384 48.958 3.8587 48.958 4.6875V21.875C48.958 23.1182 48.4642 24.3105 47.5851 25.1896C46.706 26.0686 45.5137 26.5625 44.2705 26.5625C43.0273 26.5625 41.835 26.0686 40.956 25.1896C40.0769 24.3105 39.583 23.1182 39.583 21.875V4.6875ZM42.708 3.64583C42.4318 3.64583 42.1668 3.75558 41.9715 3.95093C41.7761 4.14628 41.6664 4.41123 41.6664 4.6875V21.875C41.6664 22.5657 41.9407 23.228 42.4291 23.7164C42.9175 24.2048 43.5799 24.4792 44.2705 24.4792C44.9612 24.4792 45.6236 24.2048 46.112 23.7164C46.6003 23.228 46.8747 22.5657 46.8747 21.875V4.6875C46.8747 4.41123 46.765 4.14628 46.5696 3.95093C46.3743 3.75558 46.1093 3.64583 45.833 3.64583H42.708Z" fill="black"/>
<path fill-rule="evenodd" clip-rule="evenodd" d="M41.6663 25.5209C41.6663 25.2446 41.776 24.9797 41.9714 24.7843C42.1667 24.589 42.4317 24.4792 42.708 24.4792H45.833C46.1092 24.4792 46.3742 24.589 46.5695 24.7843C46.7649 24.9797 46.8746 25.2446 46.8746 25.5209V34.3751C46.8746 35.0657 46.6003 35.7281 46.1119 36.2165C45.6235 36.7049 44.9611 36.9792 44.2705 36.9792C43.5798 36.9792 42.9174 36.7049 42.429 36.2165C41.9407 35.7281 41.6663 35.0657 41.6663 34.3751V25.5209ZM43.7496 26.5626V34.3751C43.7496 34.5132 43.8045 34.6457 43.9022 34.7433C43.9999 34.841 44.1323 34.8959 44.2705 34.8959C44.4086 34.8959 44.5411 34.841 44.6387 34.7433C44.7364 34.6457 44.7913 34.5132 44.7913 34.3751V26.5626H43.7496ZM18.435 25.3167C19.8104 24.568 21.3514 24.1758 22.9173 24.1758C24.4833 24.1758 26.0243 24.568 27.3996 25.3167L31.1663 27.3667C31.4091 27.4988 31.5896 27.7219 31.6679 27.987C31.7462 28.2521 31.7161 28.5374 31.584 28.7803C31.4519 29.0231 31.2288 29.2035 30.9637 29.2819C30.6987 29.3602 30.4133 29.33 30.1705 29.198L26.4038 27.148C25.334 26.5656 24.1354 26.2604 22.9173 26.2604C21.6993 26.2604 20.5007 26.5656 19.4309 27.148L15.96 29.0355C15.8397 29.105 15.7066 29.1497 15.5687 29.167C15.4308 29.1843 15.2908 29.1738 15.157 29.1361C15.0232 29.0985 14.8983 29.0344 14.7896 28.9478C14.6809 28.8611 14.5907 28.7536 14.5243 28.6315C14.4578 28.5094 14.4164 28.3753 14.4026 28.237C14.3888 28.0986 14.4028 27.959 14.4438 27.8262C14.4848 27.6933 14.552 27.5701 14.6413 27.4636C14.7307 27.3572 14.8405 27.2697 14.9642 27.2063L18.435 25.3167Z" fill="black"/>
</svg>
