<svg width="60" height="60" viewBox="0 0 60 60" fill="none" xmlns="http://www.w3.org/2000/svg">
<path d="M57.3219 37.5002C53.5055 50.5631 42.2962 59.2631 28.7769 57.6988C15.2576 56.1345 7.56049 44.1388 9.12263 30.6195C10.6848 17.1002 22.6076 3.2938 34.5541 9.01523C47.1476 15.0452 60.8041 25.5817 57.3219 37.5002Z" fill="#DEFF8F"/>
<path d="M30.0004 55.7137C15.8211 55.7137 4.28613 44.1787 4.28613 29.9994C4.28613 15.8202 15.8211 4.28516 30.0004 4.28516C44.1797 4.28516 55.7147 15.8202 55.7147 29.9994C55.7147 44.1787 44.1797 55.7137 30.0004 55.7137ZM30.0004 6.42801C17.0018 6.42801 6.42899 17.003 6.42899 29.9994C6.42899 42.9959 17.004 53.5709 30.0004 53.5709C42.9968 53.5709 53.5718 42.9959 53.5718 29.9994C53.5718 17.003 42.9968 6.42801 30.0004 6.42801Z" fill="black"/>
<path d="M28.9285 38.5717C28.6442 38.5717 28.3715 38.4593 28.1699 38.2588L20.6699 30.7588C20.4747 30.5568 20.3667 30.2861 20.3692 30.0052C20.3716 29.7243 20.4843 29.4555 20.683 29.2569C20.8816 29.0582 21.1503 28.9456 21.4313 28.9431C21.7122 28.9407 21.9828 29.0487 22.1849 29.2438L28.9263 35.9853L41.0249 23.8867C41.227 23.6915 41.4976 23.5835 41.7785 23.586C42.0595 23.5884 42.3282 23.7011 42.5269 23.8998C42.7255 24.0984 42.8382 24.3671 42.8406 24.6481C42.8431 24.929 42.7351 25.1996 42.5399 25.4017L29.6828 38.2588C29.584 38.3583 29.4665 38.4372 29.337 38.4909C29.2075 38.5446 29.0687 38.5721 28.9285 38.5717Z" fill="black"/>
</svg>
