<svg width="60" height="60" viewBox="0 0 60 60" fill="none" xmlns="http://www.w3.org/2000/svg">
<path d="M29.6955 27.3553C28.4355 21.1517 7.88119 24.9403 6.06833 25.8145C1.76333 27.8931 2.95048 43.2895 10.1483 46.326C12.514 47.3245 23.2626 47.181 26.9098 43.1888C31.1098 38.5945 29.8691 28.206 29.6955 27.3553Z" fill="#FF7C66"/>
<path d="M14.9999 44.9994C9.09207 44.9994 4.28564 40.193 4.28564 34.2852C4.28564 28.3773 9.09207 23.5709 14.9999 23.5709C20.9078 23.5709 25.7142 28.3773 25.7142 34.2852C25.7142 40.193 20.9078 44.9994 14.9999 44.9994ZM14.9999 25.7137C10.2728 25.7137 6.4285 29.558 6.4285 34.2852C6.4285 39.0123 10.2728 42.8566 14.9999 42.8566C19.7271 42.8566 23.5714 39.0123 23.5714 34.2852C23.5714 29.558 19.7271 25.7137 14.9999 25.7137ZM49.2856 55.7137C45.7414 55.7137 42.8571 52.8294 42.8571 49.2852C42.8571 45.7409 45.7414 42.8566 49.2856 42.8566C52.8299 42.8566 55.7142 45.7409 55.7142 49.2852C55.7142 52.8294 52.8299 55.7137 49.2856 55.7137ZM49.2856 44.9994C46.9221 44.9994 44.9999 46.9216 44.9999 49.2852C44.9999 51.6487 46.9221 53.5709 49.2856 53.5709C51.6492 53.5709 53.5714 51.6487 53.5714 49.2852C53.5714 46.9216 51.6492 44.9994 49.2856 44.9994ZM47.1428 21.428C42.4156 21.428 38.5714 17.5837 38.5714 12.8566C38.5714 8.12944 42.4156 4.28516 47.1428 4.28516C51.8699 4.28516 55.7142 8.12944 55.7142 12.8566C55.7142 17.5837 51.8699 21.428 47.1428 21.428ZM47.1428 6.42801C43.5985 6.42801 40.7142 9.3123 40.7142 12.8566C40.7142 16.4009 43.5985 19.2852 47.1428 19.2852C50.6871 19.2852 53.5714 16.4009 53.5714 12.8566C53.5714 9.3123 50.6871 6.42801 47.1428 6.42801Z" fill="black"/>
<path d="M23.0142 30.0003C22.7843 30.0002 22.5606 29.9261 22.3761 29.789C22.1916 29.6519 22.056 29.4591 21.9895 29.239C21.9229 29.019 21.9289 28.7834 22.0066 28.567C22.0842 28.3507 22.2294 28.165 22.4206 28.0375L40.3135 16.1232C40.4304 16.0403 40.5628 15.9817 40.7028 15.9509C40.8428 15.92 40.9875 15.9176 41.1285 15.9437C41.2694 15.9699 41.4037 16.024 41.5233 16.103C41.643 16.1819 41.7456 16.2841 41.825 16.4034C41.9045 16.5227 41.9592 16.6567 41.9859 16.7976C42.0126 16.9384 42.0108 17.0832 41.9805 17.2233C41.9503 17.3634 41.8922 17.496 41.8098 17.6133C41.7273 17.7306 41.6222 17.8301 41.5006 17.9061L23.6078 29.8203C23.4324 29.9385 23.2256 30.0012 23.0142 30.0003ZM44.3785 48.2146C44.2309 48.2154 44.0848 48.1847 43.9499 48.1246L23.3999 39.1246C23.1396 39.0104 22.9351 38.7976 22.8315 38.5329C22.7279 38.2681 22.7335 37.9731 22.8471 37.7125C22.9621 37.4534 23.1748 37.2503 23.4388 37.1471C23.7028 37.044 23.9969 37.0493 24.2571 37.1618L44.8071 46.1618C45.0303 46.262 45.2126 46.4355 45.3237 46.6535C45.4348 46.8715 45.4682 47.121 45.4182 47.3605C45.3681 47.6 45.2378 47.8153 45.0487 47.9706C44.8597 48.126 44.6232 48.2121 44.3785 48.2146Z" fill="black"/>
</svg>
