<svg width="16" height="16" viewBox="0 0 16 16" fill="none" xmlns="http://www.w3.org/2000/svg">
<path fill-rule="evenodd" clip-rule="evenodd" d="M4 6.5C4 4.01472 6.01472 2 8.5 2C10.9853 2 13 4.01472 13 6.5C13 8.98528 10.9853 11 8.5 11C6.01472 11 4 8.98528 4 6.5ZM8.5 1C5.46243 1 3 3.46243 3 6.5C3 8.20794 3.7785 9.73405 5 10.7428V14C5 15.0704 6.08889 15.7963 7.07692 15.3846L8.30769 14.8718C8.43077 14.8205 8.56923 14.8205 8.69231 14.8718L9.92308 15.3846C10.9111 15.7963 12 15.0704 12 14V10.7428C13.2215 9.73405 14 8.20794 14 6.5C14 3.46243 11.5376 1 8.5 1ZM11 11.4003C10.2499 11.7837 9.40022 12 8.5 12C7.59978 12 6.75007 11.7837 6 11.4003V14C6 14.3568 6.36296 14.5988 6.69231 14.4615L7.92308 13.9487C8.29231 13.7949 8.70769 13.7949 9.07692 13.9487L10.3077 14.4615C10.637 14.5988 11 14.3568 11 14V11.4003Z" fill="#BDBABD"/>
</svg>
