<svg width="50" height="50" viewBox="0 0 50 50" fill="none" xmlns="http://www.w3.org/2000/svg">
<path d="M5.47965 29.437C2.92132 35.4099 5.47965 41.1682 9.74632 43.3015C22.0526 49.4536 33.2047 43.3016 40.3838 36.4682C47.0297 30.1453 47.8484 11.9432 39.3172 6.61197C30.788 1.27864 15.8588 4.90989 15.8588 15.1411C15.8588 24.1078 8.67965 21.9724 5.47965 29.437Z" fill="#BDB2FF"/>
<path fill-rule="evenodd" clip-rule="evenodd" d="M1.04218 38.5417C1.04218 38.2654 1.15192 38.0004 1.34727 37.8051C1.54262 37.6097 1.80757 37.5 2.08384 37.5H47.9172C48.1934 37.5 48.4584 37.6097 48.6537 37.8051C48.8491 38.0004 48.9588 38.2654 48.9588 38.5417C48.9588 38.8179 48.8491 39.0829 48.6537 39.2782C48.4584 39.4736 48.1934 39.5833 47.9172 39.5833H2.08384C1.80757 39.5833 1.54262 39.4736 1.34727 39.2782C1.15192 39.0829 1.04218 38.8179 1.04218 38.5417Z" fill="black"/>
<path fill-rule="evenodd" clip-rule="evenodd" d="M1.04199 13.541C1.04199 12.7122 1.37123 11.9174 1.95728 11.3313C2.54333 10.7453 3.33819 10.416 4.16699 10.416H10.417C11.2458 10.416 12.0407 10.7453 12.6267 11.3313C13.2128 11.9174 13.542 12.7122 13.542 13.541V23.9577C13.542 24.234 13.4322 24.4989 13.2369 24.6943C13.0415 24.8896 12.7766 24.9993 12.5003 24.9993H2.08366C1.80739 24.9993 1.54244 24.8896 1.34709 24.6943C1.15174 24.4989 1.04199 24.234 1.04199 23.9577V13.541ZM4.16699 12.4993C3.89073 12.4993 3.62577 12.6091 3.43042 12.8044C3.23507 12.9998 3.12533 13.2647 3.12533 13.541V22.916H11.4587V13.541C11.4587 13.2647 11.3489 12.9998 11.1536 12.8044C10.9582 12.6091 10.6933 12.4993 10.417 12.4993H4.16699ZM36.4587 13.541C36.4587 12.7122 36.7879 11.9174 37.374 11.3313C37.96 10.7453 38.7549 10.416 39.5837 10.416H45.8337C46.6625 10.416 47.4573 10.7453 48.0434 11.3313C48.6294 11.9174 48.9587 12.7122 48.9587 13.541V23.9577C48.9587 24.234 48.8489 24.4989 48.6536 24.6943C48.4582 24.8896 48.1933 24.9993 47.917 24.9993H37.5003C37.2241 24.9993 36.9591 24.8896 36.7638 24.6943C36.5684 24.4989 36.4587 24.234 36.4587 23.9577V13.541ZM39.5837 12.4993C39.3074 12.4993 39.0424 12.6091 38.8471 12.8044C38.6517 12.9998 38.542 13.2647 38.542 13.541V22.916H46.8753V13.541C46.8753 13.2647 46.7656 12.9998 46.5702 12.8044C46.3749 12.6091 46.1099 12.4993 45.8337 12.4993H39.5837ZM18.7503 13.541C18.7503 12.7122 19.0796 11.9174 19.6656 11.3313C20.2517 10.7453 21.0465 10.416 21.8753 10.416H28.1253C28.9541 10.416 29.749 10.7453 30.335 11.3313C30.9211 11.9174 31.2503 12.7122 31.2503 13.541V23.9577C31.2503 24.234 31.1406 24.4989 30.9452 24.6943C30.7499 24.8896 30.4849 24.9993 30.2087 24.9993H19.792C19.5157 24.9993 19.2508 24.8896 19.0554 24.6943C18.8601 24.4989 18.7503 24.234 18.7503 23.9577V13.541ZM21.8753 12.4993C21.5991 12.4993 21.3341 12.6091 21.1388 12.8044C20.9434 12.9998 20.8337 13.2647 20.8337 13.541V22.916H29.167V13.541C29.167 13.2647 29.0572 12.9998 28.8619 12.8044C28.6665 12.6091 28.4016 12.4993 28.1253 12.4993H21.8753ZM1.04199 30.2077C1.04199 29.9314 1.15174 29.6665 1.34709 29.4711C1.54244 29.2758 1.80739 29.166 2.08366 29.166H12.5003C12.7766 29.166 13.0415 29.2758 13.2369 29.4711C13.4322 29.6665 13.542 29.9314 13.542 30.2077C13.542 30.484 13.4322 30.7489 13.2369 30.9443C13.0415 31.1396 12.7766 31.2494 12.5003 31.2494H8.33366V38.541C8.33366 38.8173 8.22391 39.0822 8.02856 39.2776C7.83321 39.4729 7.56826 39.5827 7.29199 39.5827C7.01573 39.5827 6.75077 39.4729 6.55542 39.2776C6.36007 39.0822 6.25033 38.8173 6.25033 38.541V31.2494H2.08366C1.80739 31.2494 1.54244 31.1396 1.34709 30.9443C1.15174 30.7489 1.04199 30.484 1.04199 30.2077ZM36.4587 30.2077C36.4587 29.9314 36.5684 29.6665 36.7638 29.4711C36.9591 29.2758 37.2241 29.166 37.5003 29.166H47.917C48.1933 29.166 48.4582 29.2758 48.6536 29.4711C48.8489 29.6665 48.9587 29.9314 48.9587 30.2077C48.9587 30.484 48.8489 30.7489 48.6536 30.9443C48.4582 31.1396 48.1933 31.2494 47.917 31.2494H43.7503V38.541C43.7503 38.8173 43.6406 39.0822 43.4452 39.2776C43.2499 39.4729 42.9849 39.5827 42.7087 39.5827C42.4324 39.5827 42.1674 39.4729 41.9721 39.2776C41.7767 39.0822 41.667 38.8173 41.667 38.541V31.2494H37.5003C37.2241 31.2494 36.9591 31.1396 36.7638 30.9443C36.5684 30.7489 36.4587 30.484 36.4587 30.2077ZM18.7503 30.2077C18.7503 29.9314 18.8601 29.6665 19.0554 29.4711C19.2508 29.2758 19.5157 29.166 19.792 29.166H30.2087C30.4849 29.166 30.7499 29.2758 30.9452 29.4711C31.1406 29.6665 31.2503 29.9314 31.2503 30.2077C31.2503 30.484 31.1406 30.7489 30.9452 30.9443C30.7499 31.1396 30.4849 31.2494 30.2087 31.2494H26.042V38.541C26.042 38.8173 25.9322 39.0822 25.7369 39.2776C25.5415 39.4729 25.2766 39.5827 25.0003 39.5827C24.7241 39.5827 24.4591 39.4729 24.2638 39.2776C24.0684 39.0822 23.9587 38.8173 23.9587 38.541V31.2494H19.792C19.5157 31.2494 19.2508 31.1396 19.0554 30.9443C18.8601 30.7489 18.7503 30.484 18.7503 30.2077Z" fill="black"/>
</svg>
