<svg width="50" height="50" viewBox="0 0 50 50" fill="none" xmlns="http://www.w3.org/2000/svg">
<path d="M27.5675 9.16612C19.3592 11.9036 14.5154 10.3724 11.505 9.16612C1.46336 5.15362 0.459197 40.2911 16.5217 43.3015C32.5842 46.314 44.6321 30.2515 45.6363 21.2182C46.6384 12.1807 43.628 9.17029 40.6155 7.16196C37.605 5.15362 33.5884 7.16196 27.5655 9.17029L27.5675 9.16612Z" fill="#9BF6FF"/>
<path fill-rule="evenodd" clip-rule="evenodd" d="M4.44843 15.1083C3.36926 15.8063 3.12551 16.3563 3.12551 16.6667C3.12551 16.9792 3.36926 17.5271 4.44843 18.225C5.48176 18.8917 7.04426 19.5292 9.06926 20.0792C13.1047 21.1833 18.7359 21.875 25.0005 21.875C31.263 21.875 36.8963 21.1813 40.9318 20.0813C42.9568 19.5292 44.5193 18.8896 45.5526 18.225C46.6318 17.5271 46.8755 16.9771 46.8755 16.6667C46.8755 16.3542 46.6318 15.8063 45.5526 15.1083C44.5193 14.4417 42.9568 13.8042 40.9318 13.2542C36.8963 12.1479 31.2651 11.4583 25.0005 11.4583C18.738 11.4583 13.1047 12.1521 9.06926 13.2521C7.04426 13.8042 5.48176 14.4437 4.44843 15.1083ZM8.52134 11.2417C12.7818 10.0833 18.6068 9.375 25.0005 9.375C31.3943 9.375 37.2193 10.0812 41.4797 11.2417C43.6005 11.8208 45.3943 12.5292 46.6818 13.3583C47.9213 14.1583 48.9588 15.2521 48.9588 16.6667C48.9588 18.0813 47.9213 19.175 46.6818 19.975C45.3943 20.8042 43.6005 21.5125 41.4797 22.0917C37.2193 23.2521 31.3943 23.9583 25.0005 23.9583C18.6068 23.9583 12.7818 23.2521 8.52134 22.0917C6.40051 21.5125 4.60676 20.8042 3.31926 19.975C2.07968 19.175 1.04218 18.0813 1.04218 16.6667C1.04218 15.2521 2.07968 14.1583 3.31926 13.3583C4.60676 12.5292 6.40051 11.8208 8.52134 11.2417Z" fill="black"/>
<path fill-rule="evenodd" clip-rule="evenodd" d="M25.0006 17.7083C16.8652 17.7083 9.84022 18.8771 5.9798 20.5583C5.85436 20.6129 5.7194 20.6423 5.58262 20.6447C5.44584 20.6471 5.30993 20.6226 5.18263 20.5725C4.92555 20.4713 4.7192 20.2721 4.60897 20.0188C4.49874 19.7654 4.49366 19.4787 4.59485 19.2216C4.69604 18.9645 4.89521 18.7581 5.14855 18.6479C9.39022 16.8021 16.7465 15.625 25.0027 15.625C33.2548 15.625 40.611 16.8021 44.8527 18.6479C44.9782 18.7026 45.0916 18.7815 45.1865 18.8801C45.2815 18.9786 45.3561 19.0949 45.4061 19.2223C45.4561 19.3497 45.4805 19.4857 45.478 19.6225C45.4754 19.7594 45.446 19.8944 45.3913 20.0198C45.3365 20.1452 45.2576 20.2587 45.1591 20.3536C45.0605 20.4486 44.9442 20.5232 44.8169 20.5732C44.6895 20.6232 44.5535 20.6476 44.4166 20.6451C44.2798 20.6425 44.1448 20.6131 44.0194 20.5583C40.1631 18.8771 33.1381 17.7083 25.0006 17.7083ZM6.78605 37.7208C6.82666 37.5902 6.89262 37.4688 6.98014 37.3637C7.06767 37.2585 7.17505 37.1716 7.29615 37.108C7.41726 37.0443 7.54972 37.0052 7.68597 36.9927C7.82221 36.9803 7.95958 36.9948 8.09022 37.0354C11.6944 38.1542 16.8527 38.9229 22.7152 39.0833C22.852 39.087 22.9867 39.1176 23.1117 39.1734C23.2367 39.2292 23.3494 39.309 23.4435 39.4083C23.5377 39.5077 23.6113 39.6246 23.6602 39.7524C23.7092 39.8802 23.7324 40.0163 23.7288 40.1531C23.7251 40.2899 23.6945 40.4246 23.6387 40.5496C23.5829 40.6746 23.5031 40.7873 23.4038 40.8815C23.3044 40.9756 23.1875 41.0492 23.0597 41.0981C22.9319 41.1471 22.7958 41.1704 22.659 41.1667C16.6735 41.0021 11.3131 40.2167 7.47147 39.025C7.34082 38.9844 7.21945 38.9184 7.1143 38.8309C7.00914 38.7434 6.92226 38.636 6.85861 38.5149C6.79496 38.3938 6.75579 38.2613 6.74334 38.1251C6.73089 37.9888 6.7454 37.8515 6.78605 37.7208ZM43.2152 37.7208C43.2558 37.8516 43.2702 37.9891 43.2577 38.1254C43.2451 38.2618 43.2057 38.3943 43.1419 38.5155C43.078 38.6366 42.9909 38.7439 42.8855 38.8314C42.7801 38.9188 42.6586 38.9846 42.5277 39.025C38.6881 40.2167 33.3277 41.0042 27.3423 41.1667C27.2055 41.1704 27.0693 41.1471 26.9415 41.0981C26.8137 41.0492 26.6968 40.9756 26.5975 40.8815C26.4982 40.7873 26.4183 40.6746 26.3626 40.5496C26.3068 40.4246 26.2762 40.2899 26.2725 40.1531C26.2688 40.0163 26.2921 39.8802 26.341 39.7524C26.39 39.6246 26.4636 39.5077 26.5577 39.4083C26.6518 39.309 26.7646 39.2292 26.8896 39.1734C27.0145 39.1176 27.1493 39.087 27.286 39.0833C33.1506 38.9229 38.3069 38.1542 41.911 37.0354C42.0418 36.9948 42.1793 36.9804 42.3157 36.993C42.452 37.0056 42.5845 37.0449 42.7057 37.1088C42.8268 37.1726 42.9342 37.2597 43.0216 37.3651C43.109 37.4705 43.1748 37.59 43.2152 37.7208Z" fill="black"/>
<path fill-rule="evenodd" clip-rule="evenodd" d="M1.83124 15.6559C2.09922 15.5891 2.38274 15.6315 2.61949 15.7737C2.85623 15.9159 3.02682 16.1463 3.09374 16.4142L9.34374 41.4142C9.3644 41.4967 9.3749 41.5813 9.37499 41.6663C9.37499 42.1247 9.61874 42.6872 10.3333 43.3205C11.0479 43.9538 12.1417 44.5705 13.5812 45.1122C16.4521 46.1872 20.4896 46.8747 25 46.8747C29.5104 46.8747 33.5479 46.1872 36.4187 45.1101C37.8583 44.5705 38.9521 43.9538 39.6667 43.3184C40.3812 42.6851 40.625 42.1247 40.625 41.6663C40.625 41.583 40.6354 41.4955 40.6562 41.4142L46.9062 16.4142C46.9782 16.1518 47.15 15.928 47.3848 15.7906C47.6197 15.6532 47.899 15.6132 48.163 15.679C48.427 15.7449 48.6547 15.9115 48.7975 16.1431C48.9403 16.3747 48.9868 16.653 48.9271 16.9184L42.7083 41.8059C42.6604 43.0142 41.9854 44.0497 41.05 44.8788C40.0771 45.7413 38.7292 46.4705 37.1542 47.0622C33.9937 48.2455 29.6958 48.958 25.0021 48.958C20.3083 48.958 16.0125 48.2455 12.8521 47.0622C11.275 46.4705 9.92707 45.7413 8.95624 44.8788C8.01874 44.0497 7.34582 43.0142 7.29582 41.8059L1.07291 16.9184C1.00613 16.6504 1.0485 16.3669 1.1907 16.1302C1.3329 15.8934 1.5633 15.7228 1.83124 15.6559Z" fill="black"/>
<path fill-rule="evenodd" clip-rule="evenodd" d="M20.8333 43.8784C20.6743 43.2449 20.6619 42.5835 20.797 41.9445C20.9321 41.3055 21.2111 40.7057 21.6128 40.1907C22.0145 39.6757 22.5284 39.2591 23.1153 38.9726C23.7023 38.686 24.3468 38.5371 24.9999 38.5371C25.6531 38.5371 26.2976 38.686 26.8846 38.9726C27.4715 39.2591 27.9854 39.6757 28.3871 40.1907C28.7888 40.7057 29.0678 41.3055 29.2029 41.9445C29.338 42.5835 29.3256 43.2449 29.1666 43.8784L28.0937 48.1701C28.0371 48.3952 27.9069 48.5949 27.7238 48.7375C27.5408 48.8802 27.3153 48.9577 27.0833 48.9576H22.9166C22.6842 48.9575 22.4586 48.8798 22.2755 48.7367C22.0924 48.5937 21.9624 48.3935 21.9062 48.168L20.8333 43.8784ZM24.9999 40.6243C23.5624 40.6243 22.5062 41.9764 22.8541 43.3722L23.7291 46.8743H26.2708L27.1458 43.3722C27.2271 43.0461 27.2331 42.7058 27.1633 42.3771C27.0934 42.0484 26.9497 41.7399 26.7428 41.4751C26.536 41.2102 26.2716 40.9959 25.9696 40.8485C25.6676 40.7011 25.336 40.6244 24.9999 40.6243Z" fill="black"/>
<path fill-rule="evenodd" clip-rule="evenodd" d="M25.0003 21.8744C25.2766 21.8744 25.5415 21.9841 25.7369 22.1794C25.9322 22.3748 26.042 22.6397 26.042 22.916V39.5827C26.042 39.859 25.9322 40.1239 25.7369 40.3193C25.5415 40.5146 25.2766 40.6244 25.0003 40.6244C24.7241 40.6244 24.4591 40.5146 24.2638 40.3193C24.0684 40.1239 23.9587 39.859 23.9587 39.5827V22.916C23.9587 22.6397 24.0684 22.3748 24.2638 22.1794C24.4591 21.9841 24.7241 21.8744 25.0003 21.8744ZM12.5003 21.8744C12.7766 21.8744 13.0415 21.9841 13.2369 22.1794C13.4322 22.3748 13.542 22.6397 13.542 22.916V38.541C13.542 38.8173 13.4322 39.0822 13.2369 39.2776C13.0415 39.4729 12.7766 39.5827 12.5003 39.5827C12.2241 39.5827 11.9591 39.4729 11.7638 39.2776C11.5684 39.0822 11.4587 38.8173 11.4587 38.541V22.916C11.4587 22.6397 11.5684 22.3748 11.7638 22.1794C11.9591 21.9841 12.2241 21.8744 12.5003 21.8744ZM37.5003 21.8744C37.7766 21.8744 38.0415 21.9841 38.2369 22.1794C38.4322 22.3748 38.542 22.6397 38.542 22.916V38.541C38.542 38.8173 38.4322 39.0822 38.2369 39.2776C38.0415 39.4729 37.7766 39.5827 37.5003 39.5827C37.2241 39.5827 36.9591 39.4729 36.7638 39.2776C36.5684 39.0822 36.4587 38.8173 36.4587 38.541V22.916C36.4587 22.6397 36.5684 22.3748 36.7638 22.1794C36.9591 21.9841 37.2241 21.8744 37.5003 21.8744ZM21.8753 2.08268C21.8753 1.80642 21.9851 1.54146 22.1804 1.34611C22.3758 1.15076 22.6407 1.04102 22.917 1.04102H29.167C29.4433 1.04102 29.7082 1.15076 29.9036 1.34611C30.0989 1.54146 30.2087 1.80642 30.2087 2.08268V6.24935C30.2087 6.52562 30.0989 6.79057 29.9036 6.98592C29.7082 7.18127 29.4433 7.29102 29.167 7.29102H23.9587V10.416C23.9587 10.6923 23.8489 10.9572 23.6536 11.1526C23.4582 11.3479 23.1933 11.4577 22.917 11.4577C22.6407 11.4577 22.3758 11.3479 22.1804 11.1526C21.9851 10.9572 21.8753 10.6923 21.8753 10.416V2.08268ZM23.9587 5.20768H28.1253V3.12435H23.9587V5.20768ZM7.29199 2.08268C7.29199 1.80642 7.40174 1.54146 7.59709 1.34611C7.79244 1.15076 8.05739 1.04102 8.33366 1.04102H14.5837C14.8599 1.04102 15.1249 1.15076 15.3202 1.34611C15.5156 1.54146 15.6253 1.80642 15.6253 2.08268V6.24935C15.6253 6.52562 15.5156 6.79057 15.3202 6.98592C15.1249 7.18127 14.8599 7.29102 14.5837 7.29102H9.37533V11.4577C9.37533 11.734 9.26558 11.9989 9.07023 12.1943C8.87488 12.3896 8.60993 12.4993 8.33366 12.4993C8.05739 12.4993 7.79244 12.3896 7.59709 12.1943C7.40174 11.9989 7.29199 11.734 7.29199 11.4577V2.08268ZM9.37533 5.20768H13.542V3.12435H9.37533V5.20768ZM36.4587 2.08268C36.4587 1.80642 36.5684 1.54146 36.7638 1.34611C36.9591 1.15076 37.2241 1.04102 37.5003 1.04102H43.7503C44.0266 1.04102 44.2915 1.15076 44.4869 1.34611C44.6822 1.54146 44.792 1.80642 44.792 2.08268V6.24935C44.792 6.52562 44.6822 6.79057 44.4869 6.98592C44.2915 7.18127 44.0266 7.29102 43.7503 7.29102H38.542V10.416C38.542 10.6923 38.4322 10.9572 38.2369 11.1526C38.0415 11.3479 37.7766 11.4577 37.5003 11.4577C37.2241 11.4577 36.9591 11.3479 36.7638 11.1526C36.5684 10.9572 36.4587 10.6923 36.4587 10.416V2.08268ZM38.542 5.20768H42.7087V3.12435H38.542V5.20768Z" fill="black"/>
</svg>
